<svg width="316" height="111" viewBox="0 0 316 111" fill="none" xmlns="http://www.w3.org/2000/svg">
  <rect width="316" height="111" rx="9" fill="#D88F51"/>
  <path d="M316.03 72.0799V85.1599C311.64 92.4799 293.17 97.9699 271.03 97.9699C262.57 98.0599 249.94 98.1699 234.61 98.1799C222.97 98.1799 212.35 98.1799 202.87 98.0599C179.87 97.8799 165.98 97.5699 157.63 97.4499C104.97 96.6799 63.8503 100.68 33.1603 97.4499C26.1463 96.8398 19.223 95.4444 12.5203 93.2899C4.91026 90.6199 1.97028 87.5499 1.13028 86.6199C0.714893 86.1539 0.346439 85.6481 0.0302734 85.1099V72.0299C0.970273 71.8799 1.96027 71.7499 3.03027 71.6199C10.0633 70.8339 17.1551 70.7167 24.2103 71.2699L26.4303 71.4499L26.2103 71.5499C25.5503 71.8199 24.7003 72.1899 23.7603 72.6399C19.0803 74.8899 12.1303 79.1299 14.6503 83.9099C14.6503 83.9099 16.0103 86.5099 20.7103 88.7799C36.0603 96.2099 95.0803 93.2299 156.64 93.2899C218.64 93.3499 275.64 96.2899 291.53 88.8999C296.9 86.3899 298.69 83.3399 298.69 83.3399C302.28 77.6899 295.46 72.7099 291.28 70.2599C290.67 69.9099 290.11 69.5999 289.65 69.3599H289.94L294.04 69.7799L316.03 72.0799Z" fill="#C87B46"/>
  <path d="M27.8098 70.2998L27.3098 70.4498C26.5298 70.6698 25.4898 70.9598 24.2098 71.2698C23.2098 71.5198 21.9599 71.7798 20.6099 72.0198C15.9037 72.8852 11.1245 73.2905 6.33984 73.2298H6.28986L4.48984 73.1798C2.91984 73.1198 1.48984 73.0098 0.0898438 72.8598V15.8598C4.00984 13.2598 7.92651 10.6565 11.8398 8.0498L27.1898 10.5498C23.9627 11.8828 20.8883 13.5591 18.0198 15.5498C14.9598 17.7498 4.79985 25.0698 13.6898 32.0598C15.2298 33.2698 18.3098 35.2398 24.6198 37.2098C24.6198 37.6998 24.6198 38.2098 24.6198 38.6798C24.0498 38.9498 23.4099 39.2598 22.7299 39.6198C20.8773 40.5717 19.1252 41.7074 17.4998 43.0098C12.0998 47.4798 12.6198 51.5098 13.3398 56.0098C13.8498 59.1998 14.2199 61.2198 16.9499 63.8298C19.9699 66.8098 24.5098 68.9698 27.8098 70.2998Z" fill="#C87B46"/>
  <path d="M316.03 16V72.85C314.484 73.0529 312.929 73.1664 311.37 73.19C305.418 73.2929 299.51 72.1448 294.03 69.82L293.85 69.74C292.819 69.294 291.817 68.783 290.85 68.21C293.778 67.1675 296.535 65.6947 299.03 63.84C300.03 63.06 302.32 61.02 302.64 56.02C302.821 51.3329 301.348 46.7315 298.48 43.02C296.917 40.9649 295.144 39.0781 293.19 37.39L292.26 36.6C292.49 36.07 292.73 35.54 292.97 35C296.205 34.4749 299.348 33.4846 302.3 32.06C313.3 26.34 301.01 17.74 297.97 15.55C295.086 13.5556 291.995 11.8791 288.75 10.55H288.88L304.02 8.02002L316.03 16Z" fill="#C87B46"/>
  <path d="M34.9106 70.8101C31.6106 71.2601 27.8206 71.8101 23.7606 72.6401C20.6806 73.2301 17.4406 73.9301 14.1306 74.7601C9.36282 75.9375 4.66534 77.3831 0.0605469 79.0901V73.7701L6.26056 73.2401H6.31055L20.5806 72.0301L26.1906 71.5601L34.9106 70.8101Z" fill="#D78B38"/>
  <path d="M34.9099 70.8097L26.2198 71.5497L20.6099 72.0197L6.33984 73.2297H6.28986L0.0898438 73.7597V69.1597L27.3698 70.4497L34.9099 70.8097Z" fill="#A85B23"/>
  <path d="M316.03 22.0599V-0.00012207L303.66 -0.000111461H12.4098H-0.000242016V12.3799V22.0999C3.09976 16.8699 13.3698 12.5399 27.0498 10.5399C33.0096 9.66494 39.0261 9.23376 45.0498 9.24989H271.05C276.989 9.23345 282.921 9.65123 288.8 10.4999C302.54 12.5199 312.91 16.8199 316.03 22.0599Z" fill="#D78B38"/>
  <path d="M12.3795 111H303.63H316V89.0398C311.61 96.33 293.14 101.798 271 101.798H44.9995C22.8595 101.798 4.34951 96.3101 -0.000488281 89V111H12.3795Z" fill="#C87B46"/>
  <path d="M17.3486 9.75295C23.2623 9.06454 27.9127 7.27384 27.7357 5.75332C27.5587 4.23281 22.6213 3.55825 16.7076 4.24667C10.794 4.93509 6.14349 6.72579 6.3205 8.24631C6.4975 9.76682 11.435 10.4414 17.3486 9.75295Z" fill="#FCD179"/>
  <path d="M309.191 8.35594C309.372 6.80357 304.624 4.97539 298.586 4.27255C292.549 3.56971 287.508 4.25837 287.327 5.81074C287.147 7.36311 291.894 9.19135 297.932 9.89418C303.969 10.597 309.01 9.90831 309.191 8.35594Z" fill="#FCD179"/>
  <path fill-rule="evenodd" clip-rule="evenodd" d="M316 61.0113C315.069 60.6728 314.129 60.3532 313.19 60.0339C312.27 59.7215 311.352 59.4094 310.444 59.08C309.459 58.7859 308.457 58.5488 307.444 58.3701C307.449 58.5257 307.472 58.6801 307.514 58.83C307.644 59.04 307.784 59.2301 307.924 59.4201C310.756 63.1237 312.464 67.5633 312.844 72.2101C312.962 76.0053 312.876 79.8042 312.584 83.5901C312.504 84.5901 311.974 85.6601 310.584 85.5901C309.194 85.5201 309.194 84.28 309.194 83.33C309.25 81.2854 309.428 79.2495 309.606 77.2141C309.619 77.0694 309.632 76.9247 309.644 76.7801C309.689 76.2638 309.737 75.7476 309.785 75.2314C310.106 71.8077 310.426 68.3851 309.644 64.9701C309.406 63.5895 308.795 62.3005 307.877 61.2428C306.958 60.185 305.768 59.399 304.434 58.9701C301.594 58.0101 298.714 57.1301 295.824 56.3501C294.619 56.1377 293.398 56.0207 292.174 56.0001C292.203 56.2005 292.25 56.398 292.314 56.5901C292.474 56.7838 292.631 56.9918 292.789 57.202C293.006 57.4908 293.227 57.7838 293.464 58.05C297.424 62.56 298.244 67.8801 297.844 73.5601C297.886 73.8616 297.823 74.1684 297.664 74.4285C297.506 74.6885 297.263 74.8859 296.976 74.9871C296.688 75.0883 296.375 75.0871 296.089 74.9838C295.802 74.8805 295.561 74.6813 295.404 74.4201C294.849 73.8338 294.447 73.1192 294.234 72.3401C294.048 71.5708 293.959 70.7763 293.87 69.9804C293.811 69.4519 293.752 68.9228 293.664 68.4001C293.394 65.9995 292.942 63.6227 292.314 61.2901C291.474 58.7201 289.424 57.7201 286.754 58.1701C285.493 58.4235 284.258 58.7917 283.064 59.2701C282.328 59.5409 281.61 59.8602 280.892 60.1791C280.391 60.4018 279.89 60.6244 279.384 60.83C275.884 62.3398 271.952 62.5106 268.334 61.3101C268.122 61.2265 267.865 61.176 267.559 61.1161C267.389 61.0827 267.204 61.0465 267.004 61.0001C268.054 64.7301 267.314 68.1101 266.314 71.4701C266.019 72.4213 265.711 73.3726 265.403 74.3239C264.74 76.3726 264.077 78.4213 263.544 80.4701C262.454 84.7501 262.754 88.8401 266.754 91.4701C268.941 92.7821 271.296 93.7913 273.754 94.4701C275.212 94.912 276.716 95.2123 278.22 95.5127C279.338 95.7357 280.455 95.9588 281.554 96.2401C282.563 96.5128 283.512 96.9706 284.354 97.5901C285.464 98.4001 285.294 99.3301 284.004 99.8101C283.333 100.046 282.634 100.194 281.924 100.25C279.065 100.514 276.182 100.155 273.474 99.2001C270.388 98.0452 267.56 96.2916 265.154 94.0401L263.674 92.7201L263.284 92.9901C263.679 94.1955 264.072 95.402 264.465 96.6086C265.813 100.747 267.162 104.886 268.594 108.99C268.88 109.756 269.337 110.443 269.924 111H299.826C299.953 110.769 300.153 110.548 300.324 110.48C301.221 110.15 302.144 109.882 303.071 109.612C303.435 109.506 303.8 109.4 304.164 109.29L304.224 109.3C305.128 109.885 305.435 110.289 305.013 111H316V107.216C315.855 107.27 315.701 107.3 315.546 107.305C315.299 107.314 315.055 107.261 314.834 107.15C314.662 106.976 314.537 106.76 314.473 106.523C314.408 106.287 314.405 106.038 314.464 105.8C314.932 105.098 315.445 104.428 316 103.794V61.0113ZM267.194 74.86L267.634 74.58L267.654 74.5901C268.057 74.8867 268.444 75.2038 268.814 75.5401C271.177 77.9819 274.155 79.7404 277.434 80.6301C277.81 80.6868 278.159 80.8579 278.434 81.1201C278.724 81.4901 279.084 82.0601 278.984 82.4301C278.871 82.6449 278.703 82.8262 278.498 82.9561C278.293 83.0859 278.057 83.1597 277.814 83.1701C276.497 83.001 275.207 82.665 273.974 82.1701C271.309 80.9598 269.099 78.9317 267.664 76.3801C267.443 75.8955 267.286 75.3846 267.194 74.86ZM281.854 65.2001C283.284 65.9701 285.244 70.9101 284.724 72.3801L284.744 72.39C284.708 72.598 284.612 72.7908 284.467 72.9446C284.322 73.0984 284.136 73.2064 283.931 73.2553C283.725 73.3043 283.51 73.292 283.312 73.2199C283.113 73.1479 282.94 73.0193 282.814 72.8501C281.954 71.9587 281.284 70.9014 280.845 69.7426C280.407 68.5838 280.209 67.3478 280.264 66.11C280.284 65.2 280.854 64.6701 281.854 65.2001ZM306.144 96.5901C306.2 96.0278 306.294 95.4699 306.424 94.9201L306.484 94.9301C306.897 94.2377 307.369 93.582 307.894 92.9701C308.694 92.1901 309.494 92.4501 309.894 93.4501C310.174 94.2933 310.129 95.2103 309.768 96.0221C309.407 96.8338 308.757 97.4821 307.944 97.8401C306.884 98.2301 306.144 97.7401 306.144 96.5901ZM290.004 98.0401C291.156 97.692 292.328 97.4148 293.514 97.2101L293.574 97.2201C293.758 97.4202 293.961 97.6083 294.147 97.7814C294.547 98.153 294.873 98.4554 294.784 98.6601C294.702 98.9874 294.553 99.2941 294.347 99.5609C294.14 99.8276 293.88 100.049 293.584 100.21C292.987 100.517 292.312 100.642 291.644 100.571C290.977 100.5 290.344 100.236 289.824 99.8101C289.114 99.1701 289.004 98.4001 290.004 98.0401ZM295.814 85.4001C295.338 84.3954 294.93 83.3597 294.594 82.3C294.815 82.0859 295.01 81.8685 295.186 81.6718C295.544 81.2715 295.826 80.9569 296.094 80.9301C296.376 80.9019 296.692 81.181 297.005 81.4569C297.136 81.5729 297.267 81.6883 297.394 81.7801C297.415 81.8313 297.415 81.8888 297.394 81.9401C297.934 83.0301 298.394 84.1901 297.394 85.1901C297.064 85.5101 295.914 85.5801 295.814 85.4001Z" fill="#B06A2E"/>
  <path d="M265.612 38.3804C261.864 39.0977 258.159 39.8069 254.683 41.4411L254.542 41.0329C254.626 40.8927 254.728 40.7645 254.846 40.6517C260.858 35.6834 268.431 32.9967 276.229 33.0651C278.003 33.132 279.75 32.6174 281.204 31.5998C279.075 31.6846 277.002 31.6106 274.961 31.5377C271.773 31.4238 268.665 31.3128 265.553 31.8149C270.71 28.7749 276.271 27.2337 282.063 28.6177C285.185 29.3521 286.969 28.2542 288.712 26.182C289.587 25.1525 290.413 24.081 291.231 23.0057C291.41 22.8453 291.535 22.6332 291.588 22.3989C291.641 22.1645 291.62 21.9194 291.528 21.6974C289.316 23.1024 286.768 23.8919 284.149 23.9846C283.104 24.0726 282.057 24.1398 281.01 24.2071C277.17 24.4537 273.326 24.7004 269.623 25.9732C269.571 26.0031 269.514 26.0206 269.455 26.0243C269.396 26.028 269.336 26.0178 269.282 25.9945C269.227 25.9713 269.179 25.9356 269.141 25.8903C269.103 25.845 269.075 25.7914 269.062 25.7338C269.22 25.2365 269.669 24.9593 270.102 24.6921C270.194 24.6353 270.285 24.579 270.373 24.5211C276.782 20.254 283.729 18.3693 291.41 19.8855C292.149 20.038 292.893 20.1812 293.285 19.2615C294.417 16.6324 295.071 13.8225 295.217 10.9638C292.73 13.2156 289.664 14.7276 286.363 15.3293C285.969 15.4172 285.574 15.5042 285.179 15.5913C280.962 16.5216 276.712 17.4591 272.819 19.4763C272.769 19.509 272.712 19.5288 272.653 19.5341C272.594 19.5394 272.534 19.53 272.48 19.5067C272.425 19.4834 272.377 19.4469 272.34 19.4005C272.303 19.3541 272.278 19.2993 272.267 19.2409C272.549 18.5889 273.013 18.0321 273.604 17.6368C279.509 12.5892 286.224 9.61635 294.132 9.91374C295.322 9.95388 295.594 9.49388 295.54 8.44876C295.454 6.70427 295.243 4.9682 294.908 3.25396C294.675 2.06731 294.159 2.12984 293.518 2.94364C291.572 5.44023 288.864 6.74182 285.988 7.85196C285.193 8.16159 284.392 8.45711 283.59 8.75276C280.588 9.85953 277.58 10.9682 274.917 12.8263C274.774 12.9244 274.618 13.0541 274.457 13.1882C273.925 13.6315 273.333 14.1242 272.949 13.6934C272.435 13.1304 273 12.582 273.514 12.0838C273.666 11.9358 273.814 11.7922 273.928 11.654C278.832 5.76631 284.952 2.12601 292.658 1.39165C293.772 1.28799 294.167 0.93958 293.855 6.10352e-05H294.456C294.813 1.23064 295.181 2.24467 296.98 2.47466C304.845 3.46795 311.07 7.23172 316 13.0439V15.6849C312.931 13.6751 309.57 12.2466 306.209 10.8179C304.903 10.2632 303.598 9.7084 302.31 9.11955C300.508 8.30115 298.873 7.15751 297.487 5.74602C297.369 5.62728 297.246 5.46592 297.12 5.30058C296.767 4.8361 296.39 4.34014 296.033 4.66898C295.354 5.29244 295.835 6.35658 296.311 7.12529C296.55 7.44343 296.862 7.69959 297.221 7.8723C302.784 10.9835 307.087 15.938 309.389 21.8819C310.426 24.0171 310.981 26.3546 311.012 28.7283C310.656 28.2001 310.331 27.7144 310.026 27.2586C309.397 26.3176 308.853 25.5041 308.292 24.708C306.843 22.6339 305.017 20.8756 303.189 19.1167C300.418 16.4498 297.646 13.7816 296.19 10.009C296.16 10.4274 296.096 10.8377 296.033 11.2423C295.806 12.6955 295.591 14.0749 297.036 15.491C302.352 20.7165 304.483 27.2903 304.412 34.6422C304.412 34.7041 304.414 34.7673 304.415 34.8312C304.427 35.2626 304.439 35.7273 304.021 36.0413L303.718 35.9117C303.594 35.726 303.497 35.5237 303.43 35.3108C302.639 32.2381 301.048 29.5401 299.449 26.8284C297.584 23.6652 295.708 20.4834 295.077 16.6667C293.287 20.1754 293.344 20.602 294.982 23.5407C298.419 29.7224 299.348 36.9893 297.575 43.8366C297.557 43.9154 297.544 44 297.531 44.0869C297.473 44.4808 297.407 44.921 296.807 45.0747C296.697 44.7495 296.614 44.4159 296.559 44.0772C296.282 41.2126 295.66 38.3919 294.707 35.6765C294.473 34.9447 294.223 34.2159 293.972 33.4869C292.887 30.3275 291.801 27.1629 292.023 23.724L291.747 23.6062C289.698 26.1896 289.695 26.1988 290.155 27.6674C293.021 36.2398 291.475 44.3216 287.339 52.1028C287.309 52.1595 287.279 52.2201 287.249 52.2821C287.071 52.6451 286.87 53.0557 286.328 53.0196C286.064 52.7024 286.138 52.3847 286.21 52.0757C286.214 52.0564 286.218 52.0371 286.223 52.0179C286.95 48.3095 287.163 44.5186 286.855 40.7521C286.835 40.2638 286.811 39.7747 286.787 39.2854C286.603 35.5517 286.418 31.8061 288.226 28.2902C288.234 28.2722 288.186 28.2212 288.123 28.1548C288.09 28.1195 288.053 28.0798 288.018 28.0385C287.743 28.2645 287.474 28.4928 287.204 28.7212C286.62 29.2159 286.036 29.7107 285.397 30.1816C285.044 30.4061 284.759 30.7217 284.571 31.0951C284.383 31.4684 284.299 31.8856 284.328 32.3026C284.298 38.522 281.9 44.4964 277.623 49.0114C277.044 49.8624 276.206 50.5039 275.233 50.8404C276.942 48.1222 277.704 45.0714 278.471 41.9978C279.283 38.7415 280.102 35.4596 282.061 32.5202C279.923 33.1735 278.657 33.9489 278.032 36.1283C276.306 42.1869 272.504 46.8923 267.431 50.5769C266.8 51.1073 266.018 51.4243 265.196 51.4825C267.708 48.7146 269.395 45.5945 271.082 42.4744C272.261 40.2939 273.439 38.1134 274.9 36.0531C271.846 37.1872 268.714 37.7866 265.612 38.3804Z" fill="#B06A2E"/>
  <path d="M316 3.97309V4.70034C315.587 4.88647 315.215 4.70266 314.862 4.52809C314.775 4.4854 314.69 4.44326 314.606 4.40722C312.062 3.3195 309.379 2.59188 306.635 2.24538C305.833 2.10964 305.034 1.96822 304.235 1.82688C302.761 1.56591 301.288 1.3052 299.804 1.08098C298.738 0.912103 297.772 0.508645 296.795 6.10352e-05H310.61C312.252 0.957395 313.835 2.09578 315.36 3.40284C315.42 3.45376 315.484 3.50343 315.549 3.55378C315.711 3.6794 315.878 3.80921 316 3.97309Z" fill="#B06A2E"/>
  <path d="M278.669 6.10352e-05C277.221 1.52409 275.946 3.25822 274.822 5.1752C274.566 5.67389 274.346 6.19028 274.163 6.7204C274.135 6.87608 274.138 7.03555 274.169 7.19047C274.298 7.24542 274.454 7.31214 274.508 7.23721C277.028 4.74827 280.034 2.9982 283.045 1.24605C283.753 0.834044 284.461 0.421927 285.163 6.10352e-05H278.669Z" fill="#B06A2E"/>
  <path d="M268.795 11.8706C269.049 11.806 269.302 11.7416 269.555 11.6781C269.21 11.3811 268.867 11.0906 268.524 10.801C267.816 10.2024 267.113 9.60748 266.415 8.96738C266.062 8.63987 265.732 8.2844 265.403 7.92915C264.955 7.44703 264.508 6.96532 264.005 6.55448C262.016 4.82821 259.676 3.55582 257.145 2.82582C254.615 2.09583 251.957 1.92576 249.354 2.32741C247.897 2.57862 246.427 2.75016 244.952 2.84127C244.345 2.74012 243.763 2.52811 243.234 2.21587C243.646 1.7583 244.115 1.35564 244.63 1.01782C245.262 0.806438 245.911 0.650178 246.569 0.550812C247.233 0.376305 247.896 0.19745 248.55 0.00012207H233.902C233.897 1.02528 234.06 2.04624 234.387 3.02186C234.049 2.75045 233.749 2.43632 233.492 2.08734C232.974 1.38547 232.448 0.689694 231.914 0.00012207H230.416C231.41 1.35718 232.371 2.74894 233.313 4.16206C232.036 2.52887 230.715 1.05034 229.26 0.00012207H220.339C220.643 1.44162 221.704 2.02697 222.837 2.65257C223.446 2.98829 224.075 3.3356 224.619 3.83304C223.866 3.89923 223.125 3.92857 222.4 3.95726C219.832 4.05892 217.469 4.15249 215.477 5.84873C213.212 7.78488 211.663 10.4259 211.08 13.3478C211.533 13.322 211.976 13.3007 212.411 13.2798C213.495 13.2277 214.528 13.178 215.554 13.0668C216.501 13.0195 217.432 12.8111 218.309 12.4506C219.309 11.969 220.269 11.3976 221.227 10.8269C221.783 10.496 222.338 10.1653 222.901 9.85235C223.76 9.3545 224.679 8.86891 225.911 9.63604C225.437 10.0916 224.908 10.4851 224.336 10.8073C220.87 12.1499 219.295 15.0761 217.73 17.9846C217.318 18.7495 216.907 19.5131 216.463 20.2463C216.258 20.6763 216.171 21.153 216.21 21.6278C216.221 23.7197 216.242 25.8219 216.343 27.9073C216.379 28.6783 216.497 29.4473 216.604 30.1438C216.646 30.4162 216.686 30.6776 216.719 30.9237C217.676 29.735 218.694 28.5977 219.77 27.5166C221.515 26.0909 222.782 24.166 223.402 22C223.571 21.5079 223.833 21.0526 224.173 20.6582C224.828 19.7354 225.493 18.8217 226.157 17.9081C226.488 17.4517 226.82 16.9954 227.151 16.5379C227.252 16.3942 227.336 16.2323 227.42 16.0717C227.563 15.7964 227.705 15.5249 227.926 15.3563C228.379 15.0901 228.868 14.8928 229.379 14.7709C229.522 15.2407 229.594 15.7291 229.595 16.2201C229.469 16.7295 229.261 17.2151 228.98 17.6578C225.897 23.7656 225.113 29.9204 228.824 36.0651C229.753 37.6859 230.038 39.5976 229.622 41.4191C229.605 41.5201 229.582 41.6252 229.559 41.7329C229.512 41.9537 229.463 42.1851 229.454 42.4135L229.806 42.6369C230.528 41.9363 231.172 41.1586 231.725 40.3179C232.881 38.05 233.929 35.748 234.927 33.4341C236.481 30.0631 236.729 26.236 235.624 22.6927C235.181 20.9929 234.912 19.2527 234.82 17.4986C234.796 17.221 235.008 16.8901 235.22 16.5599C235.315 16.4124 235.409 16.2651 235.482 16.1227C235.596 16.2512 235.733 16.3757 235.871 16.5002C236.165 16.7667 236.461 17.0336 236.517 17.3427C236.683 18.471 236.744 19.6124 236.698 20.752C236.58 22.4028 236.901 24.0555 237.629 25.542C238.356 27.0284 239.465 28.2957 240.841 29.2147C242.231 30.2458 243.233 31.7149 243.685 33.3852C244.123 34.7911 244.691 36.1528 245.383 37.4523C245.524 37.7596 245.731 38.0326 245.987 38.2528C246.244 38.473 246.546 38.6352 246.871 38.7283C247.196 38.8214 247.537 38.8431 247.872 38.7921C248.206 38.741 248.526 38.6184 248.808 38.4326C246.318 37.0574 246.303 36.9368 247.347 34.2143C247.732 33.3958 247.914 32.4963 247.876 31.5924C247.799 31.0794 247.725 30.5646 247.651 30.0494C246.964 25.2479 246.271 20.4149 242.434 16.736C242.011 16.1159 241.698 15.4268 241.511 14.6996L242.088 14.2611C242.741 14.6921 243.329 15.2167 243.83 15.8181C244.718 17.2331 245.564 18.6829 246.411 20.1365C247.166 21.4314 247.923 22.7294 248.714 24.0087C249.271 25.0555 250.045 25.9717 250.984 26.6965C253.297 28.2081 255.68 29.6146 258.067 31.0243C258.935 31.5363 259.803 32.0488 260.669 32.5669C259.964 23.4237 257.031 15.5172 248.126 10.9672C247.199 10.4824 246.31 9.92684 245.467 9.3054C245.286 9.18127 245.194 8.93696 245.103 8.69357C245.062 8.58383 245.021 8.47428 244.972 8.37601C245.064 8.32729 245.165 8.25959 245.269 8.18995C245.523 8.01927 245.794 7.837 245.991 7.8942C246.844 8.17064 247.666 8.53719 248.442 8.98765C248.76 9.169 249.087 9.41525 249.414 9.66168C250.092 10.1728 250.772 10.6847 251.382 10.62C252.964 10.4762 254.173 11.086 255.376 11.6931C256.006 12.0108 256.634 12.3278 257.314 12.5357C261.282 13.7811 265.116 12.8062 268.795 11.8706Z" fill="#B06A2E"/>
  <path d="M227.4 49.02L228.4 46.91L228.66 46.98C228.731 48.5413 228.572 50.1046 228.19 51.62L230.51 48.53L230.76 48.67C230.643 49.8203 230.342 50.9445 229.87 52L232.54 49.93L232.77 50.13C232.139 51.5984 231.344 52.9906 230.4 54.28L232.95 51.97L233.24 52.19L231.18 55.67L233.54 54.45L233.69 54.67C232.957 55.8499 232.035 56.9007 230.96 57.78L233.91 56.31L234.09 56.53C233.471 57.4839 232.72 58.3457 231.86 59.09L233.86 58.33L234.07 58.6L232.15 60.69L233.34 60.5L233.54 60.77L231.86 62.3L233.72 62.01L233.84 62.3L231.84 63.75L233.6 63.6L233.71 63.89L231.43 65.41L233.59 65.76V66.01C232.13 66.77 230.48 66.82 228.83 67.15C230.1 67.59 231.49 67.36 232.61 68.07V68.34L229.92 68.97L231.57 69.56V69.91L228.25 70.33L230.93 70.79V71.15L228.25 71.85L230.52 72.21V72.48C229.13 73.34 227.52 73.34 225.81 73.55L229.4 73.99V74.37L226.45 75.23C227.134 75.9589 228.029 76.4554 229.01 76.65C231.74 76.97 234.45 77.4 237.17 77.79C237.33 77.8379 237.487 77.8946 237.64 77.96C236.055 78.4185 234.437 78.7528 232.8 78.96L240.57 81.12V81.35H234.78L243.56 84.18L243.5 84.43C241.392 84.3867 239.29 84.1895 237.21 83.84C239.962 85.5625 242.905 86.9586 245.98 88L245.92 88.3L241.99 87.77C245.99 90.14 249.87 92.62 254.37 93.77L254.3 94.06C253.13 93.86 251.93 93.77 250.79 93.46C247.589 92.4884 244.494 91.1986 241.55 89.61C241.369 89.5055 241.168 89.4407 240.96 89.42C241.89 90.47 242.84 91.5 243.73 92.59C244.62 93.68 245.45 94.8 246.31 95.91L246.14 96.06L236.85 88.06L236.74 88.19L240.94 93.41L240.72 93.63C237.83 91.43 235.26 88.85 232.34 86.43L233.19 88.14L233.06 88.27C232.793 88.0946 232.536 87.9043 232.29 87.7C230.51 86.06 228.75 84.38 226.94 82.76C226.47 82.3802 225.934 82.0888 225.36 81.9C224.58 81.61 223.76 81.41 222.94 81.16V84.82H222.74C221.95 83.94 221.87 82.71 221.23 81.55C221.5 83.27 221.92 84.81 221.47 86.36L221.22 86.44L220.22 84.44V87.15L219.99 87.21C219.78 86.84 219.56 86.48 219.38 86.09C219.2 85.7 219.02 85.28 218.79 84.89L219.24 88.01L218.96 88.15L217.96 86.78V89.47L217.77 89.55C216.77 88.55 216.57 87.16 215.77 85.96C216.127 87.6252 216.218 89.3363 216.04 91.03L215.77 91.1L214.89 89.1L214.04 91.73H213.7L213.4 89.95L212.56 92.32H212.24L212.04 90.32L210.94 92.45H210.72L210.54 91.24L209.03 93.68L208.7 93.55L208.94 91.36L207.23 94.15L206.87 94.02L207.44 90.9C206.852 92.0819 206.101 93.1758 205.21 94.15L204.97 94.07L205.5 91.46L202.71 94.42L202.4 94.21L204.12 90.81C203.098 92.1879 201.92 93.4429 200.61 94.55L200.32 94.37L201.62 91.22C200.733 91.9881 199.717 92.594 198.62 93.01L198.43 92.82L200.83 89.67C199.465 90.4693 197.994 91.0719 196.46 91.46L196.3 91.25L198.01 89.7L195.3 90.64L195 90.27C195.304 90.1145 195.597 89.9409 195.88 89.75C197.88 88.3 199.78 86.86 201.71 85.38C204.17 83.5 205.79 80.88 207.58 78.43C208.4 77.3 209.14 76.12 210.03 75.06C210.686 74.3703 211.392 73.7286 212.14 73.14L211.23 72.14L209.4 72.73L210.29 73.49C209.08 73.69 207.79 72.43 207.7 70.98C207.695 70.7091 207.675 70.4387 207.64 70.17C207.56 69.7576 207.567 69.3331 207.662 68.9238C207.756 68.5145 207.936 68.1296 208.188 67.794C208.441 67.4584 208.761 67.1796 209.128 66.9756C209.496 66.7717 209.902 66.6471 210.32 66.61C211.856 66.452 213.404 66.7734 214.75 67.53L215.38 67.83C215.493 67.0183 215.711 66.2249 216.03 65.47C216.686 64.3125 217.457 63.2237 218.33 62.22C221.899 58.3782 224.582 53.8008 226.19 48.81C226.47 47.81 226.89 46.94 227.25 46L227.59 46.07L227.4 49.02Z" fill="#B06A2E"/>
  <path d="M316.03 39.7199V43.4899C311.91 42.1199 306.91 40.6199 301.04 39.2099C300.149 38.9888 299.264 38.7753 298.385 38.5688C297.921 38.4599 298 37.9999 296.5 37.4999C295.958 37.3758 295.919 38.0022 295.382 37.883C294.622 37.7141 293.868 37.5499 293.12 37.3899C292.607 37.2806 292.097 37.1736 291.59 37.0688C291.257 36.9999 291.331 36.6952 290.902 36.6199C286.791 35.8967 287.708 36.2918 286.693 36.0997C285.116 35.8014 283.588 35.5253 282.12 35.2699L292.18 36.6199L316.03 39.7199Z" fill="#D78B38"/>
  <path d="M293.83 69.7295L316.03 71.6195V76.9395C313.873 76.1418 311.695 75.4013 309.5 74.7187C307.009 73.9441 305 71.9999 302 71.4999C299 70.9999 299.305 71.97 298 71.6749C296.587 71.3554 295.195 71.0587 293.83 70.7829C292.958 70.6067 293.384 70.1799 292 69.9999C287.152 69.3695 286.889 69.5076 284.88 69.1981C283.588 68.999 282.348 68.8201 281.17 68.6595L289.6 69.3695H289.87L291.14 69.4795L293.79 69.6995L293.83 69.7295Z" fill="#D78B38"/>
  <path d="M33.9803 37.4398C30.4603 38.0498 26.6403 38.7698 22.6303 39.6198C20.1603 40.1498 17.6303 40.7298 15.0303 41.3698C9.17027 42.8198 4.20027 44.2798 0.0302734 45.6498V41.8898L24.5203 38.6798L33.9803 37.4398Z" fill="#D78B38"/>
  <path d="M33.9803 37.4395L24.5203 38.6795L0.0302734 41.8895V36.6195L24.5103 37.2495L33.9803 37.4395Z" fill="#A85B23"/>
  <path d="M316.03 34.3998V39.7298L292.19 36.6198L282.08 35.2898L292.91 34.9898L316.03 34.3998Z" fill="#A85B23"/>
  <path d="M316.03 66.9896V71.6196L293.83 69.7396L291.18 69.5096L289.91 69.3896H289.64L281.16 68.6196L290.78 68.1596L316.03 66.9896Z" fill="#A85B23"/>
</svg>
