<svg width="45" height="45" viewBox="0 0 45 45" fill="none" xmlns="http://www.w3.org/2000/svg">
  <path d="M22.0001 42.3203C33.1839 42.3203 42.2501 33.2541 42.2501 22.0703C42.2501 10.8865 33.1839 1.82031 22.0001 1.82031C10.8164 1.82031 1.75012 10.8865 1.75012 22.0703C1.75012 33.2541 10.8164 42.3203 22.0001 42.3203Z" fill="#C47634"/>
  <path d="M22.0002 1.82039C26.0052 1.82039 29.9204 3.00801 33.2505 5.23311C36.5806 7.45821 39.1761 10.6209 40.7087 14.3211C42.2414 18.0213 42.6424 22.0928 41.8611 26.0209C41.0797 29.9491 39.1511 33.5573 36.3191 36.3893C33.4871 39.2213 29.8789 41.1499 25.9508 41.9313C22.0226 42.7126 17.951 42.3116 14.2508 40.7789C10.5506 39.2463 7.38801 36.6508 5.16291 33.3207C2.93781 29.9906 1.75018 26.0755 1.75018 22.0704C1.75018 16.6998 3.88366 11.5491 7.68127 7.75148C11.4789 3.95387 16.6295 1.82039 22.0002 1.82039ZM22.0002 0.0703867C16.9105 0.0720759 11.9788 1.83847 8.04539 5.06862C4.11201 8.29876 1.42031 12.7928 0.428888 17.785C-0.562533 22.7773 0.207665 27.9588 2.60827 32.4468C5.00888 36.9349 8.89136 40.4517 13.5942 42.3981C18.297 44.3445 23.5293 44.6001 28.3995 43.1213C33.2696 41.6426 37.4764 38.5208 40.303 34.2882C43.1296 30.0555 44.4011 24.9737 43.901 19.9086C43.4009 14.8435 41.16 10.1085 37.5602 6.51039C35.5205 4.46239 33.0953 2.83883 30.4246 1.73347C27.7538 0.628113 24.8906 0.0628572 22.0002 0.0703867Z" fill="#763D14"/>
  <path d="M35.5001 8.16016C37.3673 10.3878 38.2769 13.264 38.0301 16.1602L41.0301 15.1602C40.2054 12.8749 38.8074 10.8398 36.9701 9.25018C36.5067 8.85232 36.0154 8.48804 35.5001 8.16016Z" fill="#B2632D"/>
  <path d="M4.38018 25.29C3.86874 24.0497 3.6038 22.7217 3.60018 21.3801C3.59924 19.3806 4.16436 17.4217 5.23017 15.73L2.99018 15.0801C2.15168 17.4202 1.75165 19.8949 1.81017 22.3801C1.83718 23.584 1.9778 24.7826 2.23017 25.9601L4.38018 25.29Z" fill="#B2632D"/>
  <path d="M41.8702 25.9996L39.4702 25.6296C39.85 24.8218 40.1094 23.9627 40.2402 23.0797C40.2402 22.8997 40.3002 22.6196 40.3202 22.2596C40.4972 20.6583 40.146 19.0429 39.3202 17.6596C39.0638 17.2715 38.7616 16.9156 38.4202 16.5996L41.4902 16.6596H41.7202C41.9554 17.9315 42.1058 19.2177 42.1702 20.5096C42.1652 20.5495 42.1652 20.5898 42.1702 20.6296C42.1702 21.6296 42.1702 22.6296 42.1702 23.5496L41.8702 25.9996Z" fill="#B2632D"/>
  <path d="M42.2501 22.0698C42.2501 27.4404 40.1166 32.5911 36.319 36.3887C32.5214 40.1863 27.3708 42.3198 22.0001 42.3198C16.6295 42.3198 11.4788 40.1863 7.68121 36.3887C3.8836 32.5911 1.75012 27.4404 1.75012 22.0698C1.75012 21.6998 1.75012 21.3297 1.75012 20.9697C2.03197 26.1419 4.28516 31.0095 8.04622 34.5712C11.8073 38.1329 16.7902 40.1179 21.9701 40.1179C27.15 40.1179 32.1329 38.1329 35.894 34.5712C39.6551 31.0095 41.9083 26.1419 42.1901 20.9697C42.2401 21.3297 42.2501 21.6998 42.2501 22.0698Z" fill="#8D4714"/>
  <path d="M5.55016 15.0698C5.62016 14.4398 5.72015 13.7598 5.87015 13.0698C6.09974 11.9564 6.41742 10.8629 6.82016 9.7998L4.17015 12.7998L3.53015 14.4298L5.55016 15.0698Z" fill="#B2632D"/>
  <path d="M22.0002 39C10.5802 39 2.41021 27 3.12021 25.88C3.28021 25.64 3.93022 25.78 4.52022 25.97C4.92022 26.62 10.8502 35.97 22.0002 35.97C33.1502 35.97 39.3102 26.61 39.6902 25.97C39.8471 25.9565 40.005 25.9803 40.1509 26.0394C40.2969 26.0985 40.4269 26.1912 40.5302 26.31C41.4002 28.08 32.9102 39 22.0002 39Z" fill="#B2632D"/>
  <path d="M2.85022 26.4503L5.79021 25.2803C5.04607 25.725 4.37205 26.2776 3.79021 26.9202C3.60196 27.1202 3.42501 27.3305 3.26021 27.5502L2.85022 26.4503Z" fill="#D78B38"/>
  <path d="M2.49019 25.2998H5.79018L2.85019 26.4698L2.28018 27.2698L2.07019 25.6698L2.49019 25.2998Z" fill="#763D14"/>
  <path d="M41.6401 17.1101C40.2094 13.0435 37.5517 9.52126 34.0337 7.0296C30.5157 4.53795 26.3111 3.19977 22.0001 3.19977C17.6891 3.19977 13.4845 4.53795 9.96652 7.0296C6.44856 9.52126 3.7908 13.0435 2.36011 17.1101C3.45928 12.7338 5.98863 8.84997 9.54674 6.07501C13.1048 3.30006 17.4878 1.79297 22.0001 1.79297C26.5124 1.79297 30.8954 3.30006 34.4535 6.07501C38.0116 8.84997 40.5409 12.7338 41.6401 17.1101Z" fill="#D78B38"/>
  <path d="M7.27019 15.6504C6.09319 15.7085 4.93404 15.962 3.84018 16.4004C3.29863 16.633 2.78807 16.9319 2.32019 17.2903C2.38019 17.0603 2.44018 16.8104 2.51018 16.5604C2.58018 16.3104 2.64019 16.1004 2.71019 15.8904L7.27019 15.6504Z" fill="#D78B38"/>
  <path d="M40.7902 27.4302L38.2202 25.2803C38.8625 26.0272 39.4162 26.846 39.8702 27.7202C40.0202 28.0102 40.1602 28.3003 40.2802 28.5803L40.7902 27.4302Z" fill="#D78B38"/>
  <path d="M41.3702 25.7703L38.2202 25.2803L40.7902 27.4302L41.2802 28.2803C41.3602 28.0803 41.4302 27.8702 41.5002 27.6602C41.6964 27.1162 41.8633 26.5621 42.0002 26.0002L41.3702 25.7703Z" fill="#763D14"/>
  <path d="M37.0001 16.5195C38.1759 16.5994 39.3277 16.8907 40.4001 17.3795C40.9328 17.6176 41.4417 17.9055 41.9201 18.2395L41.7201 16.7595L37.0001 16.5195Z" fill="#D78B38"/>
  <path d="M12.5592 5.36494C12.9322 5.14955 13.125 4.78496 12.9897 4.5506C12.8544 4.31623 12.4422 4.30086 12.0692 4.51625C11.6961 4.73164 11.5034 5.09623 11.6387 5.33059C11.774 5.56496 12.1861 5.58033 12.5592 5.36494Z" fill="#F5C25A"/>
  <path d="M14.1818 4.33204C14.3641 4.23971 14.4654 4.07302 14.408 3.9597C14.3506 3.84638 14.1563 3.82937 13.974 3.9217C13.7917 4.01402 13.6904 4.18071 13.7478 4.29404C13.8052 4.40736 13.9995 4.42436 14.1818 4.33204Z" fill="#F5C25A"/>
  <path d="M3.23022 14.29L7.23022 15.6501L2.67023 15.8901C2.6555 15.7371 2.6555 15.583 2.67023 15.4301C2.74567 15.0049 2.9398 14.6096 3.23022 14.29Z" fill="#763D14"/>
  <path d="M41.1801 15.1396L37.0001 16.5197L41.8101 16.7596L41.1801 15.1396Z" fill="#763D14"/>
</svg>
