<svg width="27" height="27" viewBox="0 0 27 27" fill="none" xmlns="http://www.w3.org/2000/svg">
  <path d="M22.2401 1.20996H4.75006C2.78393 1.20996 1.19006 2.80382 1.19006 4.76996V22.2599C1.19006 24.2261 2.78393 25.82 4.75006 25.82H22.2401C24.2062 25.82 25.8001 24.2261 25.8001 22.2599V4.76996C25.8001 2.80382 24.2062 1.20996 22.2401 1.20996Z" fill="#C47634"/>
  <path d="M22.24 1.25C23.1842 1.25 24.0897 1.62506 24.7573 2.29269C25.4249 2.96032 25.8 3.86583 25.8 4.81V22.25C25.8 23.1942 25.4249 24.0997 24.7573 24.7673C24.0897 25.4349 23.1842 25.81 22.24 25.81H4.75C3.80583 25.81 2.90033 25.4349 2.2327 24.7673C1.56507 24.0997 1.19 23.1942 1.19 22.25V4.75C1.20574 3.81627 1.58775 2.9261 2.25368 2.27139C2.91961 1.61669 3.81613 1.24987 4.75 1.25H22.24ZM22.24 0.0599976H4.75C3.49712 0.0599531 2.29496 0.554908 1.40531 1.43707C0.515651 2.31924 0.0105506 3.51717 0 4.77V22.25C0 23.5098 0.500445 24.718 1.39124 25.6088C2.28204 26.4996 3.49022 27 4.75 27H22.24C23.5007 27 24.7099 26.4999 25.6023 25.6094C26.4947 24.7188 26.9974 23.5107 27 22.25V4.75C26.9974 3.4893 26.4947 2.28115 25.6023 1.39064C24.7099 0.500129 23.5007 -2.78206e-06 22.24 0V0.0599976Z" fill="#763D14"/>
  <path d="M25.8001 17.1903V19.3103C25.8001 19.7778 25.708 20.2407 25.5291 20.6727C25.3502 21.1046 25.0879 21.497 24.7574 21.8276C24.4268 22.1582 24.0343 22.4204 23.6024 22.5993C23.1705 22.7782 22.7076 22.8703 22.2401 22.8703C21.5901 22.8703 20.6101 22.8703 19.4301 22.8703C18.5167 22.8703 17.6967 22.8703 16.9701 22.8703C15.1901 22.8703 14.1101 22.7603 13.4701 22.7403C9.39007 22.5703 6.21007 23.4503 3.83007 22.7403C3.23096 22.5657 2.68234 22.2503 2.23007 21.8203C1.82251 21.4123 1.52046 20.9112 1.35006 20.3603C1.24513 20.0167 1.19123 19.6596 1.19006 19.3003V17.1803L1.49007 17.0603C2.08419 16.8859 2.71594 16.8859 3.31006 17.0603C2.97338 17.4292 2.71761 17.8644 2.55916 18.338C2.40072 18.8116 2.34312 19.3131 2.39006 19.8103C2.47507 20.1943 2.63477 20.5579 2.86007 20.8803C4.05007 22.5203 8.62006 21.8803 13.3901 21.8803C18.1601 21.8803 22.6001 22.5403 23.8301 20.8803C24.0892 20.5086 24.2758 20.0913 24.3801 19.6503C24.4723 19.1161 24.4579 18.569 24.3377 18.0404C24.2176 17.5118 23.9941 17.0122 23.6801 16.5703L25.8001 17.1903Z" fill="#B2632D"/>
  <path d="M2.31006 8.3596C2.51003 8.7923 2.79979 9.1775 3.16007 9.48961V9.8096C2.93778 10.12 2.75315 10.4557 2.61007 10.8096C2.26815 11.7217 2.15819 12.7045 2.29007 13.6696C2.28462 14.2547 2.37932 14.8364 2.57006 15.3896C2.76152 15.913 3.0461 16.3975 3.41007 16.8196C3.16819 17.0414 2.88422 17.2123 2.57502 17.3223C2.26581 17.4322 1.93767 17.4789 1.61007 17.4596C1.46729 17.4392 1.3267 17.4058 1.19006 17.3596V4.95961L2.19007 3.09961L3.38006 3.6496C3.10091 3.99064 2.86263 4.36317 2.67006 4.7596C2.3571 5.29939 2.16307 5.89983 2.10099 6.52069C2.0389 7.14155 2.11018 7.76852 2.31006 8.3596Z" fill="#B2632D"/>
  <path d="M24.6601 8.3596C24.4758 8.62841 24.2287 8.84812 23.9401 8.9996L23.8801 9.3596C24.0785 9.81563 24.2391 10.2872 24.3601 10.7696C24.6022 11.703 24.7132 12.6656 24.6901 13.6296C24.7077 14.2156 24.6126 14.7995 24.4101 15.3496C24.2549 15.7168 24.0385 16.0549 23.7701 16.3496C23.8301 16.4496 24.4501 17.4996 25.3701 17.4596C25.5114 17.4494 25.65 17.4156 25.7801 17.3596V4.95961L24.7801 3.09961L23.5901 3.6496C23.8727 3.98812 24.1113 4.36109 24.3001 4.7596C24.5601 5.2496 25.5101 7.0996 24.6601 8.3596Z" fill="#B2632D"/>
  <path d="M1.19006 10.5498L3.89006 9.5498C3.37944 9.80344 2.88811 10.0942 2.42006 10.4198C1.98751 10.7244 1.57653 11.0585 1.19006 11.4198V10.5498Z" fill="#D78B38"/>
  <path d="M1.19006 17.5596L3.96006 16.8896C3.39162 17.1165 2.85136 17.4085 2.35006 17.7596C1.93137 18.0539 1.54281 18.3889 1.19006 18.7596V17.5596Z" fill="#D78B38"/>
  <path d="M0.920044 9.33008L3.92004 9.54007L0.920044 10.6501V9.33008Z" fill="#763D14"/>
  <path d="M1.09009 16.5L3.96009 16.89L1.09009 17.59V16.5Z" fill="#763D14"/>
  <path d="M25.8001 10.0703L23.1001 9.07031C23.6107 9.32395 24.102 9.61473 24.5701 9.94031C25.0042 10.2429 25.4153 10.5771 25.8001 10.9403V10.0703Z" fill="#D78B38"/>
  <path d="M25.8 17.0799L23 16.4199C23.5724 16.6382 24.1137 16.9307 24.61 17.2899C25.0309 17.5813 25.4198 17.9165 25.77 18.2899L25.8 17.0799Z" fill="#D78B38"/>
  <path d="M26.0701 8.84961L23.0701 9.0596L26.0701 10.1696V8.84961Z" fill="#763D14"/>
  <path d="M25.9 16.0303L23.03 16.4203L25.9 17.1103V16.0303Z" fill="#763D14"/>
  <path d="M25.8001 20.1504V22.2504C25.8001 23.1946 25.425 24.1001 24.7574 24.7677C24.0897 25.4353 23.1842 25.8104 22.2401 25.8104H4.75006C3.80589 25.8104 2.90039 25.4353 2.23276 24.7677C1.56513 24.1001 1.19006 23.1946 1.19006 22.2504V20.1504C1.19006 20.6179 1.28215 21.0808 1.46105 21.5128C1.63996 21.9447 1.90218 22.3371 2.23276 22.6677C2.56334 22.9983 2.9558 23.2605 3.38771 23.4394C3.81963 23.6183 4.28256 23.7104 4.75006 23.7104H22.2401C22.7076 23.7104 23.1705 23.6183 23.6024 23.4394C24.0343 23.2605 24.4268 22.9983 24.7574 22.6677C25.0879 22.3371 25.3502 21.9447 25.5291 21.5128C25.708 21.0808 25.8001 20.6179 25.8001 20.1504Z" fill="#8D4714"/>
  <path d="M25.8001 6.89V4.77C25.7895 3.83278 25.4098 2.93752 24.7433 2.27852C24.0768 1.61952 23.1773 1.24994 22.2401 1.25H4.75006C3.80589 1.25 2.90039 1.62506 2.23276 2.29269C1.56513 2.96032 1.19006 3.86583 1.19006 4.81V6.92999C1.19006 5.98582 1.56513 5.08033 2.23276 4.4127C2.90039 3.74507 3.80589 3.37 4.75006 3.37H22.2401C23.1773 3.36994 24.0768 3.73951 24.7433 4.39851C25.4098 5.05752 25.7895 5.95278 25.8001 6.89Z" fill="#D78B38"/>
  <path d="M4.21242 2.86304C4.70507 2.57862 4.96116 2.0999 4.78443 1.79379C4.6077 1.48768 4.06507 1.47011 3.57243 1.75453C3.07978 2.03896 2.82369 2.51768 3.00042 2.82379C3.17715 3.12989 3.71978 3.14747 4.21242 2.86304Z" fill="#F5C25A"/>
  <path d="M24.0758 2.82731C24.2525 2.5212 23.9964 2.04248 23.5038 1.75805C23.0112 1.47362 22.4685 1.4912 22.2918 1.79731C22.1151 2.10341 22.3712 2.58214 22.8638 2.86656C23.3564 3.15099 23.8991 3.13341 24.0758 2.82731Z" fill="#F5C25A"/>
</svg>
