<svg width="316" height="111" viewBox="0 0 316 111" fill="none" xmlns="http://www.w3.org/2000/svg">
  <rect width="316" height="111" rx="9" fill="#8ADBDE"/>
  <path d="M0 106.66V95.2105C4.29207 96.4972 9.99347 98.0453 16.7174 99.4416C54.0158 107.288 83.0859 102.724 106.832 98.9951C110.022 98.4943 113.115 98.0085 116.12 97.57C156.464 91.6786 181.302 94.2089 202.093 96.3271C225.571 98.7189 243.89 100.585 273.553 89.2074C288.668 83.3701 302.936 75.6385 316 66.2107V106.66V111C316 111 309.738 111 306.395 111H9.61506C9.61088 111 9.60671 111 9.60253 111C7.95064 111 0 111 0 111V109V106.66Z" fill="#ACE8EA"/>
  <path d="M310 82C309.265 85.6313 307.393 89.075 304.541 92.0405C296.729 100.1 282.566 103.277 263.345 104.991C229.56 108.038 216.93 103.3 172.308 102.37C144.133 101.784 124.04 103.132 124 102.706C123.96 102.279 146.476 100.077 173.65 99.8946C215.277 99.6203 232.876 104.214 264.256 100.382C272.77 99.3385 286.242 97.2055 298.732 90.1741C302.927 87.8226 306.713 85.076 310 82V82Z" fill="#D1EAEC"/>
  <path d="M316 50.1889V0H0V23.6359C21.5353 21.5877 39.1022 19.766 51.9989 18.4286L52.5348 18.373C53.2454 18.2992 53.9316 18.2279 54.5948 18.1589C67.0361 16.8651 71.4124 16.4101 78.2133 16.3997C103.379 16.3485 121.896 22.4192 136.572 27.231C137.62 27.5745 138.649 27.9116 139.658 28.2396L140.334 28.4585C174.134 39.4056 220.861 54.5396 261.937 52.8734C263.245 52.8182 265.085 52.7243 269.335 52.5076C275.212 52.2079 285.696 51.6732 305.753 50.6808L316 50.1889Z" fill="#85CED1"/>
  <path d="M291.959 46.0194C282.963 50.3306 273.825 39.4938 253.635 31.6487C235.108 24.4181 221.431 25.322 204.324 24.5989C182.16 23.6951 148.517 20.0798 99 7.78789C133.357 13.6989 160.854 12.9397 179.936 11.0416C199.017 9.14362 214.105 5.66392 243.183 5.07644C291.405 4.10032 297.837 12.7318 299.731 16.1934C304.984 25.7919 300.589 41.898 291.959 46.0194Z" fill="#ACE8EA"/>
  <path d="M288.27 20.8846C294.71 23.5246 297.83 34.2846 295.17 36.5546C292.88 38.5546 285.09 35.1746 282.54 29.4746C281.39 26.9146 280.71 22.5546 282.87 20.8846C284.74 19.4446 287.84 20.7146 288.27 20.8846Z" fill="#D1EAEC"/>
  <path d="M206.15 17.0044C229.52 16.6544 259.64 10.5844 271.1 17.7544C272.02 18.3344 276.1 21.0444 277.02 20.1144C277.94 19.1844 275.75 15.9744 275.45 15.5044C269.57 6.22441 237.45 10.1844 206.45 12.3544C193.9 13.2644 183 13.7544 174.2 14.0044C184.712 16.1456 195.423 17.1514 206.15 17.0044V17.0044Z" fill="#D1EAEC"/>
  <path d="M23 98C25.2091 98 27 96.2091 27 94C27 91.7909 25.2091 90 23 90C20.7909 90 19 91.7909 19 94C19 96.2091 20.7909 98 23 98Z" fill="#ACE8EA"/>
  <path d="M26.5 81C28.9853 81 31 78.9853 31 76.5C31 74.0147 28.9853 72 26.5 72C24.0147 72 22 74.0147 22 76.5C22 78.9853 24.0147 81 26.5 81Z" fill="#ACE8EA"/>
  <path d="M12 64C13.6569 64 15 62.6569 15 61C15 59.3431 13.6569 58 12 58C10.3431 58 9 59.3431 9 61C9 62.6569 10.3431 64 12 64Z" fill="#ACE8EA"/>
  <path d="M296.496 111C296.539 110.499 296.588 109.999 296.643 109.5C297.386 105.437 299.563 101.974 301.718 98.5456C301.971 98.1435 302.224 97.742 302.473 97.34C304.322 94.3916 305.562 91.1036 306.122 87.669C306.682 84.2345 306.55 80.7227 305.733 77.34C305.31 75.3593 304.469 73.5189 303.62 71.6603C302.342 68.8647 301.045 66.0278 301.123 62.61C300.908 62.8134 300.727 62.9624 300.583 63.0811C300.351 63.2717 300.214 63.3845 300.183 63.52C299.659 65.188 299.343 66.9145 299.243 68.66C299.372 71.5855 299.712 74.5239 300.053 77.47C300.137 78.1995 300.222 78.9296 300.303 79.66C300.453 80.9598 300.657 82.2596 300.862 83.5593C300.972 84.2596 301.082 84.9598 301.183 85.66L300.533 85.81C300.272 84.1 299.968 82.3918 299.665 80.6837C298.971 76.7784 298.278 72.8739 298.083 68.95C297.918 65.5887 298.423 62.2049 298.926 58.8324C299.094 57.7099 299.261 56.5887 299.403 55.47C300.013 50.67 299.323 46.23 296.323 42.32C295.892 41.8479 295.427 41.4068 294.933 41C295.003 41.75 295.003 41.99 295.003 42.23C295.056 43.1813 295.145 44.1375 295.233 45.0937C295.43 47.2131 295.626 49.3327 295.433 51.4C295.195 55.5767 293.641 59.5709 290.993 62.81C288.97 65.0592 287.46 67.7211 286.568 70.6115C285.675 73.5019 285.421 76.5518 285.823 79.55C286.305 82.592 286.419 85.6808 286.163 88.75C285.907 90.8854 285.181 92.9724 284.458 95.0544C284.195 95.8095 283.933 96.5641 283.693 97.32C282.918 99.6762 282.79 102.197 283.323 104.62C283.855 107.002 284.837 109.098 286.118 111H291.949C291.701 110.347 291.472 109.687 291.263 109.02C289.737 102.436 289.774 95.5865 291.373 89.02C291.793 86.334 291.997 83.6186 291.983 80.9C292.066 79.5031 292.098 78.1118 292.13 76.7178C292.14 76.2556 292.151 75.7931 292.163 75.33H292.693C292.832 75.8942 292.981 76.456 293.129 77.0172C293.504 78.4354 293.878 79.8499 294.093 81.29C294.798 84.7036 295.266 88.1619 295.493 91.64C295.529 93.9529 295.019 96.2416 294.003 98.32C291.929 102.487 291.872 106.681 292.7 111H296.496Z" fill="#67ADAF"/>
  <path d="M254.319 7.84188C254.736 8.23905 255.178 8.66051 255.657 9.11146C256.479 7.59888 257.22 6.04332 257.877 4.45145C258.137 3.69806 258.315 2.90983 258.492 2.12392C258.654 1.40451 258.816 0.687036 259.041 0H266.65C267.415 2.59142 266.311 5.0958 264.687 7.26145C262.353 10.3894 259.974 13.4809 257.594 16.5728C255.661 19.0855 253.727 21.5984 251.817 24.1315C250.778 25.5526 249.842 27.0464 249.017 28.6014C248.207 30.0914 248.007 31.6315 249.657 32.7715C251.211 33.8459 251.964 32.84 252.676 31.8893C252.839 31.6719 252.999 31.4575 253.167 31.2715C253.707 30.7063 254.154 30.0836 254.608 29.4522C255.062 28.8211 255.522 28.1813 256.087 27.5815L256.114 27.5524C257.238 26.3584 258.561 24.9531 260.357 26.3815C262.167 27.8215 261.557 29.5015 260.287 31.0015C259.177 32.1074 258.132 33.276 257.157 34.5015C255.347 37.2615 253.617 40.0815 252.087 43.0015C251.763 43.6285 251.737 44.4144 251.702 45.4535C251.683 46.0219 251.661 46.6661 251.587 47.4015C252.242 46.9279 252.795 46.4881 253.29 46.0947C254.269 45.3169 255.02 44.7202 255.877 44.4015C257.292 44.0452 258.747 43.8672 260.207 43.8715C260.197 44.3419 260.242 44.8511 260.287 45.3616C260.388 46.5113 260.489 47.6674 259.977 48.4015C258.684 50.3551 256.92 51.9511 254.847 53.0415C250.487 55.1015 248.067 58.3315 247.587 62.9715C247.224 65.8789 247.2 68.8186 247.517 71.7315C247.837 73.4052 248.79 74.8914 250.177 75.8815C250.727 76.2415 252.757 74.7415 253.897 73.7415C254.681 72.9927 255.274 72.0668 255.627 71.0415C256.267 69.3972 256.865 67.7356 257.462 66.0744C258.228 63.947 258.993 61.8203 259.847 59.7315C259.898 59.606 259.949 59.4796 260.001 59.3526C260.795 57.3945 261.652 55.2838 263.117 53.9315C263.841 53.2626 265.145 53.2166 266.452 53.1706C267.041 53.1498 267.63 53.1291 268.167 53.0515C268.197 53.4502 268.243 53.8496 268.289 54.2468C268.423 55.4137 268.555 56.5621 268.287 57.6215C268.106 58.4215 267.518 59.1174 266.924 59.8194C266.597 60.2055 266.269 60.5934 266.007 61.0015C265.375 61.9907 264.793 63.0094 264.212 64.0266C263.965 64.4593 263.717 64.8917 263.467 65.3214L264.087 65.9015C265.261 65.2961 266.503 64.8328 267.787 64.5215C269.357 64.4573 270.929 64.5275 272.487 64.7315C272.356 65.2266 272.272 65.7683 272.187 66.3098C272.001 67.507 271.815 68.7029 271.127 69.3915C269.649 70.8266 267.959 72.0453 266.267 73.2654C265.165 74.0602 264.062 74.8555 263.017 75.7115C259.017 79.0615 254.937 82.4815 251.017 86.0115C250.058 87.1134 249.238 88.3293 248.577 89.6315L249.367 90.3514C251.601 88.5105 253.938 86.7978 256.367 85.2215C257.487 84.5515 259.487 84.2515 260.487 84.8415C261.227 85.2815 261.407 87.5715 260.997 88.7515C260.333 90.1638 259.338 91.3952 258.097 92.3415C256.617 93.6615 256.177 94.6615 257.997 96.0815C258.346 96.3765 258.619 96.7514 258.793 97.1743C258.967 97.5973 259.037 98.0559 258.997 98.5115C258.75 98.96 258.413 99.3525 258.007 99.664C257.6 99.9756 257.134 100.199 256.637 100.321C255.477 100.467 254.299 100.326 253.207 99.9115C249.377 98.6715 248.127 99.2514 246.927 103.101C246.109 105.712 245.445 108.336 245.094 111H234.96C235.042 110.225 235.116 109.454 235.177 108.681C235.364 106.84 235.194 104.979 234.677 103.201C233.827 100.621 231.597 99.4315 228.947 99.4315C227.8 99.3593 226.67 99.7282 225.787 100.463C224.904 101.197 224.335 102.241 224.197 103.381C223.902 104.825 223.494 106.242 222.977 107.621C222.157 109.801 220.047 110.531 218.377 108.961C215.617 106.341 213.087 103.481 210.567 100.621C208.98 98.619 206.706 97.2758 204.187 96.8514C202.337 96.5514 200.497 95.1215 199.077 93.7615C198.427 93.1315 198.407 91.3214 198.807 90.3214C199.037 89.7414 200.737 89.3015 201.617 89.5115C202.875 89.9959 204.07 90.6305 205.177 91.4015C207.856 93.0002 210.635 94.4264 213.497 95.6715C216.127 96.6715 218.757 95.1815 218.917 93.1815C219.127 90.2915 214.637 87.0115 211.917 88.0915C208.537 89.4515 207.237 88.7015 206.677 85.0915C205.977 80.6115 205.097 79.6915 200.537 79.1715C199.684 79.0725 198.808 79.0706 197.936 79.0687C196.516 79.0657 195.105 79.0626 193.817 78.6415C192.224 77.9085 190.926 76.657 190.137 75.0915C189.707 74.3215 190.387 71.9114 190.857 71.8214C192.508 71.5962 194.188 71.7223 195.787 72.1915C196.309 72.326 196.749 72.7065 197.201 73.0963C197.589 73.4311 197.985 73.7728 198.447 73.9715C199.534 74.2685 200.651 74.4396 201.777 74.4815C201.534 74.012 201.367 73.6237 201.229 73.3051C201.015 72.8093 200.874 72.4824 200.637 72.2815C199.852 71.6072 199.039 70.9654 198.226 70.3236C197.351 69.633 196.476 68.9424 195.637 68.2115C194.307 67.0515 193.667 65.3715 195.057 64.1315C195.603 63.8408 196.213 63.6888 196.832 63.6888C197.451 63.6888 198.06 63.8408 198.607 64.1315C200.263 65.3394 201.732 66.7849 202.967 68.4215C204.526 70.332 206.044 72.2737 207.561 74.2143C209.371 76.5298 211.18 78.8437 213.057 81.1014C214.267 82.5112 215.699 83.7137 217.297 84.6615C218.332 85.3493 219.593 85.6115 220.816 85.3935C222.04 85.1756 223.132 84.4944 223.867 83.4915C224.747 82.2159 225.16 80.6754 225.037 79.1304C224.913 77.5854 224.259 76.1304 223.187 75.0115C223.097 75.1507 223.013 75.3136 222.928 75.4782C222.72 75.8811 222.506 76.295 222.187 76.4015C222.034 76.4537 221.874 76.5118 221.71 76.5714C220.711 76.9342 219.547 77.3566 218.877 76.9015C218.097 76.3715 217.857 74.7915 217.757 73.6315C217.848 72.8457 218.2 72.1132 218.757 71.5515C219.483 70.7972 219.885 69.7883 219.875 68.7412C219.866 67.6942 219.446 66.6926 218.707 65.9515C218.207 65.3536 217.808 64.678 217.527 63.9515C216.857 62.0215 217.317 60.3615 219.317 59.6215C221.317 58.8815 222.677 59.8815 223.317 61.8815C223.498 62.5351 223.615 63.205 223.667 63.8815C224.067 66.7615 225.637 67.6215 228.067 66.0415C229.066 65.4239 229.898 64.5685 230.487 63.5515C231.273 62.0033 231.675 60.288 231.656 58.5515C231.637 56.815 231.199 55.1087 230.379 53.5779C229.559 52.047 228.382 50.7369 226.947 49.759C225.512 48.7811 223.861 48.1645 222.137 47.9615C219.688 47.828 217.261 47.4324 214.897 46.7815C209.997 45.2015 205.647 42.5515 204.227 37.2015C203.867 35.8315 204.927 33.6615 205.997 32.4615C206.304 32.0974 206.686 31.8048 207.118 31.604C207.55 31.4033 208.021 31.2993 208.497 31.2993C208.973 31.2993 209.443 31.4033 209.875 31.604C210.307 31.8048 210.69 32.0974 210.997 32.4615C211.84 33.6433 212.198 35.1036 211.997 36.5415C211.795 37.587 211.951 38.6702 212.441 39.6158C212.931 40.5613 213.726 41.3138 214.697 41.7515C215.537 42.1815 217.397 42.1315 217.867 41.5415C219.327 39.7514 218.957 37.8615 217.457 35.9615C216.619 34.7906 216.143 33.4 216.087 31.9615C216.05 31.5119 216.118 31.0599 216.284 30.6406C216.45 30.2212 216.71 29.8457 217.045 29.5431C217.379 29.2405 217.779 29.0189 218.213 28.8955C218.647 28.7721 219.103 28.7502 219.547 28.8315C221.347 28.9815 222.277 30.1215 222.127 32.3115C222.017 34.1429 222.422 35.9686 223.297 37.5815C223.747 38.3915 225.637 38.6315 226.857 38.5815C227.377 38.5615 228.287 37.2015 228.287 36.4215C228.537 30.7315 223.027 24.3015 217.287 23.2515C216.012 23.1681 214.779 22.7695 213.697 22.0915C212.45 20.9921 211.469 19.6245 210.827 18.0915C210.527 17.4315 211.417 15.4815 211.827 15.4815C213.413 15.5014 214.988 15.761 216.497 16.2515C216.976 16.3832 217.417 16.6538 217.86 16.9257C218.257 17.1697 218.656 17.4148 219.087 17.5615C221.396 18.2628 223.545 19.4124 225.41 20.9447C227.276 22.477 228.82 24.3618 229.957 26.4915C230.868 28.2332 231.954 29.8782 233.197 31.4015C233.996 32.0665 234.907 32.5846 235.887 32.9315C236.031 32.6169 236.215 32.3024 236.398 31.9879C236.797 31.3024 237.197 30.6169 237.197 29.9315C237.207 26.6115 235.367 24.1215 232.687 22.4215C228.877 20.0015 226.447 16.8215 226.107 12.2515C225.987 10.3115 224.787 9.72147 223.107 9.25147C221.927 8.92147 220.117 8.13147 219.997 7.34147C219.898 5.8385 220.353 4.35146 221.277 3.16148C223.137 0.751475 226.187 0.931461 228.737 3.27146C230.977 5.32146 232.907 4.92145 234.037 2.07145C234.23 1.58685 234.33 1.05596 234.43 0.527537C234.463 0.350806 234.497 0.174352 234.533 0H240.096C240.256 0.980069 240.255 1.96026 239.887 2.66148C239.095 4.15493 238.051 5.50969 237.007 6.86556C236.191 7.92463 235.374 8.98439 234.677 10.1115C233.885 11.5265 233.392 13.0885 233.227 14.7015C233.173 15.0773 233.588 15.5386 234.011 16.01C234.219 16.241 234.429 16.4745 234.587 16.7015C234.753 16.4977 234.952 16.3032 235.151 16.1084C235.537 15.7298 235.925 15.3505 236.077 14.9015C236.125 14.7518 236.172 14.6006 236.218 14.4502C236.646 13.0527 237.054 11.7198 239.077 12.2615C241.317 12.8615 241.127 14.3815 240.707 16.1915C239.707 20.4115 241.237 22.0415 245.547 21.6815C246.634 21.6316 247.679 21.2462 248.539 20.5783C249.398 19.9104 250.03 18.9928 250.347 17.9515C251.697 14.4515 250.957 12.1015 247.957 9.53147C246.467 8.27147 245.207 6.62145 246.727 4.76145C248.247 2.90145 250.057 4.00146 251.357 5.11146C252.299 5.91624 253.221 6.79463 254.319 7.84188Z" fill="#67ADAF"/>
  <path d="M266 30.1918C266.592 28.0553 267.46 26.0064 268.583 24.0976C270.041 21.6 271.895 18.5114 275.406 16.838C276.838 16.1553 278.718 15.9222 282.518 15.4476C285.234 15.1063 286.617 14.9481 287.958 15.2728C290.417 15.9871 292.526 17.5916 293.878 19.7768C293.546 19.781 293.224 19.8918 292.959 20.0932C292.753 20.2565 292.593 20.472 292.496 20.7176C293.385 20.7249 294.266 20.5522 295.087 20.2097C296.876 19.4438 297.629 18.1117 299.111 16.4883C300.317 15.1665 301.676 13.9953 303.16 13C302.97 13.999 302.672 15.4976 302.266 17.3791C301.947 18.4461 301.734 19.542 301.628 20.651C301.628 21.9414 302.282 23.9811 306 26.5453C304.377 26.9838 302.672 27.021 301.032 26.6535C298.697 26.1041 297.546 24.8802 295.534 25.13C294.548 25.2795 293.623 25.7001 292.86 26.3455C293.226 26.3897 293.595 26.3897 293.961 26.3455C294.342 26.304 294.718 26.2173 295.079 26.0874C294.986 26.798 294.746 27.481 294.374 28.0921C294.002 28.7032 293.505 29.2285 292.918 29.634C292.382 29.9612 291.784 30.1711 291.163 30.2501C291.339 30.517 291.56 30.7508 291.817 30.9411C291.987 31.0775 292.173 31.1921 292.371 31.2824C291.136 31.7358 289.828 31.9532 288.513 31.9234C287.996 31.9155 287.481 31.8654 286.973 31.7736C286.093 32.2507 285.159 32.6197 284.191 32.8725C283.511 33.042 282.819 33.1561 282.121 33.2139C282.304 33.5606 282.551 33.8687 282.85 34.1213C283.141 34.3687 283.479 34.5554 283.843 34.6708C277.846 35.6051 271.709 34.5378 266.373 31.6321C266.493 31.5292 266.627 31.4424 266.77 31.374C266.958 31.2865 267.16 31.2329 267.366 31.2158C267.114 31.0744 266.873 30.9129 266.646 30.7329C266.419 30.5673 266.203 30.3865 266 30.1918V30.1918Z" fill="#67ADAF"/>
</svg>
