<svg width="45" height="45" viewBox="0 0 45 45" fill="none" xmlns="http://www.w3.org/2000/svg">
  <path d="M42.7641 22.0699C42.7261 27.1603 40.8192 32.0593 37.4058 35.8357C33.9924 39.6122 29.3104 42.0028 24.2497 42.5533C19.1891 43.1038 14.1026 41.7758 9.95698 38.8216C5.81138 35.8675 2.8957 31.4931 1.76412 26.53C1.44161 25.0653 1.28065 23.5697 1.28411 22.0699C1.29566 16.9438 3.20243 12.0031 6.63757 8.19823C10.0727 4.39339 14.7935 1.99324 19.8918 1.45959C24.9901 0.925931 30.1056 2.29646 34.2542 5.30749C38.4027 8.31851 41.2913 12.7574 42.3641 17.7699C42.6449 19.1857 42.7789 20.6267 42.7641 22.0699Z" fill="#79C8CC"/>
  <path d="M22.0041 1.30981C26.765 1.30747 31.3821 2.94159 35.0815 5.93829C38.781 8.93499 41.338 13.1122 42.3242 17.7698C42.6183 19.1842 42.7658 20.6252 42.7641 22.0698C42.7262 27.1602 40.8193 32.0592 37.4058 35.8356C33.9924 39.6121 29.3104 42.0027 24.2498 42.5532C19.1891 43.1037 14.1026 41.7757 9.95701 38.8215C5.81142 35.8674 2.89574 31.493 1.76415 26.5298C1.44165 25.0652 1.28068 23.5696 1.28414 22.0698C1.28149 16.57 3.46235 11.2942 7.34753 7.40149C11.2327 3.50881 16.5044 1.31777 22.0041 1.30981ZM22.0041 0.0698246C18.7251 0.0692064 15.4874 0.801592 12.5279 2.21338C9.56835 3.62517 6.96182 5.68064 4.89897 8.22949C2.83611 10.7783 1.3691 13.7561 0.605251 16.9449C-0.158601 20.1337 -0.199975 23.4529 0.484149 26.6598V26.7998C1.61593 32.1322 4.68709 36.8545 9.10237 40.0515C13.5176 43.2484 18.9626 44.6923 24.3818 44.1033C29.8011 43.5143 34.8087 40.9344 38.434 36.8635C42.0594 32.7927 44.0444 27.5208 44.0041 22.0698C44.0033 20.5411 43.8458 19.0165 43.5341 17.5198C42.4753 12.5911 39.7624 8.17276 35.846 4.99854C31.9296 1.82431 27.0453 0.0851626 22.0041 0.0698246Z" fill="#B8DFE1"/>
  <path d="M42.7641 22.0699C42.7652 22.9795 42.7051 23.8882 42.5841 24.7898C41.9423 29.6315 39.614 34.0918 36.0087 37.3865C32.4034 40.6812 27.7519 42.5993 22.8722 42.8035C17.9925 43.0077 13.197 41.485 9.32904 38.503C5.46106 35.5211 2.76824 31.2709 1.72412 26.4998C3.91009 27.2397 6.22331 27.5288 8.52412 27.3498C11.7441 27.0798 14.7441 25.4699 20.6141 22.2699C28.3641 18.0499 28.1541 18.1299 28.4041 18.0299C31.4041 16.8199 35.8441 16.0298 42.3241 17.7398C42.6204 19.164 42.7678 20.6152 42.7641 22.0699Z" fill="#6CC4C7"/>
  <path d="M36.0042 9.37954C36.1377 9.28373 36.2361 9.1467 36.2842 8.98953C36.5842 7.77953 27.8342 0.989535 18.8542 2.30953C10.2442 3.57953 2.85418 12.0796 4.11418 15.8896C4.24404 16.3112 4.47789 16.6934 4.79419 17.0009C5.11048 17.3085 5.49907 17.5316 5.92418 17.6496C8.11418 18.0696 9.24418 13.7895 13.4742 10.4195C14.0342 9.97952 18.9242 6.19952 25.0642 6.47952C26.6842 6.55952 31.3842 6.77952 33.7042 8.47952C34.0042 8.71952 35.3742 9.78954 36.0042 9.37954Z" fill="#8BCED0"/>
  <path d="M33.8342 7.30991C32.2646 6.27698 30.558 5.4691 28.7642 4.90989C27.004 4.31988 25.1606 4.01605 23.3042 4.00992C22.8447 3.97998 22.3837 3.97998 21.9242 4.00992L21.2442 4.05991L20.5642 4.1699C19.6597 4.29866 18.7669 4.49934 17.8942 4.76993C16.1331 5.31185 14.4517 6.08527 12.8942 7.06992C12.7839 7.13677 12.6518 7.15749 12.5264 7.12754C12.4009 7.09759 12.2924 7.01935 12.2242 6.90989C12.1619 6.80971 12.1387 6.69015 12.159 6.57395C12.1793 6.45775 12.2417 6.35309 12.3342 6.27994C13.8813 5.07325 15.6372 4.16141 17.5142 3.58994C19.3944 3.03578 21.3593 2.82569 23.3142 2.96988C25.251 3.1028 27.1546 3.54161 28.9542 4.26993C30.7215 5.00412 32.3802 5.97641 33.8842 7.15989C33.8904 7.16454 33.8955 7.17058 33.8989 7.17752C33.9024 7.18447 33.9042 7.19216 33.9042 7.19992C33.9042 7.20769 33.9024 7.21532 33.8989 7.22226C33.8955 7.22921 33.8904 7.23525 33.8842 7.2399C33.8877 7.24784 33.8891 7.2566 33.8882 7.26523C33.8873 7.27387 33.8842 7.28209 33.8791 7.28916C33.8741 7.29622 33.8673 7.30188 33.8594 7.30552C33.8516 7.30915 33.8429 7.31065 33.8342 7.30991Z" fill="#D1EAEC"/>
  <path d="M42.5842 24.7899C42.0779 28.598 40.5255 32.1911 38.0994 35.1697C35.6733 38.1483 32.4686 40.3957 28.8417 41.662C25.2148 42.9284 21.3077 43.1639 17.5549 42.3427C13.8021 41.5214 10.3506 39.6754 7.58416 37.0099C7.55474 36.8135 7.56714 36.613 7.62057 36.4218C7.67399 36.2305 7.76722 36.0527 7.89416 35.8999C8.95416 34.8999 12.0742 37.2099 15.1142 38.2599C19.7242 39.8599 24.1142 38.5199 26.7242 37.7099C32.0019 36.0331 36.5267 32.5626 39.5142 27.8999C41.0436 25.452 42.0987 22.7381 42.6242 19.8999C42.6242 20.3099 42.7042 20.7499 42.7242 21.1999C42.7809 22.3984 42.734 23.5994 42.5842 24.7899Z" fill="#8BCED0"/>
  <path d="M13.7842 36.5596C14.6126 36.5596 15.2842 35.888 15.2842 35.0596C15.2842 34.2311 14.6126 33.5596 13.7842 33.5596C12.9558 33.5596 12.2842 34.2311 12.2842 35.0596C12.2842 35.888 12.9558 36.5596 13.7842 36.5596Z" fill="#8BCED0"/>
  <path d="M11.1242 33.5499C11.5218 33.5499 11.8442 33.2275 11.8442 32.8299C11.8442 32.4322 11.5218 32.1099 11.1242 32.1099C10.7265 32.1099 10.4042 32.4322 10.4042 32.8299C10.4042 33.2275 10.7265 33.5499 11.1242 33.5499Z" fill="#8BCED0"/>
  <path d="M10.1842 35.71C10.6094 35.71 10.9542 35.3652 10.9542 34.9399C10.9542 34.5147 10.6094 34.1699 10.1842 34.1699C9.75891 34.1699 9.41418 34.5147 9.41418 34.9399C9.41418 35.3652 9.75891 35.71 10.1842 35.71Z" fill="#8BCED0"/>
  <path d="M36.1542 34.5698C34.6644 36.209 32.9225 37.5998 30.9942 38.6898C29.0426 39.7867 26.9246 40.5569 24.7242 40.9697C22.5195 41.4312 20.2494 41.4888 18.0242 41.1398C15.8153 40.7545 13.7067 39.928 11.8242 38.7098L11.8742 38.6198C13.9096 39.3664 16.0231 39.8797 18.1742 40.1498C20.3054 40.4248 22.463 40.4248 24.5942 40.1498C26.7385 39.8442 28.8189 39.1924 30.7542 38.2197C32.7189 37.261 34.5182 35.9951 36.0842 34.4697L36.1542 34.5698Z" fill="#D1EAEC"/>
  <path d="M10.2041 8.41987C10.3551 8.47299 10.4911 8.56159 10.6007 8.67817C10.7103 8.79476 10.7904 8.93598 10.8341 9.08992C10.9841 9.82992 9.83411 10.1499 8.83411 11.5999C7.83411 13.0499 8.12411 13.8299 7.21411 14.2399C7.07411 14.2999 6.48411 14.5399 6.14411 14.2399C5.50411 13.7499 6.0241 11.7999 6.9041 10.4899C7.6741 9.36988 9.1941 7.99987 10.2041 8.41987Z" fill="#D1EAEC"/>
</svg>
