<svg width="27" height="27" viewBox="0 0 27 27" fill="none" xmlns="http://www.w3.org/2000/svg">
  <path d="M26.23 6.00052V21.0005C26.2273 22.3868 25.6755 23.7155 24.6952 24.6958C23.715 25.676 22.3862 26.2279 21 26.2305H5.99998C4.95691 26.2286 3.93815 25.9154 3.07413 25.3311C2.2101 24.7468 1.54013 23.9179 1.14998 22.9505C0.891494 22.3158 0.762303 21.6358 0.769976 20.9505V5.95052C0.783155 4.57212 1.33998 3.25465 2.31937 2.28462C3.29876 1.31459 4.62151 0.770445 5.99998 0.770508H21C21.6868 0.770508 22.3669 0.905793 23.0014 1.16862C23.6359 1.43146 24.2125 1.8167 24.6981 2.30235C25.1838 2.788 25.569 3.36455 25.8319 3.99908C26.0947 4.63362 26.23 5.31371 26.23 6.00052Z" fill="#6CC4C7"/>
  <path d="M21 0.769989C21.6868 0.769989 22.3669 0.905274 23.0014 1.16811C23.636 1.43094 24.2125 1.81618 24.6982 2.30183C25.1838 2.78748 25.5691 3.36403 25.8319 3.99857C26.0947 4.6331 26.23 5.31319 26.23 6V21C26.2274 22.3863 25.6755 23.715 24.6953 24.6953C23.715 25.6755 22.3863 26.2274 21 26.23H6C4.95694 26.2281 3.93818 25.9149 3.07415 25.3306C2.21012 24.7463 1.54015 23.9173 1.15 22.95C0.891518 22.3153 0.762327 21.6353 0.77 20.95V5.95C0.783179 4.5716 1.34001 3.25413 2.3194 2.2841C3.29879 1.31408 4.62154 0.769926 6 0.769989H21ZM21 0H6C4.4087 0 2.88258 0.632136 1.75736 1.75735C0.63214 2.88257 0 4.4087 0 6V21C0 22.5913 0.63214 24.1174 1.75736 25.2426C2.88258 26.3678 4.4087 27 6 27H21C22.5913 27 24.1174 26.3678 25.2426 25.2426C26.3679 24.1174 27 22.5913 27 21V6C27 4.4087 26.3679 2.88257 25.2426 1.75735C24.1174 0.632136 22.5913 0 21 0Z" fill="#B8DFE1"/>
  <path d="M26.23 12.0205V21.0205C26.2221 22.4033 25.6679 23.7269 24.6882 24.7029C23.7086 25.6788 22.3828 26.2279 21 26.2305H6.00002C4.95696 26.2286 3.9382 25.9154 3.07417 25.3311C2.21015 24.7468 1.54018 23.9179 1.15002 22.9505C4.10865 23.853 7.20004 24.242 10.29 24.1005C13.21 23.9605 16.62 23.7905 19.9 21.6205C23.1359 19.3243 25.3943 15.8993 26.23 12.0205Z" fill="#8BCED0"/>
  <path d="M24.88 19.7002C24.9117 20.5236 24.7471 21.3428 24.4 22.0902C24.0427 22.8466 23.511 23.5075 22.8487 24.0185C22.1864 24.5296 21.4123 24.8763 20.59 25.0302C20.18 25.095 19.7652 25.1251 19.35 25.1202H18.14C16.51 25.1202 14.89 25.1202 13.27 25.1202L10.84 25.0602L8.41003 24.9702C9.22003 24.9702 10.03 24.9102 10.84 24.8802L13.27 24.8202C14.89 24.8202 16.51 24.8202 18.14 24.8202C18.9373 24.8576 19.7363 24.8342 20.53 24.7502C21.3064 24.6195 22.0421 24.3115 22.68 23.8502C23.3388 23.3719 23.8795 22.7493 24.2608 22.0301C24.6421 21.3108 24.8539 20.5139 24.88 19.7002Z" fill="#D1EAEC"/>
  <path d="M26.23 6.00052V8.63051C24.7299 8.49772 23.2187 8.57515 21.74 8.86052C19.8253 9.29856 17.9855 10.0162 16.28 10.9905C9.43002 14.3405 8.17002 15.7005 5.28002 15.7605C3.72025 15.774 2.17791 15.432 0.77002 14.7605V5.98051C0.775311 4.5969 1.32866 3.27177 2.3089 2.29527C3.28914 1.31878 4.61639 0.770498 6.00002 0.770508H21C21.6868 0.770508 22.3669 0.905793 23.0015 1.16862C23.636 1.43146 24.2125 1.8167 24.6982 2.30235C25.1838 2.788 25.5691 3.36455 25.8319 3.99908C26.0947 4.63362 26.23 5.31371 26.23 6.00052Z" fill="#79C8CC"/>
  <path d="M2.14001 5.08002C1.81001 6.78002 1.90001 9.38002 2.89001 9.75002C3.88001 10.12 4.69001 7.75001 7.55001 6.12001C9.34001 5.12001 10.24 5.26002 14.75 4.39002C18.63 3.64002 22.61 2.87001 22.58 2.26001C22.58 1.97001 21.58 1.92001 10.37 1.52001C7.04001 1.39001 4.07001 1.32001 2.84001 3.13001C2.47467 3.72477 2.23635 4.3887 2.14001 5.08002Z" fill="#8BCED0"/>
  <path d="M4.62 3.23045C3.52 3.68045 2.99 5.52044 3.44 5.91044C3.89 6.30044 5.15999 5.67045 5.59999 4.70045C5.78999 4.26045 5.90999 3.52045 5.53999 3.23045C5.16999 2.94045 4.69 3.23045 4.62 3.23045Z" fill="#D1EAEC"/>
  <path d="M18.42 2.36977C16.5042 2.3245 14.5874 2.39463 12.68 2.57977C10.7799 2.7526 8.89272 3.04652 7.03002 3.45976C6.92261 3.48363 6.81012 3.46386 6.71729 3.40479C6.62446 3.34571 6.5589 3.25217 6.53503 3.14476C6.51116 3.03735 6.53093 2.92486 6.59001 2.83203C6.64908 2.7392 6.74261 2.67363 6.85002 2.64977C8.75537 2.29731 10.6838 2.08341 12.62 2.00977C13.5867 2.00977 14.5567 2.00977 15.53 2.00977C16.53 2.05977 17.45 2.13977 18.41 2.25977L18.42 2.36977Z" fill="#D1EAEC"/>
  <path d="M5.22998 23.5598C5.57792 23.5598 5.85998 23.2777 5.85998 22.9298C5.85998 22.5819 5.57792 22.2998 5.22998 22.2998C4.88204 22.2998 4.59998 22.5819 4.59998 22.9298C4.59998 23.2777 4.88204 23.5598 5.22998 23.5598Z" fill="#8BCED0"/>
  <path d="M5.73004 20.92C6.11112 20.92 6.42004 20.6111 6.42004 20.23C6.42004 19.849 6.11112 19.54 5.73004 19.54C5.34897 19.54 5.04004 19.849 5.04004 20.23C5.04004 20.6111 5.34897 20.92 5.73004 20.92Z" fill="#8BCED0"/>
  <path d="M3.45999 18.3502C3.71957 18.3502 3.92999 18.1397 3.92999 17.8802C3.92999 17.6206 3.71957 17.4102 3.45999 17.4102C3.20042 17.4102 2.98999 17.6206 2.98999 17.8802C2.98999 18.1397 3.20042 18.3502 3.45999 18.3502Z" fill="#8BCED0"/>
</svg>
