<svg width="316" height="111" viewBox="0 0 316 111" fill="none" xmlns="http://www.w3.org/2000/svg">
  <path d="M316 98.6199V56.3799C316 76.8599 282.31 93.4799 240.76 93.4799H75.2899C33.6899 93.4799 -0.00012207 76.8599 -0.00012207 56.3799V98.6199V110.99H12.3799H303.63H316V98.6199Z" fill="#7BBDDC"/>
  <path d="M0 65.5298C0 69.0398 0.750006 82.0598 17.38 89.3098C19.63 90.3098 24 91.9598 28.06 93.3998C41.16 98.0398 47.75 100.34 54.56 100.75C66.27 101.45 69.61 97.9298 88.98 97.8598C91.74 97.8598 95.62 97.9998 103.37 98.2998C118.3 98.8898 123.17 99.4198 129.17 99.6398C146.68 100.27 149.22 97.3298 166.83 96.9598C189.13 96.4998 191.1 101.11 212.94 100.83C229.34 100.62 229.78 98.0098 253.94 96.3698C276.02 94.8798 281.77 96.6398 291.17 95.1798C302.68 93.3898 314.94 87.5098 315.43 68.6598L0 65.5298Z" fill="#8DC9E4"/>
  <path d="M316 26.45V65.53C316 80.14 282.31 91.98 240.71 91.98H75.29C33.69 91.98 0 80.14 0 65.53V20.5C0 5.9 33.69 0 75.29 0H240.76C282.31 0 316 11.85 316 26.45Z" fill="#D7EEF7"/>
  <path d="M316 54.3799V65.5299C316 80.1399 282.31 91.9799 240.71 91.9799H75.29C33.69 91.9799 0 80.1399 0 65.5299V42.7999C9.18738 40.9785 18.5339 40.0807 27.9 40.1199C52.5 40.2499 67.16 46.9599 97.29 56.0199C121.29 63.2299 137.82 68.2099 160.29 71.9199C177.52 74.7599 222.23 82.1199 264.8 75.0399C297.12 69.6199 311.19 58.7899 316 54.3799Z" fill="#C7E9F4"/>
  <path d="M316 58.0199V69.1699C309.62 84.6299 296.31 89.6899 284.44 91.1699C274 92.5099 267.95 90.7099 246.08 92.1699C224.76 93.6199 223.76 95.7899 208.28 96.1299C189.28 96.5499 188.59 93.3199 165.42 92.6099C143.59 91.9399 142.36 94.7499 114.65 94.1899C98.96 93.8799 96.95 92.9299 84.75 93.3999C69.75 93.9799 64.97 95.5799 54.86 94.5899C48.86 93.9999 44.32 92.6599 35.25 89.9799C29.6418 88.409 24.132 86.5056 18.75 84.2799C6.83 79.1099 2.04 73.2799 0 69.1699V46.4399C88.41 80.1899 198.19 92.0599 264.82 78.6799C278.52 75.9299 299.52 70.2799 316 58.0199Z" fill="#BCE5F2"/>
  <path d="M8.87012 69.6899C14.7201 73.7999 24.0501 78.6899 39.3301 82.3199C66.5001 88.7799 96.0901 87.3199 96.0201 87.6699C95.9501 88.0199 43.5902 90.7999 20.2902 80.8399C11.5502 77.0999 9.41012 72.6199 8.87012 69.6899Z" fill="#E7F5FB"/>
  <path d="M121.819 82.9197C124.429 84.0597 128.889 83.9197 144.669 83.8097C156.449 83.8097 157.669 83.8097 157.779 83.6597C158.389 82.6597 125.019 78.1597 120.549 80.5397C119.319 81.1897 120.419 82.2997 121.819 82.9197Z" fill="#E7F5FB"/>
  <path d="M189.09 72.5096C188.49 73.3096 203.09 76.2296 219.55 76.2296C231.4 76.2296 242.62 74.7196 242.4 73.9996C242.26 73.5696 238.02 73.5296 216.17 72.9996C192.21 72.3396 189.34 72.1796 189.09 72.5096Z" fill="#E7F5FB"/>
  <path d="M118.86 31.6196C118.97 30.2496 134.29 29.0596 146.36 29.3896C165.88 29.9296 182.6 34.6296 181.05 36.0796C178.39 38.6196 118.65 34.3696 118.86 31.6196Z" fill="#C7E9F4"/>
  <path d="M198.97 35.6799C192.81 34.0499 188.88 31.0699 190.92 30.3499C194.73 28.9999 221.33 34.7799 219.6 36.5199C218.58 37.5399 207.04 37.8199 198.97 35.6799Z" fill="#E7F5FB"/>
  <path d="M316 28.3799V12.3799V-0.00012207H303.63H12.38H0V12.3799V21.6999C7.8 20.8399 18.33 19.8599 30.85 19.2999C50.68 18.4199 62.57 19.1299 74.85 19.2999C118.73 19.9199 121.2 12.9699 152.42 14.1199C177.47 15.1199 196.23 20.3299 227.68 29.1199C261.76 38.6199 271.76 45.1899 287.31 43.4899C298.458 42.3199 308.729 36.9103 316 28.3799Z" fill="#EBF6FA"/>
  <path d="M122.39 35.6199C121.15 36.1499 128.39 39.9799 139.87 42.0599C160.05 45.7199 184.05 42.3399 183.87 41.6699C183.74 41.1699 170.4 42.3899 151.44 40.3799C133.44 38.5099 123.68 35.1099 122.39 35.6199Z" fill="#E7F5FB"/>
  <path fill-rule="evenodd" clip-rule="evenodd" d="M301.544 4.00674C301.673 3.11391 301.86 2.2303 302.103 1.36141C301.711 1.50759 301.373 1.76875 301.133 2.11047C300.893 2.45218 300.762 2.85844 300.758 3.2757C300.597 4.21357 300.432 5.15143 300.266 6.08971C299.741 9.06462 299.215 12.0437 298.825 15.0402C298.485 17.7075 298.269 20.3934 298.052 23.0796C297.96 24.2187 297.868 25.3579 297.767 26.4958C297.719 27.0382 297.69 27.5806 297.661 28.123C297.654 28.2589 297.646 28.3948 297.639 28.5306H297.314C295.979 23.8688 295.238 19.0578 295.108 14.2112C294.799 14.8816 294.566 15.5843 294.413 16.3064C293.998 18.9592 294.103 21.6672 294.723 24.28C294.821 24.7561 294.892 25.2489 294.964 25.7427C295.141 26.9685 295.32 28.1999 295.901 29.1938C297.183 31.2986 297.716 33.7736 297.412 36.2179C297.375 36.7197 297.375 37.2234 297.412 37.7252C297.748 42.7984 297.238 47.892 295.901 52.7983C295.167 55.2984 294.633 57.8632 294.101 60.4148C294.059 60.6169 294.017 60.8188 293.975 61.0206C293.829 62.0693 293.758 63.1272 293.764 64.186C293.492 61.4578 293.235 58.7295 293.144 55.9938C293.099 54.3386 293.19 52.6825 293.416 51.0423C293.585 49.812 293.832 48.5954 294.081 47.3777C294.244 46.5738 294.408 45.7694 294.549 44.9603C294.715 44.0097 294.847 43.0492 294.979 42.0897C295.046 41.6038 295.113 41.1182 295.184 40.6343C293.849 41.5511 293.341 42.8751 292.829 44.2089C292.718 44.4979 292.607 44.7874 292.487 45.0733C292.371 44.4742 292.303 43.8669 292.283 43.257C292.179 41.4122 292.083 39.5641 291.988 37.7143C291.759 33.2843 291.53 28.8444 291.173 24.4157C290.841 20.248 290.946 16.2461 293.212 12.5758C294.587 10.3827 294.904 7.92574 295.101 5.41607C295.12 5.16002 295.137 4.90327 295.154 4.64635C295.259 3.06458 295.364 1.47604 296.09 0.00012207H295.679C295.241 0.443071 294.877 0.955911 294.602 1.51967C293.925 3.34636 293.451 5.24192 293.19 7.17208C292.899 10.0241 291.879 12.754 290.229 15.1005V2.89887C290.126 3.10196 290.035 3.31081 289.957 3.52439C288.62 8.71707 288.552 14.0228 288.816 19.3511C288.87 19.8165 288.898 20.2845 288.899 20.7529C288.823 21.8575 288.737 22.962 288.651 24.0665C288.54 25.4867 288.43 26.9069 288.34 28.3271C288.225 30.1893 288.135 32.0587 288.045 33.9252C288.005 34.7405 287.966 35.5553 287.925 36.3686C286.966 34.2508 286.21 32.118 285.455 29.9852C285.325 29.6326 285.165 29.2806 285.005 28.9288C284.64 28.13 284.276 27.3316 284.276 26.5259C284.186 23.9487 284.216 21.3681 284.246 18.7864C284.261 17.4952 284.276 16.2037 284.276 14.9121C284.276 14.468 284.271 14.0231 284.266 13.5776C284.256 12.6849 284.246 11.79 284.276 10.8951C284.296 10.2976 284.313 9.7017 284.33 9.10724C284.402 6.6578 284.473 4.23194 284.662 1.80606C284.764 1.198 284.895 0.595379 285.054 0.00012207H284.416C283.999 0.866822 283.617 1.74179 283.438 2.6577C282.944 5.25039 282.691 7.84308 282.437 10.4358C282.396 10.8577 282.355 11.2796 282.312 11.7015C282.177 13.0423 282.108 14.3798 282.04 15.7117C282.005 16.3862 281.97 17.0594 281.927 17.7308H281.466L279.956 0.0575821C279.782 1.8965 279.638 3.73542 279.54 5.57433C279.17 12.7039 279.487 19.7506 281.806 26.6013C282.962 30.0227 284.085 33.4585 285.207 36.8938C285.714 38.4452 286.221 39.9964 286.731 41.5462C287.311 43.3357 287.567 45.2141 287.487 47.0931C287.431 49.121 287.45 51.1657 287.468 53.198C287.478 54.2096 287.487 55.2181 287.487 56.2199V62.7917C284.095 54.9839 280.704 46.7012 280.182 37.5443C279.998 39.0442 279.932 40.5561 279.986 42.0663C280.244 48.1904 281.494 54.2325 283.687 59.958C286.629 67.6729 288.607 75.7196 289.579 83.9166C289.68 85.1701 289.71 86.4281 289.67 87.6849C289.654 88.5126 289.597 89.3403 289.548 90.0553C289.525 90.395 289.503 90.7092 289.488 90.9859C289.243 89.9351 289.019 88.8451 288.792 87.7351C288.28 85.2308 287.746 82.6241 286.882 80.1333C286.581 79.2648 286.281 78.3958 285.981 77.5268C282.99 68.863 279.996 60.1886 276.028 51.8939C275.442 50.6571 275.308 49.2545 275.65 47.9297C276.783 42.4355 276.957 36.9565 275.205 31.5226C274.566 29.8101 274.626 27.9162 275.371 26.2471C274.847 26.7222 274.465 27.3325 274.268 28.0106C274.234 28.276 274.196 28.5455 274.157 28.8172C273.968 30.1425 273.772 31.5188 274.117 32.7134C275.063 35.9882 274.853 39.2494 274.642 42.5292C274.63 42.7064 274.619 42.8837 274.608 43.0611C274.555 43.9547 274.431 44.8446 274.307 45.736C274.255 46.1151 274.202 46.4945 274.155 46.8745L273.777 46.9349C273.642 46.4986 273.479 46.063 273.316 45.627C272.95 44.6472 272.583 43.6654 272.531 42.6692C272.183 36.5646 271.941 30.4525 271.843 24.3328C271.619 18.6796 272.544 13.0396 274.562 7.7524C274.577 7.715 274.553 7.6602 274.508 7.55563C274.48 7.49161 274.444 7.40895 274.404 7.30021C274.267 7.55247 274.137 7.78539 274.012 8.00677C273.773 8.43356 273.558 8.81748 273.369 9.21447C271.838 12.3905 270.958 15.8391 270.778 19.3587C270.599 23.3439 270.53 27.3364 270.461 31.3286C270.431 33.0591 270.401 34.7896 270.363 36.5194V37.6046C269.757 36.4727 269.251 35.2899 268.852 34.07C266.884 28.4457 266.191 22.4563 266.82 16.5325C267.046 15.2802 267.379 14.0497 267.817 12.8546C266.916 14.1118 266.22 15.5031 265.755 16.9771C264.267 22.6597 264.267 28.6285 265.755 34.3112C267.144 39.6528 268.949 44.8857 270.754 50.1186C271.463 52.1728 272.172 54.2269 272.855 56.2877C273.577 58.4979 274.339 60.6769 275.097 62.8472C275.393 63.6963 275.689 64.5441 275.983 65.3918C274.568 62.9605 273.306 60.4434 272.206 57.8553C269.471 51.3437 266.722 44.8774 262.945 38.8481C260.483 34.9291 258.435 30.8745 257.944 26.1491C257.662 24.3592 257.749 22.5304 258.201 20.7755C259.478 16.5473 260.179 12.1671 260.286 7.7524C260.365 6.81379 260.496 5.88029 260.679 4.95633L260.271 4.88096L256.298 24.476C256.02 23.4734 255.74 22.4899 255.464 21.5188C254.838 19.3218 254.231 17.1883 253.707 15.0402C252.841 11.9177 252.699 8.63926 253.291 5.45375C252.441 7.16813 251.984 9.05021 251.954 10.963C251.773 15.4397 252.876 19.7204 254.039 23.9936C254.622 26.1463 255.224 28.2989 255.825 30.4515C256.066 31.3135 256.307 32.1755 256.547 33.0375C256.111 32.5197 255.716 31.9678 255.369 31.387C254.44 29.8904 253.499 28.3986 252.557 26.9059C250.834 24.1737 249.108 21.4384 247.452 18.6653C246.801 17.5862 246.022 16.5926 245.243 15.5999C243.928 13.9235 242.616 12.2497 241.923 10.1716C242.335 12.9016 243.67 15.2324 245.015 17.5821C245.864 19.0662 246.718 20.5577 247.347 22.1623L240.586 17.1731C240.813 17.4782 241.066 17.7632 241.342 18.0247C243.205 19.5822 245.078 21.1147 246.962 22.622C247.184 22.7999 247.438 22.9568 247.691 23.1134C248.168 23.408 248.641 23.7012 248.903 24.1293C250.366 26.543 251.764 28.9991 253.162 31.4563C253.72 32.4362 254.278 33.4164 254.84 34.394L254.56 34.6804C254.366 34.5267 254.17 34.373 253.975 34.2192C253.088 33.5209 252.199 32.8208 251.32 32.1105C247.966 29.3898 244.575 26.639 241.168 23.9409C240.479 23.4966 239.754 23.1109 239 22.7878C239.078 22.9837 239.177 23.1707 239.295 23.3455C240.283 24.2317 241.276 25.1151 242.269 25.9984C244.121 27.6465 245.973 29.294 247.792 30.9574C250.587 33.5123 253.488 35.8863 257.204 37.0318C257.66 37.2008 258.076 37.463 258.425 37.8018C258.774 38.1405 259.047 38.5483 259.229 38.9989C263.076 46.4411 266.426 54.1016 269.779 61.7656C270.415 63.2209 271.052 64.6763 271.692 66.1304C272.199 67.274 272.72 68.4235 273.253 69.5975C273.57 70.2959 273.891 71.0029 274.215 71.7225C274.132 71.7005 274.051 71.6702 273.973 71.6321C273.679 71.3156 273.384 70.999 273.097 70.6749C272.479 69.9704 271.848 69.2769 271.217 68.5836C268.601 65.7099 265.989 62.8398 264.327 59.1968C263.293 56.9485 262.117 54.7441 260.94 52.5367C260.104 50.9704 259.268 49.4026 258.481 47.8166C257.891 46.4292 257.386 45.0072 256.97 43.5585C256.731 44.1531 256.606 44.787 256.6 45.4275C256.595 48.7775 258.025 51.6067 259.462 54.4477C260.078 55.6654 260.695 56.8853 261.2 58.1492C256.135 53.3659 251.425 48.2225 247.105 42.7596C248.216 45.5526 249.987 47.9342 251.76 50.3196C252.447 51.2428 253.133 52.1665 253.782 53.1148C252.977 52.5347 252.103 52.0439 251.229 51.5525C249.274 50.4541 247.314 49.3526 246.093 47.2439C245.996 47.3995 245.932 47.5734 245.906 47.7546C245.879 47.9359 245.891 48.1207 245.939 48.2974C245.987 48.4742 246.071 48.6392 246.186 48.7821C246.301 48.925 246.444 49.0427 246.606 49.128C247.248 49.6234 247.875 50.1425 248.501 50.6618C250.543 52.3544 252.586 54.0487 255.187 54.9311C255.443 55.0592 255.666 55.245 255.837 55.4737C256.378 56.0652 256.919 56.6562 257.461 57.2472C259.368 59.3298 261.275 61.4119 263.164 63.5077C263.871 64.2992 264.556 65.112 265.241 65.9248C265.633 66.3891 266.024 66.8534 266.42 67.3136C265.478 67.0842 264.603 66.7056 263.733 66.3298C262.462 65.7799 261.204 65.236 259.772 65.1733C262.133 66.5395 264.554 67.7647 266.973 68.9883L267.402 69.2053C267.837 69.3876 268.238 69.6425 268.588 69.959C269.721 71.1874 270.801 72.4536 271.881 73.7272C272.042 73.9458 272.129 74.2097 272.13 74.4809C272.052 75.3214 272.064 76.1679 272.168 77.0057C272.606 78.6568 273.141 80.2859 273.676 81.9132C273.841 82.4177 274.007 82.922 274.17 83.4268C274.311 83.8659 274.475 84.3019 274.664 84.8022C274.766 85.0747 274.876 85.3662 274.993 85.6877C273.592 84.4974 272.298 83.411 271.043 82.3569C270.478 81.8827 269.921 81.415 269.366 80.9473C269.134 80.7234 268.96 80.4467 268.859 80.1408C268.351 78.8207 267.85 77.495 267.35 76.1688C267.033 75.3296 266.716 74.4902 266.397 73.6519C266.344 73.5201 266.273 73.3935 266.192 73.2481C266.134 73.144 266.07 73.0303 266.004 72.8982C265.241 74.5644 265.806 75.9262 266.37 77.2858C266.609 77.8634 266.849 78.4405 266.986 79.0405C265.886 78.1259 264.676 77.3669 263.467 76.6088C261.438 75.3365 259.413 74.0668 257.922 72.0692C257.991 72.5114 258.15 72.9347 258.39 73.3127C259.258 74.418 260.186 75.4747 261.17 76.4781C262.978 78.2369 264.813 79.9957 266.648 81.7546C267.565 82.6335 268.482 83.5125 269.396 84.3915C269.662 84.6593 269.914 84.941 270.151 85.2355C265.589 84.3688 261.276 83.4343 259.274 78.6863C258.837 80.2606 259.769 81.1567 260.778 82.1281C261.132 82.4682 261.495 82.8174 261.812 83.2082C260.998 82.9478 260.171 82.7289 259.334 82.5525C258.583 82.4572 257.826 82.4044 257.068 82.3943L257.015 82.741C257.26 82.8664 257.513 82.9771 257.771 83.0726L272.342 88.1673C272.767 88.2573 273.166 88.4457 273.505 88.7174C274.851 90.3103 276.181 91.9197 277.512 93.5303C278.189 94.3506 278.867 95.1712 279.548 95.9902C278.633 95.5861 277.77 95.132 276.921 94.6849C276.059 94.2312 275.211 93.7847 274.336 93.4051C272.062 92.3726 270.023 92.1842 268.837 92.6515C273.505 94.2266 277.712 96.4424 280.167 101.1L270.559 97.2563L270.363 97.6633C271.333 98.1567 272.292 98.658 273.248 99.1578C274.936 100.04 276.615 100.918 278.332 101.741C280.281 102.698 281.686 103.851 281.436 106.262C281.379 106.951 281.464 107.643 281.686 108.297C281.933 109.046 282.284 109.756 282.728 110.408C282.847 110.553 283.001 110.668 283.174 110.741C283.348 110.815 283.537 110.845 283.725 110.83C283.974 110.747 284.216 110.219 284.216 109.872C284.299 108.984 284.343 108.089 284.387 107.191C284.407 106.786 284.427 106.381 284.45 105.976L284.553 106.008C285.767 106.383 285.824 106.401 286.331 107.581C286.891 108.827 287.632 109.979 288.527 111H291.298C291.242 110.833 291.184 110.668 291.126 110.503C291.054 110.296 290.982 110.091 290.916 109.888C292.051 109.312 292.27 108.311 292.491 107.3C292.641 106.616 292.791 105.928 293.227 105.366C293.333 105.659 293.433 105.952 293.531 106.241C293.749 106.881 293.962 107.507 294.232 108.109C294.335 108.356 294.576 108.551 294.817 108.745C294.929 108.835 295.04 108.925 295.139 109.021C295.223 108.915 295.327 108.815 295.432 108.715C295.626 108.529 295.82 108.342 295.894 108.116C296.642 105.883 297.357 103.638 298.071 101.391C298.179 101.053 298.286 100.715 298.394 100.376C298.492 100.075 298.583 99.7735 298.674 99.4645C298.854 100.003 298.934 100.57 298.908 101.138C298.935 104.076 299.498 106.985 300.57 109.722C300.65 109.958 300.881 110.122 301.105 110.281C301.195 110.345 301.285 110.408 301.363 110.475C301.42 110.385 301.495 110.297 301.569 110.211C301.71 110.048 301.846 109.89 301.846 109.722C302.33 105.079 303.531 100.723 306.62 97.0604C306.645 97.0313 306.665 96.9976 306.686 96.9631C306.703 96.9351 306.721 96.9065 306.741 96.8795L309.921 91.9657C308.441 95.7289 307.922 99.8 308.41 103.813C308.41 104.25 308.871 105.004 309.166 105.004C309.43 104.991 309.687 104.916 309.917 104.785C310.147 104.654 310.342 104.471 310.487 104.25C311.475 102.57 312.31 100.804 312.98 98.9746C313.553 97.2844 314.608 95.8111 316 94.726V81.7386C315.667 81.9757 315.332 82.2118 314.997 82.447C311.743 84.6287 308.981 87.4622 306.884 90.7673C306.502 91.3935 306.097 92.004 305.69 92.6157C305.534 92.8507 305.378 93.0859 305.223 93.3222C305.229 92.2649 305.507 91.227 306.031 90.3076C307.924 87.5197 309.956 84.8283 312.119 82.2435C313.4 80.7626 314.695 79.2916 316 77.8292V73.2038C315.031 74.1958 314.063 75.1881 313.109 76.1917C312.92 76.4156 312.743 76.6496 312.58 76.8926C313.392 75.0592 314.278 73.2997 315.158 71.5531C315.44 70.9926 315.722 70.4335 316 69.8736V60.245C314.1 63.5306 312.156 66.781 310.212 70.0304C309.558 71.1242 308.904 72.2178 308.252 73.3127C307.403 74.7356 306.546 76.1523 305.69 77.5681C304.922 78.837 304.155 80.1052 303.395 81.3768C303.097 81.8735 302.82 82.384 302.505 82.9651C302.357 83.2394 302.199 83.5295 302.027 83.8413C302.015 83.6254 302.015 83.409 302.027 83.1931C302.496 80.5779 302.987 77.9778 304.497 75.6566C305.204 74.5777 305.835 73.4612 306.465 72.3455C306.812 71.731 307.159 71.1167 307.519 70.5091C310.972 64.6519 313.537 58.3742 316 52.0725V41.5084C315.867 41.8961 315.716 42.2835 315.541 42.6692C315.345 40.5527 315.178 38.7447 315.012 36.937L315.012 36.9339C314.84 37.1291 314.736 37.3753 314.718 37.6348C314.617 38.7107 314.52 39.7856 314.424 40.8599C314.257 42.7053 314.091 44.5488 313.909 46.3922C313.887 46.9653 313.77 47.5307 313.562 48.0653C312.049 51.3191 310.495 54.5548 308.941 57.7886C308.756 58.1726 308.572 58.5566 308.388 58.9406C308.236 59.201 308.069 59.4527 307.889 59.6942C307.873 59.5112 307.873 59.3271 307.889 59.144C308.2 57.3652 308.498 55.585 308.795 53.8048C309.511 49.5288 310.226 45.2531 311.122 40.9961C311.839 37.129 313.517 33.5042 316 30.4526V26.9449C315.867 27.31 315.696 27.6597 315.488 27.988L315.178 27.8749C315.538 26.9437 315.804 26.0029 316 25.0546V14.5782C315.729 15.651 315.461 16.7255 315.193 17.8002C314.789 19.4212 314.385 21.0427 313.97 22.6597C313.752 23.4988 313.549 24.3485 313.347 25.199C312.806 27.4726 312.263 29.7515 311.417 31.8467C310.603 33.8591 309.484 35.75 308.409 37.5657C307.946 38.3475 307.492 39.1154 307.073 39.8731C307.255 33.3088 307.451 26.4732 307.647 19.6451C307.211 20.8257 306.875 22.0408 306.643 23.2777C305.268 31.5001 304.511 39.8133 304.377 48.1482C304.407 48.4691 304.407 48.7921 304.377 49.1129C304.111 50.245 303.854 51.3793 303.596 52.5136C302.926 55.4722 302.255 58.4301 301.431 61.3447C300.536 64.5257 299.514 67.6628 298.49 70.8019C298.044 72.1698 297.598 73.538 297.163 74.9105C296.785 76.187 296.386 77.4635 295.93 78.9195C295.84 79.2086 295.747 79.5047 295.652 79.8092C295.585 79.3983 295.529 79.0252 295.477 78.6783C295.372 77.9754 295.283 77.3799 295.146 76.7946C294.419 73.7645 294.531 70.594 295.471 67.6227C296.283 64.9994 296.855 62.3078 297.178 59.5812C297.516 56.3773 298.137 53.2095 299.036 50.1153C301.023 43.6045 302.277 36.8934 302.775 30.1058C302.964 27.5433 303.289 24.996 303.719 22.4637C304.016 20.6256 304.447 18.8061 304.877 16.9869C304.996 16.4863 305.114 15.9858 305.23 15.4849C305.759 13.1686 306.303 10.8575 306.862 8.55128C306.983 8.15645 307.127 7.76893 307.292 7.39064C306.68 7.96432 306.187 8.65334 305.842 9.41797C304.192 13.1475 303.373 17.1151 302.557 21.0688C302.514 21.2776 302.471 21.4863 302.428 21.695C301.972 23.8746 301.672 26.0869 301.373 28.2991C301.241 29.2766 301.108 30.2541 300.962 31.2287C300.675 33.138 300.391 35.0447 300.109 36.9489C300.033 30.4148 300.116 23.9032 300.418 17.3992C300.583 13.9312 300.92 10.4677 301.256 7.00525C301.354 6.00569 301.451 5.00622 301.544 4.00674ZM276.27 79.0329C278.845 81.7461 279.79 85.1677 280.59 88.6647C279.496 86.4926 278.16 84.4611 276.825 82.4309C275.293 80.1006 273.761 77.7719 272.599 75.2345L272.946 75.0009C273.291 75.4224 273.628 75.8513 273.965 76.2801C274.707 77.2239 275.449 78.1676 276.27 79.0329Z" fill="#8DC9E4"/>
  <path d="M244.404 91.3866L245.204 90.8466L245.334 91.0966L246.204 90.0966V91.8667L246.674 91.5066C246.659 92.2737 246.423 93.02 245.994 93.6567L246.524 93.4466C246.229 94.2021 245.695 94.8409 245.004 95.2666L245.524 95.3866C245.065 95.8375 244.472 96.1285 243.834 96.2167C243.476 96.2702 243.134 96.4034 242.834 96.6066C242.112 97.0486 241.282 97.2838 240.434 97.2866C238.804 97.3566 237.174 97.3666 235.544 97.3866C234.874 97.3866 234.194 97.3866 233.544 97.3866C233.206 97.3364 232.872 97.2629 232.544 97.1666C232.373 97.1286 232.199 97.1052 232.024 97.0966H228.364C228.139 97.1062 227.914 97.0591 227.712 96.9595C227.509 96.8599 227.335 96.7111 227.204 96.5267C227.103 96.3841 227.037 96.2197 227.012 96.0468C226.986 95.874 227.002 95.6975 227.058 95.5318C227.113 95.3662 227.207 95.2159 227.332 95.0934C227.456 94.9709 227.608 94.8795 227.774 94.8266C228.196 94.6895 228.627 94.5826 229.064 94.5066C228.817 94.1191 228.596 93.7148 228.404 93.2966C227.941 92.161 227.744 90.9346 227.827 89.7111C227.91 88.4875 228.272 87.2991 228.884 86.2366C229.016 85.9596 229.133 85.6759 229.234 85.3866C229.165 85.3793 229.094 85.3793 229.024 85.3866C228.826 85.4206 228.623 85.3976 228.437 85.3204C228.252 85.2431 228.092 85.1147 227.977 84.9501C227.862 84.7856 227.796 84.5917 227.786 84.391C227.777 84.1904 227.825 83.9911 227.924 83.8166C228.104 83.4066 228.294 83.0066 228.434 82.5766C228.705 81.8488 228.784 81.0638 228.664 80.2966C228.554 79.5766 228.394 78.8566 228.344 78.1266C228.294 77.3966 228.344 76.6966 228.344 75.9466L227.714 76.4466C227.757 75.0269 228.182 73.645 228.944 72.4466L228.074 72.6567C228.606 71.578 229.392 70.6446 230.364 69.9367C230.184 69.8467 230.034 69.7567 229.864 69.6867C229.709 69.6271 229.568 69.535 229.451 69.4165C229.334 69.2981 229.243 69.156 229.186 68.9998C229.128 68.8436 229.104 68.6769 229.116 68.5108C229.128 68.3447 229.175 68.183 229.254 68.0366C229.318 67.8735 229.372 67.7065 229.414 67.5366C229.574 66.9566 229.714 66.3667 229.874 65.7767C230.114 64.8767 230.364 63.9666 230.614 63.0666C230.665 62.801 230.756 62.5447 230.884 62.3067C231.118 61.894 231.262 61.4366 231.307 60.9644C231.352 60.4922 231.296 60.0159 231.144 59.5666C230.879 58.2161 230.296 56.9479 229.444 55.8667C228.787 55.0334 228.286 54.0882 227.964 53.0766C227.346 51.0316 227.223 48.8688 227.604 46.7666C227.784 45.8666 227.984 45.7667 228.604 46.4267C229.282 47.1302 229.907 47.8822 230.474 48.6767C232.304 51.1667 232.804 54.1466 233.474 57.0666C233.674 57.9666 233.824 58.8766 233.984 59.7366L236.594 60.0366C236.894 59.1866 237.284 58.2467 237.544 57.2767C237.974 55.6967 238.304 54.0867 238.704 52.4967C239.327 50.2469 240.563 48.2145 242.274 46.6266C242.454 46.4466 242.674 46.3066 242.934 46.0966C242.934 46.3566 243.024 46.5167 243.044 46.6867C243.435 49.5603 243.196 52.4845 242.344 55.2566C242.091 55.9982 241.755 56.7093 241.344 57.3766C240.554 58.7466 239.694 60.0867 238.864 61.4367C238.74 61.6283 238.656 61.8431 238.616 62.0682C238.577 62.2933 238.583 62.5241 238.634 62.7467C238.819 63.8467 238.779 64.9729 238.514 66.0567C238.355 66.7425 238.264 67.4427 238.244 68.1467C238.251 68.5376 238.351 68.9214 238.534 69.2666C238.751 69.644 238.883 70.064 238.921 70.4974C238.959 70.9308 238.902 71.3674 238.754 71.7767C238.724 71.846 238.709 71.9209 238.709 71.9967C238.709 72.0724 238.724 72.1473 238.754 72.2167C239.371 73.0879 239.645 74.156 239.524 75.2167C239.367 77.5881 239.958 79.9491 241.214 81.9667C242.246 83.6798 242.955 85.5677 243.304 87.5366C243.322 87.6582 243.366 87.7743 243.434 87.8766C244.056 88.8556 244.373 89.9973 244.344 91.1567C244.384 91.2667 244.394 91.2666 244.404 91.3866Z" fill="#8DC9E4"/>
</svg>
