<svg width="44" height="44" viewBox="0 0 44 44" fill="none" xmlns="http://www.w3.org/2000/svg">
  <path d="M42.6025 22.0692C42.6046 22.7737 42.5713 23.478 42.5026 24.1792V24.1792C41.957 29.4467 39.4104 34.304 35.3881 37.7488C31.3659 41.1936 26.1749 42.9633 20.8861 42.6926C15.5973 42.4219 10.614 40.1317 6.96451 36.2942C3.31498 32.4568 1.27755 27.3649 1.27254 22.0692C1.2701 21.2166 1.32355 20.3648 1.43254 19.5192C1.55259 18.5049 1.75324 17.5017 2.03255 16.5192C2.48125 14.9128 3.1261 13.3678 3.95255 11.9192C5.70912 8.82909 8.23249 6.24396 11.2792 4.41318C14.3259 2.5824 17.793 1.56776 21.346 1.46726C24.899 1.36675 28.418 2.18377 31.5633 3.83939C34.7086 5.49501 37.3741 7.93333 39.3025 10.9192C41.4663 14.2568 42.6128 18.1516 42.6025 22.1292V22.0692Z" fill="#D7EEF7"/>
  <path d="M21.9326 1.39937C25.3855 1.39751 28.7839 2.26154 31.8166 3.91243C34.8494 5.56333 37.4198 7.94834 39.2926 10.8493V10.8493C41.4563 14.1869 42.6028 18.0817 42.5926 22.0593C42.5947 22.7639 42.5613 23.4681 42.4926 24.1693C41.947 29.4369 39.4004 34.2942 35.3782 37.739C31.356 41.1839 26.165 42.9535 20.8761 42.6828C15.5873 42.4122 10.6041 40.1218 6.95453 36.2844C3.305 32.4469 1.26757 27.3551 1.26256 22.0593C1.26012 21.2068 1.31357 20.355 1.42257 19.5094C1.54262 18.495 1.74324 17.4918 2.02256 16.5094C2.47126 14.903 3.11611 13.358 3.94256 11.9093C5.74501 8.72409 8.36162 6.07514 11.5245 4.23366C14.6873 2.39219 18.2827 1.42439 21.9426 1.42934L21.9326 1.39937ZM21.9426 0.0993245C18.0507 0.103437 14.2292 1.1371 10.866 3.09536C7.50267 5.05361 4.71731 7.86678 2.79256 11.2493C1.92838 12.7949 1.25671 14.4405 0.792563 16.1494C0.49068 17.2105 0.27334 18.2939 0.142569 19.3894C-0.520472 25.187 1.14674 31.0106 4.77744 35.5789C8.40815 40.1473 13.7049 43.0863 19.5026 43.7493C25.3002 44.4124 31.1238 42.7452 35.6921 39.1145C40.2605 35.4838 43.1995 30.187 43.8626 24.3894V24.3194C43.9326 23.5994 43.9626 22.8694 43.9626 22.1394C43.9702 19.1514 43.3644 16.1937 42.1826 13.4494C41.752 12.4415 41.2438 11.4685 40.6626 10.5393L40.4426 10.2094C38.4606 7.09741 35.7248 4.53631 32.489 2.76369C29.2531 0.991074 25.6221 0.0643285 21.9326 0.0693563L21.9426 0.0993245Z" fill="#3DB5B6"/>
  <path d="M42.6026 22.0692C42.6026 27.5512 40.4248 32.8087 36.5485 36.6851C32.6721 40.5615 27.4146 42.7392 21.9326 42.7392C16.4505 42.7392 11.1931 40.5615 7.31668 36.6851C3.4403 32.8087 1.26257 27.5512 1.26257 22.0692C1.26481 21.2168 1.31824 20.3653 1.42258 19.5192C1.54973 18.5052 1.75365 17.5024 2.03258 16.5192C3.41454 16.0836 4.8917 16.0489 6.29257 16.4192C7.95538 16.9597 9.37268 18.0723 10.2926 19.5592C11.1526 20.7392 11.9726 22.0992 13.0826 23.4692C13.9926 24.5992 18.4926 30.1492 24.6026 30.8592C30.0526 31.4992 35.9726 28.1792 38.9126 23.1392C39.5654 22.017 40.0664 20.8132 40.4026 19.5592C40.9016 17.7338 41.0776 15.8352 40.9226 13.9492C41.6966 15.7363 42.2086 17.6258 42.4426 19.5592C42.4472 19.5789 42.4472 19.5995 42.4426 19.6192C42.5453 20.4319 42.5987 21.2501 42.6026 22.0692Z" fill="#AADBEB"/>
  <path d="M42.6125 22.0695C42.6125 27.5515 40.4347 32.809 36.5584 36.6854C32.682 40.5618 27.4245 42.7395 21.9425 42.7395C16.4604 42.7395 11.203 40.5618 7.32658 36.6854C3.4502 32.809 1.27247 27.5515 1.27247 22.0695C1.27172 21.2173 1.32182 20.3658 1.42248 19.5195C2.06547 24.502 4.50107 29.0798 8.27393 32.397C12.0468 35.7143 16.8987 37.5439 21.9225 37.5439C26.9463 37.5439 31.7982 35.7143 35.571 32.397C39.3439 29.0798 41.7795 24.502 42.4225 19.5195C42.5365 20.365 42.6 21.2165 42.6125 22.0695Z" fill="#2B7A9F"/>
  <path d="M42.5025 24.1795C41.9107 29.2428 39.4973 33.9179 35.7125 37.3329C31.9276 40.7479 27.0298 42.6696 21.9325 42.7395C7.81253 42.7395 1.26253 27.6495 1.26253 22.0695C1.26009 21.2169 1.31354 20.3651 1.42253 19.5195C1.19201 22.0996 1.49147 24.6994 2.30252 27.1595C2.98252 29.2295 4.30253 33.3695 7.02253 34.4195C7.94961 34.7332 8.82562 35.1813 9.62253 35.7495C10.1834 36.2051 10.7176 36.6926 11.2225 37.2095C13.5225 39.3595 14.3725 39.7295 14.7425 39.8795C15.3273 40.0741 15.9304 40.2082 16.5425 40.2795C18.2949 40.6947 20.1201 40.6947 21.8725 40.2795C22.8725 39.9695 23.1925 39.6395 25.1325 39.0095C25.6474 38.8237 26.1862 38.7125 26.7325 38.6795C27.4786 38.6631 28.2221 38.7713 28.9325 38.9995C30.7825 39.3495 32.6125 37.7495 34.9325 35.7395C35.7425 35.0395 36.3825 34.3795 36.9325 33.8395C37.9325 32.7695 38.8125 31.7695 39.2025 31.2695C40.7198 29.1238 41.8377 26.722 42.5025 24.1795V24.1795Z" fill="#0C8EB3"/>
  <path d="M42.4526 19.5195V19.5795C42.4526 25.9395 40.4526 28.9195 38.9226 30.4195C37.6926 31.6095 37.1026 31.5195 33.8626 34.2195C31.0726 36.5395 30.6126 37.3595 29.0026 37.7495C27.0026 38.2195 26.5626 37.2995 24.0026 37.8795C22.2326 38.2795 22.0026 38.8095 20.2726 39.0795C18.963 39.2873 17.6244 39.2192 16.3426 38.8795C14.3426 38.2895 13.5526 37.1295 11.6826 35.5495C8.7326 33.0495 7.30261 33.1195 5.56261 31.7595C3.56261 30.1795 1.4326 26.9295 1.4126 19.5195H10.2826C11.1426 20.6995 11.9626 22.0595 13.0726 23.4295C13.9826 24.5595 18.4826 30.1095 24.5926 30.8195C30.0426 31.4595 35.9626 28.1395 38.9026 23.0995C39.5554 21.9773 40.0564 20.7735 40.3926 19.5195H42.4426H42.4526Z" fill="#AADBEB"/>
  <path d="M39.8426 16.2491C39.7426 16.5291 38.7426 19.1891 36.4526 19.8391C34.4526 20.3991 32.8926 19.0491 28.5926 16.3091C23.2726 12.9191 20.5926 11.2291 19.0126 11.1191C14.7826 10.8291 13.1326 13.9491 8.22263 13.3191C6.72113 13.1131 5.27227 12.6245 3.95264 11.8791V11.8791C5.7092 8.78905 8.23258 6.20386 11.2793 4.37308C14.326 2.5423 17.7931 1.52773 21.3461 1.42722C24.8991 1.32671 28.4181 2.14367 31.5634 3.79929C34.7087 5.45491 37.3742 7.89329 39.3026 10.8791V10.8791C39.7665 11.6854 40.0545 12.5808 40.1476 13.5063C40.2407 14.4319 40.1367 15.3666 39.8426 16.2491V16.2491Z" fill="#EBF6FA"/>
  <path d="M16.3926 13.9994C16.4926 13.5394 18.5926 13.3993 20.2926 14.0493C21.9926 14.6993 23.4726 16.2394 23.2326 16.6494C22.7926 17.4294 16.2226 14.8794 16.3926 13.9994Z" fill="#AFDDEF"/>
  <path d="M14.7526 15.9997C14.6126 16.1697 15.4926 17.3897 16.8426 18.0997C18.7126 19.0997 20.8426 18.7397 20.8926 18.4897C20.9426 18.2397 19.6626 18.2497 17.5426 17.3497C15.7226 16.5497 14.8726 15.8297 14.7526 15.9997Z" fill="#E7F5FB"/>
  <path d="M25.5325 18.9192C25.5325 19.1792 26.5325 19.4592 27.2825 19.0692C28.0325 18.6792 28.2825 17.8592 28.1325 17.6792C27.9825 17.4992 27.5725 17.7892 26.6825 18.2292C25.7925 18.6692 25.5125 18.7992 25.5325 18.9192Z" fill="#E7F5FB"/>
  <path d="M8.06259 27.3095C7.51259 27.6595 5.49257 26.3595 5.11257 24.5195C4.82257 23.1395 5.47259 21.5195 6.06259 21.5195C6.65259 21.5195 7.23257 23.1395 7.61257 24.2695C7.99257 25.3995 8.52259 26.9995 8.06259 27.3095Z" fill="#E7F5FB"/>
  <path d="M9.10252 29.6596C9.26252 30.4596 10.2525 30.8096 10.5025 30.6596C10.7525 30.5096 10.1325 28.4796 9.60252 28.5096C9.30252 28.4696 8.99252 29.1096 9.10252 29.6596Z" fill="#E7F5FB"/>
  <path d="M11.1026 32.7998C13.548 34.0585 16.1512 34.9834 18.8426 35.5498C21.9568 36.0328 25.1293 35.999 28.2326 35.4498C28.2326 35.6398 23.8526 37.3298 18.6926 36.3498C14.1826 35.4898 11.0226 32.9998 11.1026 32.7998Z" fill="#E7F5FB"/>
</svg>
