<svg width="27" height="27" viewBox="0 0 27 27" fill="none" xmlns="http://www.w3.org/2000/svg">
<path d="M26.1 15.7803V20.0903C26.1 21.6816 25.4678 23.2077 24.3426 24.3329C23.2174 25.4581 21.6913 26.0903 20.1 26.0903H6.90998C5.31868 26.0903 3.79255 25.4581 2.66733 24.3329C1.54211 23.2077 0.909973 21.6816 0.909973 20.0903V15.7803C0.909973 17.3716 1.54211 18.8977 2.66733 20.0229C3.79255 21.1481 5.31868 21.7803 6.90998 21.7803H20.1C21.6913 21.7803 23.2174 21.1481 24.3426 20.0229C25.4678 18.8977 26.1 17.3716 26.1 15.7803Z" fill="#0C8EB3"/>
<path d="M0.900024 15.7803C0.900024 16.5703 0.960024 19.5303 2.29002 21.1803C2.47002 21.4003 2.82002 21.7803 3.14002 22.1003C4.14002 23.1603 4.71002 23.6803 5.25002 23.7703C6.19002 23.9303 6.45002 23.1303 8.00002 23.1203C8.38507 23.1295 8.76917 23.1629 9.15002 23.2203C10.34 23.3503 10.72 23.4703 11.15 23.5203C12.55 23.6703 12.75 23.0003 14.15 22.9103C15.92 22.8103 16.08 23.8503 17.82 23.7903C19.13 23.7403 19.17 23.1503 21.1 22.7903C22.86 22.4503 23.31 22.8503 24.1 22.5203C25.02 22.1103 26 20.7803 26.04 16.5203L0.900024 15.7803Z" fill="#2B7A9F"/>
<path d="M6.90998 0.900391H20.09C21.6813 0.900391 23.2074 1.53253 24.3326 2.65775C25.4578 3.78296 26.09 5.30909 26.09 6.90039V15.7704C26.09 17.3617 25.4578 18.8878 24.3326 20.013C23.2074 21.1382 21.6813 21.7704 20.09 21.7704H6.90998C5.31868 21.7704 3.79255 21.1382 2.66733 20.013C1.54211 18.8878 0.909973 17.3617 0.909973 15.7704V6.8904C0.912622 5.30083 1.54593 3.77728 2.67086 2.65422C3.7958 1.53116 5.32041 0.900388 6.90998 0.900391Z" fill="#D7EEF7"/>
<path d="M26.1 13.2303V15.7603C26.1 17.3516 25.4678 18.8777 24.3426 20.003C23.2174 21.1282 21.6913 21.7603 20.1 21.7603H6.90998C5.31868 21.7603 3.79255 21.1282 2.66733 20.003C1.54211 18.8777 0.909973 17.3516 0.909973 15.7603V10.6003C1.58348 10.1967 2.35482 9.98574 3.13997 9.99031C5.13997 9.99031 6.26997 11.5403 8.66997 13.6003C10.16 15.0311 11.843 16.2462 13.67 17.2103C15.04 17.8503 18.6 19.5203 22 17.9203C23.9122 16.9338 25.3778 15.2572 26.1 13.2303V13.2303Z" fill="#AADBEB"/>
<path d="M26.1 14.0697V16.5997C25.59 20.1097 24.53 21.2597 23.58 21.5997C22.63 21.9397 22.27 21.4897 20.58 21.8197C18.89 22.1497 18.79 22.6397 17.58 22.7097C16.06 22.8097 16.01 22.0797 14.16 21.9097C12.31 21.7397 12.32 22.3997 10.16 22.2697C9.37408 22.1353 8.57724 22.075 7.78002 22.0897C6.58002 22.2297 6.20002 22.5897 5.40002 22.3597C4.81136 22.1422 4.27605 21.8012 3.83002 21.3597C3.35534 20.9701 2.91688 20.5383 2.52002 20.0697C1.73846 19.0676 1.22253 17.8844 1.02002 16.6297V11.4697C8.00002 19.1097 16.71 21.7997 22 18.7597C23.8312 17.6728 25.2676 16.0297 26.1 14.0697V14.0697Z" fill="#AADBEB"/>
<path d="M20.1 0.899994C21.6913 0.899994 23.2174 1.53213 24.3426 2.65735C25.4679 3.78257 26.1 5.30869 26.1 6.89999V20.1C26.1 21.6913 25.4679 23.2174 24.3426 24.3426C23.2174 25.4679 21.6913 26.1 20.1 26.1H6.91C5.3187 26.1 3.79258 25.4679 2.66736 24.3426C1.54214 23.2174 0.91 21.6913 0.91 20.1V6.89999C0.91 5.30869 1.54214 3.78257 2.66736 2.65735C3.79258 1.53213 5.3187 0.899994 6.91 0.899994H20.1ZM20.1 0H6.91C5.0799 0.00263703 3.32535 0.730126 2.03033 2.02327C0.735317 3.31641 0.00528743 5.06989 0 6.89999V20.1C0.00528743 21.9301 0.735317 23.6836 2.03033 24.9767C3.32535 26.2699 5.0799 26.9974 6.91 27H20.1C21.9292 26.9974 23.6827 26.2695 24.9761 24.9761C26.2695 23.6827 26.9974 21.9292 27 20.1V6.89999C26.9974 5.07081 26.2695 3.31731 24.9761 2.02388C23.6827 0.730452 21.9292 0.00264524 20.1 0V0Z" fill="#3DB5B6"/>
<path d="M1.60999 16.7197C2.14816 17.865 2.97103 18.8531 3.99998 19.5897C5.3499 20.4402 6.9257 20.8621 8.51998 20.7997C8.51998 20.8897 4.33998 21.5097 2.51998 19.2497C1.9577 18.5233 1.63922 17.6379 1.60999 16.7197V16.7197Z" fill="#E7F5FB"/>
<path d="M10.62 19.7201C10.82 19.9801 11.18 19.9401 12.44 19.9301C13.38 19.9301 13.44 19.9301 13.44 19.9301C13.44 19.7101 10.83 18.6801 10.44 19.2201C10.42 19.3119 10.4262 19.4076 10.4581 19.496C10.4899 19.5844 10.546 19.6621 10.62 19.7201V19.7201Z" fill="#E7F5FB"/>
<path d="M16 17.3596C16 17.5396 17.11 18.2096 18.43 18.2096C19.37 18.2096 20.27 17.8596 20.25 17.6996C20.23 17.5396 19.9 17.5896 18.16 17.4596C16.23 17.3196 16 17.2896 16 17.3596Z" fill="#E7F5FB"/>
<path d="M10.38 8.08962C10.38 7.76962 11.61 7.49963 12.57 7.57963C14.13 7.69963 15.46 8.76962 15.34 9.09962C15.13 9.65962 10.36 8.69962 10.38 8.08962Z" fill="#AFDDEF"/>
<path d="M16.77 9.00017C16.28 8.63017 15.96 7.95016 16.13 7.79016C16.43 7.48016 18.55 8.79017 18.41 9.19017C18.33 9.42017 17.41 9.49017 16.77 9.00017Z" fill="#E7F5FB"/>
<path d="M26 6.90039V7.60039C25.56 8.89039 24.79 10.5004 23.46 10.8004C22.13 11.1004 21.46 10.0404 18.86 8.5504C16.43 7.1704 14.98 6.35039 13.04 6.21039C10.63 6.03039 10.44 7.11039 7.03999 7.02039C5.90831 6.93398 4.77168 6.93398 3.63999 7.02039C2.72647 7.10078 1.82047 7.25124 0.929993 7.4704V6.90039C0.929993 5.30909 1.56214 3.78296 2.68736 2.65775C3.81257 1.53253 5.33869 0.900391 6.92999 0.900391H20.06C21.6409 0.9162 23.1516 1.55531 24.2639 2.67882C25.3762 3.80233 26.0001 5.31943 26 6.90039Z" fill="#EBF6FA"/>
<path d="M10.66 8.99994C10.56 9.11994 11.14 9.99993 12.06 10.4599C12.6071 10.7291 13.2115 10.8615 13.8211 10.8459C14.4307 10.8302 15.0273 10.6669 15.56 10.3699C14.6914 10.3786 13.825 10.2813 12.98 10.0799C11.54 9.63994 10.76 8.86994 10.66 8.99994Z" fill="#E7F5FB"/>
</svg>
