<svg width="316" height="111" viewBox="0 0 316 111" fill="none" xmlns="http://www.w3.org/2000/svg">
  <rect width="316" height="111" rx="9" fill="#FEBA6A"/>
  <path d="M263.465 85.627C276.997 84.2237 292.787 82.1926 316 80V111H306.5H0V48C34.564 46.2898 21 48 43 48C65 48 142.491 64.7974 176.342 75.7604C191.494 80.6827 210.824 87.6551 237.787 87.6003C244.95 87.5894 249.424 87.0851 263.465 85.627Z" fill="#E9B33A"/>
  <path d="M0 58C7 55.5 22.6589 53.0806 41.7459 55.9216C75.3029 60.8818 86.47 68.4499 129.63 79.8171C156.882 86.9945 176.73 90.3953 176.669 90.8194C176.608 91.2435 154.203 88.1037 127.744 81.9092C87.2137 72.4143 71.1833 63.822 39.7791 60.1882C31.258 59.2064 13.7907 60.0937 2.76075e-05 64.0001L0 58Z" fill="#F1CB45"/>
  <path d="M316 11.8149V46.4999C302.131 36.0647 289.833 28.0798 273.553 21.7926C217.621 0.338421 202.02 25.9739 116.12 13.4299C90.7468 9.72648 59.0257 2.65806 16.7174 11.5583C8.28016 13.3105 4.45297 14.5449 0 15.9586V11.5583V-6.86646e-05H9.61503H306.395H316V11.8149Z" fill="#F5A53C"/>
  <path d="M310 29C309.265 25.3687 307.393 21.925 304.541 18.9595C296.729 10.8997 282.566 7.72303 263.345 6.00898C229.56 2.9618 216.93 7.70017 172.308 8.62957C144.133 9.21615 124.04 7.86777 124 8.29437C123.96 8.72098 146.476 10.9226 173.65 11.1054C215.277 11.3797 232.876 6.78602 264.256 10.6179C272.77 11.6615 286.242 13.7945 298.732 20.8259C302.927 23.1774 306.713 25.924 310 29V29Z" fill="#F5B841"/>
  <path d="M-6.10352e-05 81.6519V97V111H9.60483H306.385H316V96.792V55.3192H305.753C271.189 53.609 265.055 53.2582 261.937 53.1266C220.861 51.4604 174.134 66.5944 140.334 77.5415L139.658 77.7604C124.506 82.6827 105.176 89.6551 78.2133 89.6003C71.0498 89.5894 66.5764 89.0851 52.5348 87.627C39.0026 86.2237 23.2125 83.8445 -6.10352e-05 81.6519Z" fill="#F9D738"/>
  <path d="M291.959 59.9806C282.963 55.6694 273.825 66.5062 253.635 74.3513C235.108 81.5819 221.431 80.678 204.324 81.4011C182.16 82.3049 148.517 85.9202 99 98.2121C133.357 92.3011 160.854 93.0603 179.936 94.9584C199.017 96.8564 214.105 100.336 243.183 100.924C291.405 101.9 297.837 93.2682 299.731 89.8066C304.984 80.2081 300.589 64.102 291.959 59.9806Z" fill="#FAE447"/>
  <path d="M206.15 88.9956C229.52 89.3456 259.64 95.4156 271.1 88.2456C272.02 87.6656 276.1 84.9556 277.02 85.8856C277.94 86.8156 275.75 90.0256 275.45 90.4956C269.57 99.7756 237.45 95.8156 206.45 93.6456C193.9 92.7356 183 92.2456 174.2 91.9956C184.712 89.8544 195.423 88.8486 206.15 88.9956V88.9956Z" fill="#FBF39F"/>
  <path fill-rule="evenodd" clip-rule="evenodd" d="M316 23.2055C315.828 22.3827 315.655 21.56 315.482 20.7374C315.005 18.4704 314.412 16.2033 313.814 13.922C313.486 12.6697 313.157 11.4132 312.846 10.15C312.783 9.92596 312.811 9.68596 312.925 9.48283C313.903 8.31145 314.898 7.15646 315.957 5.92715C315.971 5.91034 315.986 5.89351 316 5.87666V3.87711C315.297 3.96706 314.59 4.05109 313.868 4.13681C313.343 4.19919 312.81 4.26247 312.266 4.32961C312.653 2.98643 313.259 2.16121 314.682 1.91541C315.123 1.815 315.562 1.70822 316 1.59508V0H305.486C304.975 0.290329 304.123 0.323532 302.547 0.352753C302.589 0.251648 302.63 0.151703 302.67 0.0527954C302.677 0.0351715 302.685 0.0175629 302.692 0H300.527C300.492 0.120514 300.457 0.241013 300.421 0.361526C300.359 0.537109 300.175 0.774139 300.017 0.800476C299.022 0.964935 297.989 1.11459 296.879 1.27531C296.507 1.32909 296.127 1.38411 295.737 1.44135L295.755 1.41501C295.966 0.963837 296.166 0.53421 296.358 0.119202C296.376 0.0793304 296.395 0.0395966 296.413 0H293.697C293.51 0.530746 293.324 1.05301 293.139 1.57526L293.136 1.5818C293.092 1.6703 293.029 1.74821 292.951 1.8103C292.874 1.87239 292.784 1.91721 292.688 1.94174C292.242 2.04372 291.786 2.12256 291.25 2.21524C291.048 2.2502 290.834 2.28712 290.606 2.328C290.737 1.99863 290.864 1.67448 290.989 1.35526C291.171 0.89357 291.348 0.442154 291.527 0H288.6C288.591 0.0288239 288.582 0.0576477 288.574 0.0864716C288.336 0.864914 288.097 1.64474 287.864 2.42458C287.836 2.52255 287.786 2.61325 287.72 2.69049C287.653 2.76775 287.57 2.82976 287.477 2.8723C286.974 2.9921 286.462 3.08739 285.872 3.19719C285.598 3.24831 285.306 3.30257 284.991 3.36392C285.337 2.61996 285.651 1.96593 285.95 1.34441C286.099 1.03448 286.245 0.732635 286.388 0.431763V0.440536C286.462 0.292053 286.539 0.145676 286.615 0H283.648C283.203 1.16473 282.752 2.33075 282.275 3.48683C282.223 3.60599 282.144 3.71191 282.045 3.79694C281.947 3.88197 281.83 3.94398 281.704 3.97845C280.985 4.14017 280.266 4.27327 279.46 4.42238C279.084 4.49182 278.69 4.56474 278.269 4.64565C278.38 4.41573 278.491 4.18813 278.601 3.96263C279.274 2.57854 279.909 1.27379 280.547 0H277.323C276.666 1.63802 276.009 3.26489 275.351 4.84756C275.247 5.07863 274.832 5.20844 274.483 5.31758C274.421 5.33699 274.361 5.35574 274.306 5.3743C273.886 5.47829 273.461 5.55453 273.031 5.60255C273.178 5.32599 273.318 5.05946 273.455 4.80058C273.86 4.03226 274.23 3.33131 274.604 2.63527C274.81 2.25035 275.023 1.86938 275.235 1.48904C275.512 0.994034 275.788 0.500107 276.047 0H265.985C264.603 3.98245 263.221 7.96275 261.837 11.9409C261.758 12.1692 261.696 12.415 261.626 12.652C261.099 14.5132 260.703 14.7765 258.585 14.68V14.6624C258.964 13.4987 259.36 12.3415 259.755 11.1852C260.279 9.65479 260.803 8.12598 261.283 6.58578C261.963 4.40475 262.639 2.22107 263.159 0H258.398C257.084 3.74255 256.001 7.56622 255.158 11.4493C253.439 18.8098 252.284 26.2907 251.705 33.8268C251.808 33.6916 251.899 33.5477 251.978 33.3967C252.361 32.301 252.741 31.2054 253.121 30.1098C253.692 28.4664 254.262 26.823 254.842 25.1796C255.923 22.0982 257.013 19.0343 258.128 15.9353C258.179 15.8062 258.259 15.6902 258.361 15.5959C258.462 15.5017 258.584 15.4317 258.717 15.3911C259.402 15.3557 260.088 15.3557 260.773 15.3911C260.79 15.5692 260.79 15.7485 260.773 15.9266C260.656 16.5513 260.527 17.1741 260.398 17.7965C260.133 19.0811 259.867 20.3642 259.701 21.6592C259.57 22.7039 259.157 23.1604 258.146 23.2482C257.791 23.3224 257.446 23.4373 257.118 23.5906V23.6784L259.332 23.573C259.332 23.836 259.352 24.0561 259.37 24.262C259.379 24.3654 259.388 24.4652 259.394 24.565C259.605 23.5379 260.316 23.4589 261.151 23.3887C263.098 23.233 265.028 23.0178 266.967 22.8017L267.056 22.7917C268.39 22.6462 269.724 22.4739 271.175 22.2866C271.387 22.2592 271.601 22.2315 271.819 22.2035V25.399H272.038L272.381 22.1157L278.602 21.0798C278.602 21.3219 278.63 21.5261 278.653 21.6945C278.666 21.7948 278.678 21.8823 278.682 21.9577C278.755 21.8555 278.824 21.7276 278.893 21.5983C279.037 21.3279 279.185 21.0514 279.393 20.992C280.635 20.6802 281.896 20.4357 283.159 20.1909C283.602 20.1049 284.046 20.0188 284.49 19.9298C279.196 22.3285 274.065 25.0704 269.13 28.1381C264.464 31.0351 256.248 36.917 254.877 38.5235C261.464 34.6016 268.284 31.0835 275.298 27.9888C266.582 32.8962 258.788 38.8747 252.689 47.1708C253.43 46.5165 254.144 45.8671 254.846 45.2288C256.225 43.9745 257.557 42.763 258.954 41.6401C265.8 36.162 273.532 32.2115 281.634 28.9896C285.365 27.5021 289.131 26.0888 292.896 24.6757C295.064 23.8621 297.232 23.0486 299.393 22.2211C300.29 21.8748 301.17 21.4846 302.095 21.074C302.6 20.8495 303.12 20.619 303.663 20.3863C303.268 20.9895 302.88 21.5647 302.501 22.1255C301.778 23.197 301.091 24.2158 300.456 25.2761C300.287 25.6152 300.022 25.8973 299.694 26.0876C299.366 26.2779 298.989 26.3682 298.611 26.3472C297.776 26.3829 296.946 26.4976 296.133 26.6895C291.191 27.806 286.432 29.6117 281.994 32.0535C273.888 36.4665 266.236 41.6652 259.148 47.5746C257.824 48.6459 256.515 49.7328 255.206 50.8196C254.553 51.3627 253.899 51.9058 253.243 52.4469L253.392 52.6752C267.78 43.3608 283.007 35.56 298.245 27.7537L298.848 27.4445C298.833 27.5277 298.812 27.6098 298.786 27.6903C298.319 28.4879 297.853 29.2862 297.387 30.0844C296.171 32.1679 294.955 34.2508 293.716 36.32C293.515 36.5501 293.231 36.692 292.925 36.7151C292.328 36.7751 291.725 36.8102 291.123 36.8451C290.054 36.9073 288.987 36.9693 287.952 37.1716C280.998 38.6395 274.436 41.5659 268.699 45.7574C261.863 50.5419 256.178 56.3974 252.311 63.8771C252.231 64.0321 252.163 64.1958 252.093 64.3652C252.064 64.4357 252.035 64.5072 252.004 64.5794C252.533 63.9549 253.047 63.3255 253.558 62.6994C254.585 61.4419 255.602 60.1974 256.705 59.0311C262.346 53.0439 269.227 48.8037 276.564 45.257C279.999 43.6037 283.452 42.0218 286.923 40.4318C288.317 39.7929 289.715 39.1527 291.115 38.506C291.572 38.294 292.014 38.0443 292.536 37.7502C292.727 37.6424 292.928 37.5287 293.145 37.4086C293.035 37.623 292.928 37.8321 292.823 38.0365C292.259 39.1376 291.764 40.1041 291.238 41.0519C291.084 41.2583 290.864 41.4067 290.614 41.4733C290.095 41.6539 289.555 41.8017 289.015 41.9495C287.902 42.2543 286.79 42.5588 285.861 43.15C281.968 45.6081 278.146 48.1979 274.437 50.9633C265.157 57.8337 256.731 65.7883 249.341 74.6576C248.59 75.5772 247.87 76.5153 247.146 77.4574C246.551 78.2331 245.953 79.0115 245.334 79.7845L245.545 79.9601L246.424 78.9593C246.506 78.8753 246.587 78.7913 246.668 78.7075C246.91 78.4583 247.15 78.2103 247.399 77.9673C254.118 71.4145 261.273 65.3227 268.814 59.7334C274.965 55.063 281.063 50.4102 286.731 45.1692C287.545 44.415 288.421 43.7221 289.297 43.0291C289.706 42.7057 290.115 42.3823 290.518 42.0527C289.323 44.9761 288.022 47.8029 286.713 50.6209C286.577 50.8101 286.383 50.949 286.159 51.016C284.369 51.5705 282.626 52.2693 280.949 53.1053C272.344 58.2543 264.324 64.321 257.03 71.1987C251.17 76.6114 246.532 83.2108 243.428 90.5563C243.276 90.923 243.143 91.278 243.003 91.6501C242.972 91.7323 242.941 91.8153 242.909 91.8994C248.489 83.0591 251.248 79.6089 258.128 74.0607C261.219 71.5869 264.381 69.1857 267.546 66.7831C269.996 64.9225 272.448 63.061 274.868 61.1644C276.988 59.506 279.042 57.7554 281.098 56.0027C281.949 55.278 282.799 54.553 283.655 53.834C284.237 53.3511 284.8 52.8528 285.395 52.3263C285.698 52.0583 286.009 51.783 286.335 51.4988C286.061 52.1795 285.794 52.8477 285.531 53.5064C284.857 55.1923 284.208 56.8156 283.532 58.4254C283.449 58.5791 283.336 58.7139 283.198 58.8212C283.06 58.9285 282.902 59.006 282.732 59.0487C278.241 60.2184 274.062 62.3614 270.492 65.3256C260.693 73.2302 252.413 82.847 246.055 93.7079C245.81 94.1207 245.583 94.5435 245.355 94.9661C245.215 95.2265 245.074 95.4868 244.93 95.7446C250.361 88.9423 256.332 82.5891 262.786 76.747C269.146 70.8174 275.854 65.271 282.873 60.1373C282.854 60.2072 282.836 60.2805 282.818 60.3555C282.776 60.5253 282.732 60.7042 282.671 60.8747C282.461 61.492 282.244 62.1067 282.026 62.7213C281.532 64.1172 281.038 65.512 280.641 66.9322C280.263 68.2578 279.762 69.2322 278.26 69.3815C278.08 69.4296 277.906 69.4973 277.741 69.5834C274.411 71.0738 271.338 73.0828 268.638 75.5355C260.106 82.7606 252.601 90.8899 246.899 100.564C246.301 101.567 245.757 102.602 245.212 103.636C244.956 104.124 244.7 104.611 244.438 105.094C249.315 98.6092 254.832 92.63 260.905 87.2466C262.862 85.4473 264.818 83.648 266.77 81.8524C271.085 77.8834 275.381 73.9325 279.622 70.0399C279.519 70.3999 279.407 70.7768 279.292 71.1665C278.982 72.2115 278.645 73.3486 278.383 74.4996C278.337 74.9207 278.169 75.3191 277.899 75.6453C277.628 75.9715 277.268 76.2112 276.863 76.3344C276.233 76.5722 275.641 76.9005 275.105 77.3089C270.888 80.2171 267.158 83.7725 264.051 87.8436C258.445 94.9318 253.782 102.715 250.179 111H251.113C255.22 104.578 259.736 98.4238 264.631 92.5754C266.686 90.113 268.764 87.6672 270.842 85.2209C272.469 83.3064 274.095 81.3917 275.711 79.4685C276.167 78.9309 276.586 78.3575 277.048 77.727C277.272 77.4205 277.506 77.1005 277.759 76.7646C277.612 77.4047 277.468 78.0287 277.326 78.641C276.923 80.38 276.542 82.0244 276.204 83.6736C276.164 84.2331 275.968 84.7704 275.639 85.2249C275.31 85.6794 274.86 86.033 274.341 86.2458C271.107 87.7119 268.647 90.2578 266.327 92.8915C261.574 98.3142 258.071 104.479 255.184 111H257.581C258.727 109.146 259.908 107.316 261.16 105.533C264.341 101.009 267.733 96.6401 271.152 92.2361C272.616 90.3502 274.085 88.4579 275.545 86.5443C275.545 86.8164 275.545 86.9832 275.492 87.15C275.391 87.7424 275.285 88.3341 275.178 88.9254C274.924 90.3408 274.67 91.7544 274.49 93.1724C274.297 94.6824 274.103 96.0607 272.205 96.245C272.163 96.245 272.13 96.2696 272.093 96.2964C272.076 96.3088 272.058 96.3217 272.038 96.3328C269.543 97.8387 267.472 99.9533 266.019 102.478C264.3 105.211 262.97 108.071 261.915 111H265.149C265.196 110.91 265.243 110.82 265.29 110.73C267.064 107.362 269.069 104.094 271.072 100.829C271.967 99.3708 272.861 97.913 273.734 96.4469L273.963 96.5698C273.932 96.9148 273.899 97.2569 273.866 97.5944C273.842 97.8408 273.818 98.0848 273.796 98.3256H273.664C273.321 100.678 273.067 103.066 272.9 105.445C271.942 105.907 271.02 106.438 270.14 107.034C268.821 108.159 267.712 109.502 266.858 111H270.494C271.356 109.254 272.158 107.739 272.821 106.525C272.729 108.01 272.672 109.505 272.648 111H272.936C272.959 109.587 273.012 108.174 273.093 106.762C273.364 108.178 273.653 109.59 273.951 111H276.864C276.657 110.525 276.435 110.054 276.195 109.589C275.513 108.35 274.697 107.19 273.761 106.13C273.716 106.075 273.671 106.022 273.627 105.971C273.371 105.672 273.157 105.422 273.225 104.98C273.229 104.966 273.229 104.951 273.225 104.936C273.392 102.733 273.638 100.547 273.954 98.3344H273.945L273.947 98.3246C274.052 97.6958 274.157 97.0671 274.253 96.4557C274.567 97.1831 274.875 97.9087 275.183 98.6319C275.822 100.134 276.456 101.626 277.126 103.101C278.296 105.646 279.23 108.29 279.917 111H282.97C282.952 110.837 282.935 110.674 282.917 110.511C282.492 106.43 280.981 102.538 278.541 99.2386C277.563 97.8004 276.259 96.6125 274.736 95.771C274.615 95.6608 274.521 95.5243 274.462 95.372C274.403 95.2198 274.379 95.0559 274.393 94.8931C274.596 93.3655 274.85 91.838 275.123 90.3192C275.331 89.1598 275.539 88.1335 275.75 87.0878C275.816 86.7637 275.882 86.4377 275.949 86.1053L276.291 86.0263C276.626 86.7938 276.978 87.5561 277.329 88.3186C278.11 90.016 278.892 91.7142 279.499 93.4709C280.396 96.0791 281.164 98.7303 281.932 101.382C282.263 102.524 282.593 103.666 282.935 104.804C283.224 105.776 283.503 106.752 283.783 107.728C284.095 108.819 284.407 109.911 284.735 111H287.109C287.027 110.532 286.948 110.065 286.871 109.598C286.711 108.734 286.55 107.871 286.388 107.008C286.078 105.355 285.768 103.703 285.474 102.048C284.855 97.8545 283.498 93.8035 281.467 90.0822C280.237 87.9665 278.717 86.1141 276.01 85.5347C276.737 82.4796 277.463 79.4304 278.189 76.3871L278.444 76.3432C279.206 77.6074 279.875 78.9248 280.448 80.2849C281.889 84.4812 283.268 88.7039 284.534 92.9617C284.839 93.9928 285.133 95.0275 285.426 96.0622C286.582 100.128 287.737 104.195 289.551 108.044C289.895 108.79 290.289 109.499 290.681 110.201C290.75 110.325 290.818 110.449 290.887 110.572C290.967 110.715 291.048 110.858 291.129 111H292.192C292.124 110.814 292.056 110.627 291.988 110.441C291.372 108.749 290.755 107.057 290.342 105.314C289.744 102.773 289.27 100.201 288.795 97.6278C288.53 96.1905 288.265 94.7533 287.978 93.3216C287.633 91.5639 287.22 89.8128 286.804 88.0509C286.744 87.7977 286.685 87.5442 286.625 87.2905C286.89 87.7849 287.152 88.2786 287.414 88.7711C288.142 90.1414 288.865 91.502 289.621 92.8388C290.65 94.656 291.704 96.4206 292.811 98.1676C293.918 99.9146 295.105 101.679 296.326 103.435C297.17 104.648 298.06 105.731 298.952 106.817C299.352 107.303 299.752 107.79 300.148 108.29L300.342 108.14C300.273 108.027 300.204 107.914 300.134 107.801C299.918 107.448 299.7 107.092 299.507 106.727C294.358 97.1229 289.841 87.2642 286.915 76.7207C285.843 72.8843 284.455 69.1269 281.203 66.3879C281.644 65.1351 282.092 63.8741 282.568 62.534C282.786 61.9207 283.01 61.2909 283.242 60.6377L303.452 102.381C303.459 102.338 303.459 102.293 303.452 102.25C300.509 91.7151 297.424 81.2243 292.46 71.4182C290.263 67.0814 287.803 62.8763 283.391 60.1285L287.267 50.7789C288.906 59.0869 291.513 67.1747 295.034 74.8771C298.294 82.3129 305.526 95.6042 307.073 97.0615C307.044 96.9668 307.026 96.89 307.01 96.8215C306.996 96.7628 306.983 96.7102 306.967 96.6576C306.273 94.4601 305.581 92.2645 304.889 90.069C303.504 85.6774 302.12 81.2859 300.72 76.8787C300.487 76.1487 300.256 75.4181 300.025 74.6873C298.283 69.1785 296.541 63.667 294.12 58.4429C292.618 55.1684 291.089 51.8587 287.697 49.8132L291.88 41.2275C292.302 42.5794 292.644 43.668 292.987 44.739C294.463 49.4562 295.928 54.1676 297.381 58.8731C297.525 59.3358 297.67 59.7986 297.814 60.2613C299.667 66.199 301.518 72.1289 304.208 77.7566C304.938 79.2914 305.765 80.7749 306.589 82.2514C306.896 82.8017 307.203 83.3511 307.503 83.9018L307.776 83.7789C306.013 78.2535 305.107 72.5615 304.201 66.8749C303.988 65.5322 303.774 64.1898 303.549 62.85C305.927 68.0647 308.312 73.2764 310.702 78.4852L310.957 78.3887L309.542 73.4812H309.621L311.87 77.2913C311.69 76.4706 311.413 75.7 311.139 74.9387C311 74.5518 310.861 74.1673 310.737 73.7797C308.935 67.6758 307.575 61.45 306.668 55.1508C306.363 53.2508 306.071 51.3498 305.779 49.4491C305.171 45.4923 304.563 41.5366 303.839 37.593C303.335 33.9148 302.199 30.351 300.482 27.0583C300.439 26.9846 300.413 26.9023 300.405 26.8174C300.398 26.7324 300.409 26.6468 300.438 26.5666C301.281 25.2489 302.144 23.9384 302.978 22.674L303.242 22.2737C303.366 23.5736 303.482 24.8709 303.598 26.166C303.85 28.9733 304.1 31.7708 304.437 34.5642C305.358 42.5158 307.047 50.3597 309.48 57.9864C311.104 62.9389 313.09 67.7 316 71.9649V69.5832C315.859 69.2856 315.722 68.9874 315.587 68.688C313.719 64.2082 312.351 59.5358 311.51 54.7558C310.732 50.904 310.024 47.0388 309.316 43.1736C308.745 40.0527 308.173 36.9319 307.565 33.818C306.774 29.7622 305.878 25.7151 303.971 21.984C303.919 21.8805 303.892 21.7662 303.892 21.6504C303.892 21.5346 303.919 21.4204 303.971 21.3168C304.734 20.2121 305.518 19.1124 306.295 18.0212C306.555 17.6556 306.815 17.2909 307.073 16.9274C307.175 17.7578 307.26 18.5882 307.345 19.4148C307.529 21.2097 307.711 22.9864 308.066 24.7055C309.226 30.3855 310.526 36.0391 311.835 41.7015C312.918 46.3802 314.233 50.9838 316 55.4165V45.8196C315.602 43.8199 315.23 41.8135 314.859 39.8066L314.779 39.3751C313.569 32.4002 311.64 25.569 309.023 18.9904C308.892 18.6705 308.709 18.3441 308.527 18.0188C308.15 17.3441 307.775 16.674 307.864 16.0758C307.956 15.4551 308.522 14.843 309.088 14.2304C309.331 13.968 309.574 13.7055 309.779 13.4421C310.247 12.8429 310.72 12.2495 311.181 11.6722C311.517 11.2515 311.846 10.8394 312.16 10.4397C311.846 20.2841 313.219 29.5996 316 38.475V23.2055ZM284.574 81.8098C284.744 82.1389 284.921 82.4794 285.114 82.8308L281.168 67.0639H280.984C280.408 68.9863 279.829 70.9049 279.266 72.7688C278.978 73.7222 278.694 74.6614 278.418 75.5794C279.447 76.0803 280.432 76.6677 281.362 77.3352C282.179 78.0879 282.891 78.9472 283.479 79.8899C283.884 80.4784 284.216 81.1193 284.574 81.8098ZM292.208 40.5904C292.41 40.2183 292.611 39.8484 292.811 39.4804C293.714 37.8187 294.597 36.1944 295.474 34.5642C296.027 37.7949 296.563 40.9377 297.099 44.1157C295.866 42.47 294.16 41.2401 292.208 40.5904ZM301.954 47.363C301.674 46.6031 301.403 45.8398 301.131 45.0762C299.753 41.2013 298.372 37.3173 295.904 33.8356L299.771 27.506C300.142 34.1593 300.871 40.7878 301.954 47.363ZM294.159 5.54431C294.075 5.60046 294.005 5.67429 293.954 5.76057L293.936 5.78691C293.691 6.32169 293.477 6.87135 293.236 7.4882C293.156 7.69157 293.074 7.90225 292.987 8.1221C293.476 8.01871 293.956 7.91849 294.428 7.82001C295.878 7.51714 297.249 7.23076 298.576 6.91939C298.751 6.88428 298.927 6.60335 298.989 6.40143C299.088 6.06656 299.152 5.72731 299.228 5.32799C299.259 5.162 299.293 4.98564 299.331 4.79489C299.027 4.8335 298.727 4.87128 298.431 4.90858C297.044 5.08339 295.74 5.24765 294.437 5.43576C294.337 5.45111 294.242 5.48817 294.159 5.54431ZM304.006 4.0838L302.363 4.33838C300.676 4.59297 300.447 4.82123 300.228 6.62968C300.691 6.53702 301.151 6.44218 301.608 6.34785C302.449 6.17407 303.283 6.002 304.12 5.84836L304.143 5.8438C305.658 5.54106 305.702 5.53236 305.702 3.78531L304.006 4.0838ZM309.476 3.2428C309.24 3.37065 309.009 3.49561 308.786 3.49561C306.827 3.34637 306.598 3.48683 306.387 5.3743C306.732 5.3116 307.076 5.24191 307.419 5.17239C308.228 5.0083 309.032 4.84517 309.841 4.77734C311.229 4.65443 312.231 4.28571 312.16 2.52992C311.924 2.58176 311.687 2.62981 311.45 2.6778C310.964 2.77612 310.48 2.87421 310.008 3.004C309.828 3.05246 309.651 3.14842 309.476 3.2428ZM267.596 8.09552L267.715 7.59537L267.531 7.52515L264.359 13.767C264.796 13.7253 265.231 13.6549 265.659 13.5563C265.923 13.4772 266.309 13.3105 266.362 13.1085C266.793 11.4483 267.196 9.76631 267.596 8.09552ZM260.132 22.6425C260.741 22.4491 261.364 22.2994 261.995 22.1947V22.2123C264.016 22.0455 265.211 21.15 265.185 18.9553C265.233 18.4935 265.327 18.0376 265.466 17.5946C265.557 17.1199 265.646 16.6453 265.735 16.1666C265.791 15.8661 265.847 15.5641 265.905 15.2594C264.714 15.2272 264.147 15.2119 263.75 15.4649C263.389 15.6954 263.169 16.1488 262.751 17.0152C262.724 17.0678 262.663 17.1205 262.663 17.182L260.132 22.6425ZM265.123 21.1852L265.325 21.3783C265.384 21.3397 265.448 21.3038 265.511 21.2682C265.72 21.1507 265.925 21.0358 265.931 20.834C266.079 20.1826 266.159 19.5368 266.243 18.8564C266.264 18.6841 266.286 18.5095 266.309 18.332H266.177L265.123 21.1852ZM271.566 19.6247C271.649 19.5487 271.715 19.455 271.757 19.3504C271.906 18.3135 272.028 17.2983 272.151 16.2713C272.204 15.8374 272.256 15.4015 272.311 14.9609C272.074 14.9609 271.849 14.9672 271.632 14.9732C271.22 14.9847 270.837 14.9954 270.457 14.9609C270.142 14.8953 269.818 14.8964 269.503 14.9642C269.189 15.0321 268.893 15.1651 268.634 15.3546C268.375 15.5441 268.158 15.786 267.998 16.0645C267.838 16.343 267.739 16.6519 267.706 16.9713C267.474 17.9126 267.135 18.8283 266.773 19.8074C266.614 20.2346 266.452 20.6738 266.292 21.1325C268.128 20.6672 269.71 20.2282 271.274 19.7893C271.382 19.7569 271.482 19.7007 271.566 19.6247ZM269.486 12.8587C269.894 11.9953 270.285 11.1768 270.67 10.3716C271.106 9.45924 271.533 8.56386 271.968 7.63927C272.024 7.55457 272.098 7.48315 272.184 7.43005C272.271 7.37697 272.368 7.34351 272.469 7.332H274.42C274.355 7.5627 274.291 7.79318 274.227 8.0235C273.871 9.30069 273.517 10.5725 273.137 11.8444C273.107 11.9429 273.056 12.0339 272.988 12.1111C272.92 12.1884 272.836 12.2501 272.741 12.2921C272.14 12.4071 271.532 12.5096 270.877 12.62C270.439 12.694 269.979 12.7715 269.486 12.8587ZM278.839 17.5738C278.898 17.4915 278.938 17.3964 278.954 17.2961V17.261C279.058 16.5903 279.14 15.9111 279.228 15.1882C279.267 14.8702 279.306 14.5438 279.349 14.2059C279.043 14.2376 278.74 14.2688 278.441 14.2996C277.082 14.4394 275.786 14.5728 274.49 14.7239C274.391 14.7402 274.297 14.7787 274.215 14.8365C274.133 14.8942 274.064 14.9698 274.016 15.0575C273.706 16.0768 273.417 17.1059 273.102 18.2224C272.997 18.5964 272.889 18.9802 272.777 19.3767C273.058 19.3006 273.335 19.2258 273.608 19.1519C275.384 18.672 277.004 18.2343 278.611 17.7701C278.701 17.7234 278.779 17.6562 278.839 17.5738ZM275.191 11.7883C275.324 11.4674 275.454 11.1537 275.581 10.8456C276.07 9.66017 276.526 8.55692 277.003 7.43735C277.071 7.33652 277.159 7.2509 277.262 7.18591C277.365 7.12094 277.48 7.078 277.601 7.05986C278.427 6.98305 279.253 6.93425 280.124 6.88283C280.448 6.86371 280.777 6.84422 281.116 6.82281C281.041 7.0938 280.969 7.36165 280.897 7.62677C280.628 8.61565 280.37 9.5666 280.079 10.5012C280.018 10.6099 279.935 10.7044 279.835 10.7786C279.735 10.8527 279.62 10.9048 279.499 10.9314C278.892 11.059 278.274 11.1776 277.631 11.3011C276.863 11.4485 276.058 11.603 275.191 11.7883ZM284.771 16.0758C284.947 16.0231 285.219 15.8476 285.219 15.6895V15.6544C285.325 15.0593 285.379 14.4255 285.436 13.7473C285.446 13.6351 285.455 13.5217 285.465 13.407C285.182 13.4444 284.903 13.481 284.627 13.517C283.415 13.6755 282.271 13.8252 281.133 14.004C281.023 14.0358 280.922 14.0918 280.837 14.1677C280.752 14.2437 280.685 14.3377 280.641 14.4429C280.46 15.0243 280.292 15.6125 280.111 16.2503C280.002 16.6335 279.888 17.0346 279.762 17.4629C280.598 17.2279 281.388 17.0117 282.154 16.802C283.048 16.5573 283.91 16.3217 284.771 16.0758ZM282.118 10.4506C283.517 10.1541 284.688 9.90581 285.852 9.64085V9.60574C285.929 9.58893 286.002 9.55493 286.064 9.50632C286.126 9.45767 286.177 9.39566 286.212 9.32483C286.391 8.5739 286.544 7.82297 286.707 7.01689C286.752 6.79578 286.797 6.57053 286.845 6.33998C286.628 6.35854 286.414 6.3763 286.204 6.39377C285.419 6.45901 284.682 6.52026 283.989 6.60335C283.901 6.61069 283.815 6.63542 283.737 6.6761C283.658 6.7168 283.589 6.77263 283.532 6.84038C283.108 7.81683 282.697 8.80634 282.231 9.92708C282.156 10.1062 282.081 10.2886 282.003 10.4749L282.118 10.4506ZM286.361 15.6281L288.251 15.1189V15.0838C289.16 14.8312 289.61 14.7061 289.852 14.4106C290.09 14.1205 290.127 13.6662 290.201 12.7662C290.207 12.7545 290.194 12.739 290.163 12.7042C290.148 12.6866 290.128 12.664 290.105 12.6345C289.995 12.652 289.885 12.6694 289.776 12.6868C289.007 12.8088 288.238 12.9307 287.469 13.0998C287.348 13.1376 287.236 13.2011 287.142 13.286C287.048 13.3709 286.974 13.475 286.924 13.5914C286.782 13.9985 286.676 14.4135 286.555 14.8871C286.496 15.1182 286.434 15.3632 286.361 15.6281ZM288.22 9.12917C288.358 8.72028 288.481 8.34299 288.597 7.98489C288.764 7.47395 288.917 7.00206 289.085 6.53311C289.137 6.42004 289.213 6.31929 289.307 6.23756C289.401 6.15582 289.511 6.09499 289.63 6.05905C290.131 5.96292 290.64 5.90891 291.204 5.84918C291.412 5.82709 291.628 5.80421 291.853 5.77814C291.761 6.13191 291.676 6.47713 291.593 6.81438C291.471 7.314 291.352 7.79611 291.221 8.26257C291.191 8.34393 291.144 8.41806 291.084 8.4801C291.023 8.54213 290.95 8.59067 290.869 8.6225C290.382 8.73886 289.886 8.82654 289.345 8.92201C288.992 8.98436 288.62 9.05002 288.22 9.12917ZM298.066 11.0104L292.794 12.1165V12.0814C291.3 12.3974 291.107 12.6345 290.931 14.3727C291.538 14.2149 292.141 14.0495 292.742 13.8847C294.081 13.5175 295.41 13.1529 296.757 12.8803C297.846 12.6608 298.171 12.1165 298.066 11.0104ZM303.804 19.4294C303.997 19.4294 304.287 19.3943 304.384 19.2626V19.2274C304.792 18.6856 305.182 18.1377 305.596 17.5552C305.887 17.1468 306.19 16.7213 306.519 16.269L293.136 20.7199L293.189 20.8516C293.279 20.8649 293.371 20.8649 293.461 20.8516C296.83 19.9184 300.308 19.4401 303.804 19.4294ZM307.017 15.5134C307.095 15.4756 307.165 15.422 307.222 15.3559V15.3208C307.786 14.5961 308.343 13.8662 308.892 13.1463C309.36 12.5322 309.823 11.9253 310.28 11.3352L301.493 15.1891L301.882 15.2188C303.4 15.3343 305.083 15.4623 306.765 15.5754C306.852 15.5723 306.938 15.5512 307.017 15.5134ZM311.018 9.93935C311.28 9.89261 311.52 9.76341 311.703 9.57063V9.53552C312.117 9.0484 312.528 8.55928 312.939 8.07053C313.743 7.11469 314.545 6.16026 315.359 5.22507L315.262 5.12849L314.858 5.32162C310.084 7.59625 305.075 9.34195 299.92 10.5275L299.818 10.5536C298.452 10.9043 298.439 10.9077 298.233 12.4677C298.322 12.4461 298.411 12.4237 298.501 12.4012C298.702 12.3505 298.905 12.2995 299.112 12.257C303.11 11.4932 307.046 10.7294 311.018 9.93935Z" fill="#AF7C3E"/>
  <path d="M219.707 0H243.446C240.533 0.337463 237.644 0.661484 234.79 0.949722C233.143 1.11607 231.491 1.25114 229.84 1.38623C227.482 1.57906 225.124 1.77193 222.778 2.05586C216.232 2.84596 209.711 3.75897 203.446 5.90982C203.327 5.92215 203.206 5.92215 203.086 5.90982C203.212 5.83942 203.321 5.77541 203.421 5.71706C203.608 5.60808 203.761 5.51886 203.921 5.44453C208.952 3.00623 214.252 1.17972 219.707 0Z" fill="#AF7C3E"/>
  <path d="M246.421 0H247.142L242.813 3.2059C244.697 5.54233 244.403 8.04565 244.111 10.5302C244.075 10.837 244.039 11.1435 244.008 11.4493L248.831 0H250.195C250.368 2.10051 249.801 4.13168 249.183 6.12929C248.744 7.52592 248.231 8.89937 247.718 10.2717C247.009 12.1686 246.301 14.0634 245.791 16.0144C244.56 20.6905 243.531 25.4203 242.504 30.1448C242.285 31.1502 242.066 32.1553 241.846 33.1596C241.656 34.0221 241.529 34.8988 241.401 35.7784C241.304 36.4476 241.207 37.1185 241.081 37.7861C240.73 34.1445 240.748 30.4768 241.134 26.8388C241.386 24.4113 241.681 21.9878 241.969 19.6174C242.113 18.4303 242.256 17.2564 242.391 16.1022C241.305 18.7947 239.989 21.4203 238.665 24.0613C236.273 28.8343 233.856 33.6573 232.725 39.0152C232.797 35.1346 233.454 31.287 234.676 27.6026C235.621 25.0456 236.589 22.5006 237.558 19.9551C238.446 17.6238 239.333 15.2922 240.203 12.9505C241.439 9.93156 242.198 6.73883 242.452 3.48683L238.753 6.4541L236.046 8.6664C236.066 8.73991 236.061 8.82367 236.057 8.90413C236.051 9.00621 236.046 9.10298 236.09 9.16681C237.619 11.0894 237.531 13.328 237.233 15.5491C236.662 19.8069 234.851 23.652 232.971 27.4445C232.31 28.7987 231.622 30.1438 230.933 31.4902C229.835 33.6353 228.736 35.7841 227.743 37.9793C227.135 39.5969 226.662 41.2617 226.328 42.9569C225.859 41.2455 225.927 39.4317 226.521 37.7598C227.778 33.8532 229.157 29.9904 230.572 26.1365C230.92 25.1977 231.279 24.2626 231.638 23.3275C233.037 19.6804 234.437 16.0332 235.185 12.1692C235.297 11.576 235.392 10.9757 235.493 10.3296C235.551 9.9621 235.611 9.5798 235.677 9.17557L234.465 10.1413L234.544 10.2378C232.786 11.8093 230.985 13.4421 229.272 15.1365C229.777 15.834 230.081 16.657 230.15 17.5156C230.77 21.6321 229.977 25.8371 227.901 29.4461C226.863 31.4102 225.652 33.2818 224.444 35.1488C224.21 35.5099 223.977 35.8708 223.745 36.2322C221.917 38.8351 220.489 41.6965 219.509 44.7215H219.272C219.316 44.4011 219.352 44.0797 219.388 43.7587C219.46 43.1121 219.532 42.4668 219.667 41.8332C220.414 38.2411 222.071 34.992 223.721 31.7553L223.78 31.6409C225.6 27.9423 226.932 24.0234 227.743 19.9824C227.904 19.2446 228.102 18.5134 228.3 17.7827C228.425 17.3223 228.55 16.8621 228.665 16.4006C228.692 16.1967 228.692 15.9901 228.665 15.7861C227.128 17.2873 225.669 18.8324 224.272 20.4126C223.87 20.8552 223.485 21.3058 223.093 21.7643L223.033 21.8348C223.282 22.3847 223.385 22.9894 223.332 23.5906C223.311 26.1342 222.751 28.6447 221.688 30.9561C218.594 38.262 214.058 44.8697 208.349 50.3839C212.544 44.0164 215.666 37.1103 218.786 30.2066C219.882 27.7824 220.977 25.3586 222.119 22.9585C220.546 24.846 219.026 26.8037 217.585 28.7877C217.656 29.3297 217.656 29.8786 217.585 30.4206C217.005 33.1157 215.397 35.249 213.595 37.2155C211.636 39.3674 209.605 41.4645 207.585 43.55C207.051 44.102 206.517 44.6532 205.986 45.2043C207.989 39.8492 214.457 30.5259 217.541 28.4365C219.114 26.2769 220.748 24.1612 222.506 22.1245L222.383 21.9226C221.11 22.6405 219.831 23.3472 218.551 24.0541C215.731 25.612 212.91 27.1703 210.16 28.8492C206.158 31.2538 202.531 34.2324 199.395 37.6895L199.193 37.5403C199.446 37.162 199.693 36.7785 199.941 36.3948C200.486 35.5496 201.032 34.7028 201.636 33.9058C205.362 29.016 209.791 24.9601 215.458 22.3967C217.143 21.5282 219.02 21.0965 220.915 21.1413C221.612 21.0918 222.305 21.2772 222.883 21.668L224.096 20.2809C225.461 18.7475 226.873 17.2463 228.331 15.7773C228.218 15.7591 228.102 15.7591 227.989 15.7773C219.059 18.7246 210.536 22.7832 202.62 27.8571C202.523 27.9108 202.42 27.9521 202.313 27.98L202.216 27.8484C202.386 27.6808 202.555 27.5126 202.724 27.3446C203.173 26.8965 203.621 26.4501 204.088 26.0223C207.778 22.4445 211.966 19.4168 216.521 17.0327C219.667 15.4262 222.927 14.1532 226.539 14.399C227.415 14.3634 228.285 14.5603 229.061 14.9697C230.783 13.2666 232.567 11.6249 234.394 10.0535L234.799 9.5443L234.397 9.64642C222.412 12.6939 210.35 15.7607 199.114 21.3432L199 21.1061C199.879 20.5092 200.757 19.9122 201.636 19.3504C208.016 15.2769 214.659 11.7566 221.996 9.69354C225.624 8.53168 229.429 8.02046 233.235 8.18356C233.618 8.20982 233.999 8.28326 234.381 8.35683C234.636 8.40617 234.893 8.45557 235.15 8.49081C235.475 8.51283 235.801 8.51283 236.126 8.49081L240.862 4.35594C240.94 4.29016 241.02 4.22438 241.104 4.15398C241.314 3.98009 241.557 3.77802 241.907 3.47806C241.419 3.61032 240.959 3.73912 240.517 3.86284C239.55 4.13329 238.67 4.37939 237.778 4.5842C235.634 5.0874 233.487 5.57935 231.339 6.07132C227.493 6.95262 223.646 7.83403 219.817 8.78052C213.651 10.3638 207.595 12.3492 201.689 14.7239C201.418 14.862 201.106 14.8993 200.81 14.8292C201.458 14.477 202.099 14.113 202.739 13.7492C204.158 12.9431 205.574 12.1383 207.058 11.4669C207.468 11.2795 207.878 11.0916 208.289 10.9036C212.19 9.11775 216.12 7.31859 220.151 5.85715C226.275 3.63608 232.602 2.16998 239.201 2.42458C239.787 2.44627 240.373 2.5383 240.959 2.63031C241.322 2.68727 241.685 2.74423 242.048 2.78452C242.298 2.85144 242.563 2.83606 242.804 2.74063C243.836 1.97693 244.854 1.19867 245.886 0.409454C246.064 0.273285 246.242 0.136795 246.421 0Z" fill="#AF7C3E"/>
  <path d="M253.44 0H255.851C256.094 4.2227 255.187 8.3649 254.201 12.4852C252.384 19.7055 250.055 26.7875 247.232 33.6776C247.033 34.1701 246.848 34.6728 246.629 35.2697C246.559 35.4601 246.485 35.66 246.406 35.8723C247.74 29.0799 249.061 22.3414 250.382 15.5981C251.399 10.4106 252.416 5.22015 253.44 0Z" fill="#AF7C3E"/>
  <path d="M213.264 66.7482C212.923 66.3597 212.876 65.9187 213.13 65.4964C213.186 65.4036 213.28 65.318 213.298 65.2194C213.499 64.1496 214.394 63.7396 215.264 63.3194C216.133 62.8993 217.082 62.9705 218.018 63.0187C218.18 63.0273 218.362 63.0799 218.5 63.0266C218.787 62.9158 219.145 62.8108 219.307 62.595C220.44 61.0532 221.02 59.3094 221.241 57.4518C221.308 56.895 221.355 56.3216 221.294 55.7676C221.178 54.7129 221.51 53.7986 222.118 52.9655C223.639 50.8854 225.387 48.968 227.334 47.246C230.368 44.5691 233.518 42.0273 236.726 39.5482C237.952 38.6014 239.099 37.5676 240.29 36.5799C240.54 36.3727 240.815 36.1928 241.075 36L241.197 36.0842C241.08 36.3216 240.972 36.564 240.845 36.7942C240.717 37.0245 240.552 37.2619 240.448 37.5561C240.543 37.5029 240.638 37.4511 240.732 37.3964C241.327 37.0475 241.919 36.6928 242.521 36.3532C242.628 36.2935 242.773 36.2993 243 36.2554C242.834 36.4827 242.739 36.6043 242.655 36.7324C242.517 36.9424 242.28 37.0921 242.381 37.4266C242.422 37.5662 242.227 37.7928 242.101 37.9525C241.769 38.3712 241.483 38.795 241.318 39.3194C241.196 39.7043 240.86 40.0237 240.643 40.3849C240.483 40.6489 240.374 40.9417 240.218 41.2079C239.961 41.6396 239.689 42.0712 239.414 42.4914C239.28 42.6978 239.057 42.8683 239.198 43.1597C239.216 43.1993 239.174 43.2741 239.145 43.3259C239.012 43.5683 238.881 43.8122 238.736 44.0453C238.442 44.5209 237.999 44.8727 237.816 45.4619C237.647 46.0029 237.127 46.441 236.779 46.9353C236.683 47.0719 236.645 47.2468 236.582 47.4043C236.543 47.5029 236.526 47.6201 236.463 47.6978C236.193 48.0417 235.914 48.3794 235.628 48.7108C235.485 48.8777 235.315 49.0158 235.427 49.277C235.453 49.3381 235.358 49.4676 235.291 49.5424C235.039 49.8245 234.773 50.0942 234.519 50.3741C234.334 50.5777 234.096 50.7604 234.23 51.0935C234.252 51.1475 234.155 51.2583 234.091 51.3288C233.829 51.6331 233.554 51.9259 233.303 52.2374C233.252 52.3 233.257 52.4338 233.286 52.5187C233.367 52.7525 233.454 52.9748 233.24 53.1878C233.223 53.2051 233.21 53.2259 233.202 53.2487C233.194 53.2715 233.192 53.2956 233.195 53.3194C233.528 54.1108 232.671 54.6719 232.746 55.4144C232.744 55.4378 232.737 55.4607 232.725 55.481C232.713 55.5014 232.696 55.5187 232.675 55.5317C232.17 55.8007 232.311 56.295 232.226 56.7094C232.207 56.8014 232.235 56.9417 232.181 56.9799C231.846 57.218 231.911 57.5705 231.853 57.8942C231.765 58.3978 231.651 58.9014 231.542 59.3986C231.381 60.136 231.309 60.9094 231.024 61.5971C230.777 62.1914 230.686 62.7734 230.658 63.3885C230.656 63.4597 230.626 63.5277 230.575 63.5791C230.241 63.8396 230.255 64.2065 230.223 64.5626C230.203 64.7878 230.162 65.0108 230.148 65.236C230.146 65.3289 230.164 65.4213 230.203 65.5065C230.251 65.5903 230.305 65.671 230.363 65.7482C230.631 66.1914 230.605 66.5029 230.25 66.9036C230.295 66.967 230.347 67.0254 230.405 67.0777C231.161 67.6273 231.931 68.1511 232.825 68.4863C234.298 69.0381 235.784 69.5655 237.228 70.182C238.222 70.6079 239.176 71.1353 240.104 71.6863C240.327 71.814 240.512 71.9925 240.645 72.206C240.777 72.4194 240.853 72.6611 240.864 72.9094C240.873 72.9805 240.894 73.0498 240.926 73.1144C241.124 73.5885 241.001 73.8583 240.492 74.0324C240.389 74.0676 240.283 74.0942 240.153 74.1324C240.176 74.2317 240.21 74.3282 240.255 74.4201C240.463 74.7403 240.235 74.9957 240.024 75.105C239.75 75.2437 239.508 75.4335 239.311 75.6633C238.832 76.2173 238.137 76.2295 237.496 76.0676C236.376 75.7849 235.253 75.4806 234.184 75.0604C232.529 74.4086 230.916 73.6554 229.289 72.9381C228.412 72.5518 227.478 72.4 226.556 72.595C226.071 72.6978 225.507 72.9597 225.446 73.6086C225.433 73.6794 225.4 73.7453 225.349 73.7986C224.856 74.3741 224.348 74.9381 223.864 75.5209C223.494 75.9683 223.16 76.4417 222.798 76.8957C222.669 77.0413 222.531 77.1792 222.384 77.3086C222.324 77.3683 222.209 77.4288 222.21 77.4856C222.223 77.9115 221.836 78.077 221.628 78.3597C221.456 78.5957 221.359 78.8863 221.169 79.105C220.909 79.4043 220.583 79.6504 220.304 79.936C220.196 80.046 220.058 80.213 220.075 80.3381C220.15 80.9331 219.719 81.2014 219.339 81.5252C219.213 81.6317 219.039 81.8 219.052 81.923C219.112 82.4669 218.713 82.7029 218.377 82.9971C218.249 83.1086 218.174 83.2727 218.06 83.4022C217.931 83.5504 217.779 83.6806 217.65 83.8338C217.543 83.9604 217.416 84.0921 217.368 84.2417C217.259 84.5842 217.198 84.9396 217.108 85.2871C217.091 85.3504 217.04 85.4446 216.989 85.4554C216.576 85.5424 216.589 85.8511 216.57 86.1525C216.556 86.3683 216.513 86.5806 216.506 86.7957C216.497 87.0835 216.438 87.3086 216.098 87.395C216.014 87.4158 215.932 87.5532 215.906 87.6511C215.77 88.1604 215.653 88.6741 215.526 89.1863C215.475 89.3957 215.392 89.5518 215.12 89.5863C215.021 89.5993 214.909 89.782 214.867 89.9072C214.685 90.4647 214.541 91.0345 214.347 91.5885C214.301 91.7201 214.116 91.8043 214.004 91.9201C213.921 91.9921 213.856 92.0805 213.812 92.1791C213.696 92.5576 213.623 92.9489 213.489 93.3201C213.369 93.6547 213.235 93.9964 212.84 94.1504C212.769 94.1777 212.724 94.2993 212.696 94.3856C212.589 94.7165 212.538 95.0712 212.382 95.3777C212.238 95.6612 211.982 95.8921 211.783 96.1511C211.708 96.2525 211.602 96.3597 211.579 96.4763C211.462 97.0748 211.385 97.6806 211.258 98.2748C211.15 98.7827 210.995 99.282 210.848 99.8223C210.23 99.5345 210.276 98.9856 210.012 98.5784C209.937 99.3986 209.781 100.189 209.372 101C208.923 100.374 209.012 99.682 208.827 98.9856L208.283 100.019L208.146 100.012C208.105 99.8173 208.038 99.6237 208.031 99.4273C208.014 98.9237 208.022 98.4201 208.022 97.9166C208.022 95.8302 207.963 93.7439 208.038 91.6576C208.131 89.0719 208.262 86.4842 208.51 83.9094C208.735 81.6072 209.246 79.3489 210.137 77.1892C210.429 76.4835 210.893 75.8871 211.479 75.3554C212.799 74.1488 213.933 72.7669 214.846 71.2518C215.26 70.5702 215.627 69.8628 215.943 69.1345C216.281 68.3576 216.13 67.8835 215.452 67.3245C215.097 67.042 214.726 66.7778 214.342 66.5331C214.047 66.3367 213.471 66.4647 213.264 66.7482Z" fill="#AF7C3E"/>
</svg>
