<svg width="44" height="45" viewBox="0 0 44 45" fill="none" xmlns="http://www.w3.org/2000/svg">
  <path d="M42.7601 22.0702C42.7314 27.4703 40.5997 32.6468 36.8172 36.501C33.0347 40.3552 27.8993 42.5838 22.5006 42.7139C17.102 42.8441 11.8651 40.8654 7.90136 37.1979C3.93759 33.5304 1.55891 28.4627 1.27012 23.0702C1.27012 22.7302 1.27012 22.3902 1.27012 22.0702C1.25517 17.246 2.92161 12.5673 5.98286 8.83882C9.04411 5.1103 13.3088 2.56493 18.0437 1.64046C22.7785 0.715983 27.6874 1.47017 31.9264 3.77333C36.1653 6.07649 39.4693 9.7847 41.2701 14.2602C42.2722 16.7412 42.7784 19.3945 42.7601 22.0702Z" fill="#DB8C2F"/>
  <path d="M22.0001 1.30939C26.0623 1.30852 30.0356 2.49951 33.4276 4.73474C36.8196 6.96998 39.4813 10.1513 41.0829 13.8845C42.6845 17.6177 43.1556 21.7387 42.438 25.7371C41.7203 29.7354 39.8453 33.4354 37.0453 36.3785C34.2453 39.3217 30.6434 41.3787 26.6858 42.2947C22.7282 43.2107 18.5887 42.9455 14.7804 41.5319C10.972 40.1183 7.66204 37.6185 5.26056 34.342C2.85908 31.0656 1.47163 27.1566 1.27008 23.0994C1.27008 22.7594 1.27008 22.4194 1.27008 22.0994C1.26614 19.3731 1.79921 16.6728 2.83885 14.1526C3.8785 11.6324 5.40436 9.3416 7.32932 7.41107C9.25428 5.48054 11.5406 3.94805 14.0578 2.90113C16.5751 1.8542 19.2738 1.31333 22.0001 1.30939ZM22.0001 0.0693995C17.5909 0.0587606 13.2818 1.38355 9.64008 3.86939C6.52401 5.99409 4.0012 8.87829 2.31008 12.2494C0.78217 15.2968 -0.00904906 18.6604 7.8076e-05 22.0694C7.8076e-05 22.4194 7.8076e-05 22.7794 7.8076e-05 23.1594C0.213306 27.4577 1.68254 31.5991 4.22586 35.0708C6.76919 38.5425 10.2749 41.192 14.3089 42.6912C18.343 44.1905 22.7281 44.4736 26.9214 43.5056C31.1148 42.5376 34.9321 40.361 37.9008 37.2452C40.8695 34.1295 42.8591 30.2114 43.6234 25.9762C44.3876 21.741 43.8929 17.3746 42.2005 13.4177C40.5081 9.46086 37.6923 6.08727 34.1018 3.71466C30.5112 1.34206 26.3037 0.0746851 22.0001 0.0693995Z" fill="#7E4C12"/>
  <path d="M42.76 22.0696C42.7604 23.3377 42.6432 24.6031 42.41 25.8496C41.533 30.6227 39.0106 34.9375 35.2817 38.0434C31.5527 41.1493 26.8531 42.85 22 42.8496C21.65 42.8496 21.31 42.8496 21 42.8496C17.5554 42.6763 14.2082 41.648 11.2605 39.8575C8.31274 38.0669 5.8573 35.5705 4.11577 32.5936C2.37425 29.6166 1.40147 26.2528 1.28524 22.8058C1.16901 19.3588 1.91298 15.9371 3.45002 12.8496C3.64812 13.4009 3.8958 13.9331 4.19002 14.4396C4.67013 15.2727 5.26985 16.0307 5.97002 16.6896L37.41 17.6896C38.2552 17.4864 39.0401 17.0855 39.7 16.5197C40.4022 15.922 40.9393 15.1541 41.26 14.2896C42.2617 16.7606 42.7712 19.4034 42.76 22.0696Z" fill="#CD8B0B"/>
  <path d="M22 39.0201C31.3613 39.0201 38.95 31.4314 38.95 22.0701C38.95 12.7089 31.3613 5.12012 22 5.12012C12.6388 5.12012 5.05005 12.7089 5.05005 22.0701C5.05005 31.4314 12.6388 39.0201 22 39.0201Z" fill="#FAD017"/>
  <path d="M35.1601 5.99991C33.4981 7.63577 31.5165 8.91107 29.3391 9.74607C27.1617 10.5811 24.8355 10.9578 22.5058 10.8527C20.1762 10.7476 17.8934 10.1628 15.8 9.13511C13.7067 8.10739 11.848 6.65881 10.3401 4.87992C14.0435 2.36189 18.4625 1.11023 22.9364 1.31211C27.4102 1.51399 31.6985 3.15856 35.1601 5.99991Z" fill="#F2E635"/>
  <path d="M35.12 23.3696C33.631 25.5551 31.6504 27.3611 29.3372 28.6428C27.024 29.9244 24.4426 30.646 21.8 30.7496C23.0368 28.509 24.8514 26.6408 27.055 25.3394C29.2586 24.038 31.7708 23.3509 34.33 23.3496L35.12 23.3696Z" fill="#FBBA16"/>
  <path d="M33.2401 10.1094C32.8401 10.1094 32.5001 9.99935 32.1301 9.96935C31.7601 9.93935 31.4401 9.86936 31.1301 9.79936C30.8201 9.72936 30.3501 9.90938 30.2101 9.56938C30.1017 9.39582 30.0302 9.20178 30.0001 8.99938C29.9583 8.66736 29.9583 8.3314 30.0001 7.99938L30.1301 7.73937C30.3872 7.50105 30.6853 7.31131 31.0101 7.17937C31.2242 7.08631 31.4572 7.0452 31.6901 7.05937C32.1101 7.05937 32.2001 7.57938 32.4101 7.87938C32.6329 8.19292 32.8239 8.52791 32.9801 8.87938C33.1358 9.23752 33.2694 9.60486 33.3801 9.97936L33.2401 10.1094Z" fill="#F9EE7A"/>
  <path d="M29.0001 7.46993C27.7092 7.21688 26.3954 7.0996 25.0801 7.11996C23.8308 7.13727 22.5857 7.26782 21.3601 7.50997C20.7672 7.65533 20.1883 7.85273 19.6301 8.09994C19.0854 8.33155 18.5089 8.47988 17.9201 8.53994C16.5439 8.68543 15.1543 8.64168 13.7901 8.40994L13.5801 8.06997C14.1649 6.58608 15.3007 5.3857 16.7501 4.71993C17.427 4.38224 18.1736 4.20764 18.9301 4.20998C19.6901 4.20998 20.4401 4.27997 21.1701 4.31997C21.8981 4.361 22.6229 4.44785 23.3401 4.57998C24.0473 4.72877 24.7452 4.9191 25.4301 5.14999C26.7604 5.63992 28.0158 6.31308 29.1601 7.14999L29.0001 7.46993Z" fill="#F9EE7A"/>
  <path d="M23.91 31.5496C23.0966 31.5509 22.2843 31.4907 21.48 31.3696C21.58 31.1596 21.69 30.9496 21.8 30.7496C23.0351 28.5076 24.8493 26.6383 27.0533 25.3366C29.2573 24.035 31.7703 23.3487 34.33 23.3496H35.12C36.1333 23.4105 37.1382 23.5713 38.12 23.8297C36.5827 26.1991 34.4775 28.1464 31.9957 29.4948C29.5139 30.8431 26.7344 31.5494 23.91 31.5496Z" fill="#FABF10"/>
  <path d="M42 25.429C41.1312 29.238 38.6417 32.6806 34.9637 35.1595C31.2858 37.6384 26.6513 38.9972 21.8646 39C21.5193 39 21.1839 39 20.878 39C20.4036 38.0041 20.1079 36.9584 20 35.8946C20.6202 35.9353 21.2426 35.9486 21.8646 35.9345C25.9545 35.9256 29.8995 34.7076 32.9573 32.5097C36.0151 30.3117 37.975 27.2854 38.4682 24C39.7236 24.3376 40.913 24.8188 42 25.429V25.429Z" fill="#F59C21"/>
  <path d="M38.83 24.0701C38.3256 28.182 36.3371 31.9682 33.2381 34.7173C30.139 37.4665 26.1427 38.9895 22 39.0001C21.3585 38.9989 20.7175 38.9622 20.08 38.8901C20.08 38.4801 20.0201 38.0601 20.0201 37.6401C20.0154 35.4589 20.5151 33.3062 21.48 31.35C22.2844 31.4711 23.0967 31.5313 23.9101 31.5301C26.7309 31.5304 29.5072 30.8263 31.9869 29.4816C34.4667 28.137 36.5714 26.1944 38.11 23.8301L38.83 24.0701Z" fill="#F59C21"/>
  <path d="M21.4801 31.37C20.5151 33.3261 20.0155 35.4788 20.0201 37.66C20.0201 38.08 20.0201 38.5 20.0801 38.91C17.3575 38.5818 14.7548 37.6 12.4939 36.0482C10.233 34.4963 8.38105 32.4205 7.0961 29.998C5.81114 27.5754 5.13129 24.878 5.11457 22.1358C5.09786 19.3936 5.74476 16.688 7.00009 14.25V14.6C6.99779 18.6682 8.45959 22.6013 11.1183 25.6805C13.777 28.7597 17.455 30.7792 21.4801 31.37Z" fill="#F7C41C"/>
  <path d="M38.9401 22.4199C38.9401 22.9799 38.8901 23.5299 38.8301 24.0699L38.1101 23.8499C38.4101 23.3899 38.6801 22.9099 38.9401 22.4199Z" fill="#F59C21"/>
  <path d="M29.9004 29.1146C31.5839 28.0159 32.567 26.5403 32.0961 25.8188C31.6252 25.0973 29.8787 25.4031 28.1952 26.5018C26.5117 27.6005 25.5287 29.0761 25.9996 29.7976C26.4705 30.5191 28.2169 30.2133 29.9004 29.1146Z" fill="#FBDE45"/>
  <path d="M23.8101 18.5897C22.0442 22.9954 18.6747 26.5685 14.3801 28.5897C12.0952 27.0383 10.2245 24.9515 8.93117 22.5112C7.63785 20.071 6.96115 17.3514 6.96007 14.5897V14.2396C5.61656 16.8243 4.96224 19.7118 5.06034 22.6231C5.15843 25.5344 6.00562 28.3713 7.52007 30.8596L6.47007 31.0297C5.50779 31.1971 4.55616 31.4208 3.62006 31.6996C2.68009 29.9139 2.0063 28.0004 1.62006 26.0197C1.37064 24.701 1.24675 23.3617 1.25006 22.0197C1.25087 19.7414 1.6224 17.4785 2.35007 15.3196C3.80903 11.0535 6.61721 7.37828 10.3501 4.84961L13.2201 7.52966C12.89 9.54949 13.2196 11.6219 14.1601 13.4396C15.1358 15.1058 16.554 16.469 18.2574 17.3781C19.9608 18.2871 21.8828 18.7065 23.8101 18.5897Z" fill="#FABF10"/>
  <path d="M14.3801 28.62C12.2132 29.6952 9.90289 30.453 7.52012 30.87C6.00567 28.3816 5.15849 25.5448 5.06039 22.6334C4.9623 19.7221 5.61661 16.8347 6.96013 14.25V14.6C6.95794 17.3651 7.63307 20.0888 8.92654 22.5328C10.22 24.9768 12.0924 27.0667 14.3801 28.62Z" fill="#F49814"/>
  <path d="M38.5301 25.8094C37.608 29.874 35.2207 33.4564 31.8243 35.8721C28.4278 38.2878 24.2604 39.3674 20.1183 38.9047C15.9762 38.442 12.1497 36.4694 9.3701 33.3638C6.59046 30.2581 5.05251 26.2373 5.05008 22.0694C5.04671 20.3142 5.32007 18.5695 5.86008 16.8994C4.91032 21.1534 5.63586 25.6098 7.88597 29.3428C10.1361 33.0759 13.7378 35.7986 17.943 36.9455C22.1481 38.0924 26.6335 37.5751 30.4673 35.5013C34.3011 33.4275 37.1886 29.9566 38.5301 25.8094Z" fill="#EAE33F"/>
  <path d="M22.0001 39.1102C24.0104 39.1102 25.6401 38.4118 25.6401 37.5502C25.6401 36.6887 24.0104 35.9902 22.0001 35.9902C19.9898 35.9902 18.3601 36.6887 18.3601 37.5502C18.3601 38.4118 19.9898 39.1102 22.0001 39.1102Z" fill="#F9EE7A"/>
  <path d="M21.13 18.7696C26.8627 18.7696 31.51 16.3161 31.51 13.2896C31.51 10.263 26.8627 7.80957 21.13 7.80957C15.3973 7.80957 10.75 10.263 10.75 13.2896C10.75 16.3161 15.3973 18.7696 21.13 18.7696Z" fill="#FBDE45"/>
</svg>
