<svg width="27" height="27" viewBox="0 0 27 27" fill="none" xmlns="http://www.w3.org/2000/svg">
  <path d="M26.3199 6.08982V20.9298C26.3299 21.1164 26.3299 21.3033 26.3199 21.4898C26.2184 22.4685 25.8519 23.4009 25.2598 24.1868C24.6678 24.9727 23.8726 25.5822 22.9599 25.9498C22.3237 26.2031 21.6448 26.3321 20.9599 26.3298H6.07993C5.57244 26.3323 5.06724 26.2615 4.57993 26.1198C3.45589 25.7931 2.46813 25.1106 1.76493 24.1748C1.06173 23.239 0.681013 22.1004 0.679932 20.9298V6.08982C0.681315 5.78148 0.70807 5.47376 0.75993 5.16981C0.909223 4.30421 1.26666 3.48788 1.80146 2.79107C2.33625 2.09427 3.03239 1.53788 3.82993 1.16981C4.03245 1.07948 4.23937 0.999385 4.44993 0.929819C4.97993 0.760262 5.53348 0.675879 6.08993 0.679819H20.9199C22.2336 0.68336 23.5014 1.16392 24.4873 2.03213C25.4732 2.90034 26.1103 4.0971 26.2799 5.39982C26.2799 5.52982 26.2799 5.65981 26.2799 5.79981C26.2987 5.89566 26.312 5.99249 26.3199 6.08982Z" fill="#DB8C2F"/>
  <path d="M20.92 0.690002C22.2337 0.693544 23.5014 1.17412 24.4874 2.04233C25.4733 2.91054 26.1103 4.10729 26.28 5.41C26.28 5.54 26.28 5.67001 26.28 5.81001C26.285 5.90328 26.285 5.99675 26.28 6.09001V20.93C26.29 21.1165 26.29 21.3035 26.28 21.49C26.1785 22.4687 25.8119 23.4011 25.2199 24.187C24.6278 24.9729 23.8327 25.5824 22.92 25.95C22.2837 26.2033 21.6048 26.3323 20.92 26.33H6.08C5.57251 26.3325 5.06731 26.2617 4.58 26.12C3.45596 25.7933 2.4682 25.1108 1.765 24.175C1.0618 23.2392 0.681082 22.1006 0.68 20.93V6.09001C0.681384 5.78167 0.708139 5.47395 0.759998 5.17C0.909292 4.3044 1.26673 3.48806 1.80153 2.79126C2.33632 2.09446 3.03246 1.53806 3.83 1.17C4.03252 1.07966 4.23944 0.999573 4.45 0.930008C4.98 0.76045 5.53355 0.676068 6.09 0.680008H20.92V0.690002ZM20.92 0H6.08C5.45531 0.000291398 4.83449 0.0981455 4.24 0.290009C3.99588 0.359036 3.7583 0.449387 3.53 0.560013C2.63419 0.971525 1.85251 1.5957 1.25297 2.37823C0.653428 3.16077 0.254194 4.07797 0.0900002 5.05C0.0321138 5.38024 0.00200828 5.71474 0 6.05V20.89C0.00359304 22.1752 0.412386 23.4266 1.16823 24.4661C1.92407 25.5056 2.98847 26.2803 4.21 26.68L4.29 26.76H4.48C5.00182 26.8999 5.53977 26.9705 6.08 26.97H20.92C21.6935 26.9684 22.46 26.8226 23.18 26.54L23.31 26.48C24.3123 26.0513 25.1808 25.3609 25.8248 24.4812C26.4687 23.6016 26.8642 22.565 26.97 21.48C26.97 21.2733 26.97 21.0633 26.97 20.85V6.09001C26.97 5.98001 26.97 5.88 26.97 5.77C26.97 5.66 26.97 5.48001 26.97 5.32001C26.7834 3.85805 26.0721 2.51365 24.9684 1.5369C23.8647 0.560142 22.4438 0.0175376 20.97 0.0100098L20.92 0Z" fill="#7E4C12"/>
  <path d="M26.31 5.8102L25.23 6.0602L23.11 5.90019C22.66 5.10019 22.2 4.30019 21.74 3.51019C22.24 2.74019 22.74 1.9702 23.22 1.2002C24.102 1.61967 24.8546 2.26928 25.3984 3.0806C25.9423 3.89192 26.2572 4.83491 26.31 5.8102Z" fill="#FEC608"/>
  <path d="M4.25993 8.24023V14.6402H0.669922V7.74023L3.74992 8.17023L4.25993 8.24023Z" fill="#D5A808"/>
  <path d="M26.32 11.2401V18.8301H23.45V10.8301L26.32 11.2401Z" fill="#D5A808"/>
  <path d="M26.32 6.09027V14.7003C25.866 14.4077 25.4408 14.0729 25.05 13.7003C24.1395 12.7936 23.4336 11.7025 22.98 10.5003C23.25 8.90026 23.53 7.30026 23.81 5.69026C24.0721 5.58564 24.3432 5.50531 24.62 5.45027C25.1683 5.3447 25.7317 5.3447 26.28 5.45027C26.28 5.58027 26.28 5.71026 26.28 5.85026C26.297 5.9296 26.3104 6.00969 26.32 6.09027Z" fill="#CB8F09"/>
  <path d="M26.32 17.0102V20.9302C26.33 21.1167 26.33 21.3037 26.32 21.4902C25.9706 21.49 25.6251 21.416 25.3063 21.2729C24.9875 21.1299 24.7025 20.9211 24.47 20.6602C24.2402 20.3851 24.07 20.0653 23.9702 19.7211C23.8703 19.3768 23.843 19.0156 23.89 18.6602C24.14 17.1602 24.89 16.2602 25.53 16.3202C25.59 16.3102 26 16.3602 26.32 17.0102Z" fill="#CB8F09"/>
  <path d="M0.669899 13.4502C0.939899 12.8702 1.2999 12.5202 1.6699 12.4502C2.05536 12.529 2.40566 12.7287 2.6699 13.0202C3.00295 13.3024 3.28388 13.6409 3.4999 14.0202L3.4199 20.4702C2.81934 20.9614 2.06573 21.2267 1.2899 21.2202C1.07358 21.21 0.859001 21.1765 0.649902 21.1202" fill="#CB8F09"/>
  <path d="M6.26992 3.43047L4.49992 6.43047L1.97992 7.00046L0.669922 6.42046V6.13046C0.670941 5.09661 0.968177 4.0847 1.52644 3.21452C2.08469 2.34435 2.8806 1.65235 3.81992 1.22046C4.02244 1.13013 4.22937 1.05003 4.43993 0.980469C4.35975 1.22542 4.33918 1.48596 4.37992 1.74046C4.50473 2.17107 4.74815 2.55789 5.08236 2.85674C5.41657 3.15558 5.82809 3.3544 6.26992 3.43047Z" fill="#FEC608"/>
  <path d="M3.80001 5.28977C3.80001 6.23977 3.80001 7.19977 3.80001 8.14977C3.80001 8.75977 3.80001 9.36977 3.80001 9.97977L3.23001 10.1298C2.93828 10.146 2.64617 10.1052 2.37001 10.0098C1.95571 9.83778 1.59121 9.56454 1.30992 9.21511C1.02863 8.86568 0.839548 8.45125 0.76001 8.00977V6.06977C0.761393 5.76143 0.788152 5.45373 0.840012 5.14977C1.2287 5.02439 1.63213 4.95043 2.04001 4.92977C2.64534 4.92601 3.24479 5.04862 3.80001 5.28977Z" fill="#CB8F09"/>
  <path d="M24.8301 2.36993L22.1601 5.36993L4.38007 4.63992C4.19007 3.49992 4.01007 2.34993 3.82007 1.20993C4.52846 0.883168 5.29996 0.715893 6.08007 0.719921H20.9201C21.6499 0.713706 22.3732 0.856893 23.0457 1.14065C23.7181 1.42441 24.3253 1.84275 24.8301 2.36993Z" fill="#EDE435"/>
  <path d="M22.9301 25.9495C22.2938 26.2028 21.6149 26.3318 20.9301 26.3295H6.08008C5.57258 26.332 5.06739 26.2613 4.58008 26.1195C4.95008 25.3595 5.31008 24.5895 5.68008 23.8295L21.1601 22.5195C21.2601 22.6995 21.9501 24.0395 22.0501 24.2295C22.1501 24.4195 22.8301 25.7595 22.9301 25.9495Z" fill="#C87513"/>
  <path d="M20.8001 3.15039H6.20013C4.51014 3.15039 3.14014 4.5204 3.14014 6.21039V20.8104C3.14014 22.5004 4.51014 23.8704 6.20013 23.8704H20.8001C22.4901 23.8704 23.8601 22.5004 23.8601 20.8104V6.21039C23.8601 4.5204 22.4901 3.15039 20.8001 3.15039Z" fill="#FAC119"/>
  <path d="M19.0701 8.74968C17.5601 13.2097 12.9201 14.9797 10.9101 15.6497L10.5501 15.7697C8.16069 16.542 5.62756 16.7642 3.14014 16.4197V6.23969C3.14014 5.83784 3.21929 5.43994 3.37307 5.06868C3.52685 4.69742 3.75224 4.36009 4.03639 4.07594C4.32054 3.7918 4.65787 3.56639 5.02913 3.41261C5.40039 3.25883 5.79829 3.17969 6.20013 3.17969H19.2001C19.6932 5.01024 19.648 6.94412 19.0701 8.74968Z" fill="#F9D00B"/>
  <path d="M23.8599 13.82V20.82C23.8599 21.2218 23.7808 21.6197 23.627 21.991C23.4732 22.3622 23.2478 22.6996 22.9637 22.9837C22.6795 23.2679 22.3422 23.4933 21.9709 23.647C21.5997 23.8008 21.2018 23.88 20.7999 23.88H11.9999C11.5553 21.8024 11.8711 19.6343 12.8899 17.77C14.8499 14.45 19.2799 12.78 23.8599 13.82Z" fill="#F49519"/>
  <path d="M13.55 9.69969C17.7032 9.69969 21.07 8.35206 21.07 6.68968C21.07 5.0273 17.7032 3.67969 13.55 3.67969C9.39685 3.67969 6.03003 5.0273 6.03003 6.68968C6.03003 8.35206 9.39685 9.69969 13.55 9.69969Z" fill="#FAE447"/>
  <path d="M18.44 16.1198C17.82 16.3598 16.02 17.0498 16.04 18.1898C16.0628 18.4689 16.159 18.7371 16.3188 18.9671C16.4786 19.1972 16.6963 19.3809 16.95 19.4998C17.8 19.9198 18.74 19.3798 19.75 18.7998C20.45 18.3998 21.45 17.7998 21.61 16.7998C21.6819 16.5445 21.6495 16.2711 21.52 16.0398C21 15.3598 19.3 15.7998 18.44 16.1198Z" fill="#F8AB18"/>
  <path d="M20.86 4C20.04 4 18.98 4.13 18.96 4.41C18.94 4.69 19.87 5.06 20.74 5.03C21.61 5 22.25 4.66 22.23 4.42C22.21 4.18 21.33 4.03 20.86 4Z" fill="#F9EE7A"/>
  <path d="M13.69 3.59004C17.15 3.59004 20.69 3.24004 20.63 2.99004C20.57 2.74004 16.24 2.57004 14.1 2.54004C11.31 2.54004 6.80005 2.54004 6.80005 2.88004C6.80005 3.22004 10.28 3.57004 13.69 3.59004Z" fill="#F9EE7A"/>
  <path d="M11.8001 23.5901C14.0508 23.6531 16.3031 23.5562 18.5401 23.3001C18.5401 23.1701 14.2701 23.1101 12.1901 23.1001C9.82224 23.0333 7.45252 23.0867 5.09009 23.2601C7.31665 23.5225 9.55853 23.6328 11.8001 23.5901Z" fill="#F9EE7A"/>
  <path d="M10.9101 15.65L10.5501 15.77C8.16069 16.5423 5.62756 16.7645 3.14014 16.42V12.96C4.43458 13.6055 5.77092 14.1635 7.14014 14.63C8.37456 15.0474 9.63363 15.3881 10.9101 15.65Z" fill="#F49519"/>
</svg>
