<svg width="316" height="111" viewBox="0 0 316 111" fill="none" xmlns="http://www.w3.org/2000/svg">
  <rect width="316" height="111" rx="9" fill="#AFC0B4"/>
  <path d="M316.007 12.2802V91.0802C312.007 96.5202 296.937 100.57 278.887 100.57H37.3972C18.8972 100.57 3.47715 96.3202 0.00715199 90.6702V12.2802C0.00715199 12.0702 0.00715199 11.8502 0.00715199 11.6402C-0.002384 11.507 -0.002384 11.3733 0.00715199 11.2402C0.0172437 11.0459 0.0372064 10.8524 0.0670885 10.6602C0.0670885 10.4502 0.127186 10.2402 0.167186 10.0202C0.207186 9.80018 0.257089 9.54018 0.317089 9.30018C0.486286 9.0628 0.673565 8.83881 0.877147 8.63018L19.7171 9.52018H20.4072H20.5272C19.3962 12.0269 18.6059 14.6737 18.1772 17.3902C18.0972 17.8702 18.0171 18.3902 17.9771 18.7902C17.8368 19.3933 17.8097 20.0172 17.8972 20.6302C18.9472 25.1902 52.1372 28.6302 72.4272 30.3702C75.6172 30.6502 78.5272 30.8802 80.9172 31.0602C80.9172 31.0602 23.1285 36.5 18.6872 40.5202C14.2459 44.5404 15.2797 50.1867 14.1271 55.1802C13.7571 56.8202 13.4771 58.1802 13.3171 59.2502C13.0771 61.8802 13.6371 63.3002 15.4571 64.8702C19.5471 68.3902 27.7071 70.7302 34.4571 72.1802C36.4571 72.6102 38.3371 72.9502 39.9971 73.2402C37.0871 73.6402 19.4572 76.2402 16.7972 81.1802C16.7402 81.2761 16.6996 81.3809 16.6772 81.4902C13.9672 88.0702 39.3871 94.7102 59.0771 94.6902C72.3371 94.6902 74.7571 91.6902 91.3771 91.1702C106.817 90.6702 115.627 92.9202 130.017 94.5402C146.837 96.4402 162.597 96.0502 194.127 95.2802C249.067 93.9202 276.507 93.2802 290.537 87.0502C298.987 83.3302 300.927 78.9402 300.437 75.1702C299.837 70.6102 295.667 66.9602 295.107 66.4902C282.107 55.4902 249.627 52.0602 245.547 51.6502C248.137 51.6002 252.177 51.4802 256.987 51.2102C269.797 50.4802 287.867 48.6102 296.477 43.7102C299.307 42.0902 300.727 40.3702 300.397 36.0602C300.184 33.7802 299.779 31.5222 299.187 29.3102C297.385 22.2441 294.768 15.4115 291.387 8.95018H292.387L314.817 8.18018C315.045 8.37824 315.259 8.5921 315.457 8.82018C315.544 9.09633 315.618 9.37668 315.677 9.66018L315.767 10.1002C315.767 10.2402 315.767 10.3802 315.837 10.5302C315.907 10.6802 315.837 10.7802 315.837 10.9002V11.2702C315.847 11.4067 315.847 11.5437 315.837 11.6802C315.997 11.8502 316.007 12.0702 316.007 12.2802Z" fill="#9BB3AD"/>
  <path d="M316 93.4044V98.7994C315.997 102.036 316 111 316 111C316 111 306.902 111 303.62 111H12.37C9.08927 111 0 111 0 111C0 111 0 102.035 0 98.7994V93C3.47 98.5726 18.89 102.764 37.39 102.764H278.88C296.93 102.745 312.05 98.7994 316 93.4044Z" fill="#76928B"/>
  <path d="M316 17.5934V12.1686V0H303.619H12.3881H0.00720215V12.1686V18C2.33737 14.2413 10.0479 11.1074 20.4686 9.45124C26.0599 8.58713 31.7112 8.16267 37.3699 8.18182H278.897C283.097 8.17463 287.294 8.40309 291.468 8.86612C303.649 10.2248 313 13.5174 316 17.5934Z" fill="#C3D0C0"/>
  <path d="M31.4169 31.6703L0.00683594 36.3703V24.7603L31.4169 31.6703Z" fill="#45595F"/>
  <path d="M15.9568 73.52L0.00683594 77.33V69.52L15.9568 73.52Z" fill="#45595F"/>
  <path d="M316.007 57.2302V64.5202C309.912 61.3198 303.556 58.6435 297.007 56.5202C291.517 54.6902 286.077 53.1902 281.087 51.9702L316.007 57.2302Z" fill="#EEF5E8"/>
  <path d="M316.007 46.52V57.07L281.127 51.94L316.007 46.52Z" fill="#45595F"/>
  <path d="M304.962 7.7723C305.111 6.79548 300.824 5.33122 295.386 4.50172C289.948 3.67221 285.419 3.79158 285.27 4.76839C285.121 5.74521 289.408 7.20956 294.846 8.03906C300.284 8.86856 304.813 8.74912 304.962 7.7723Z" fill="#EEF5E8"/>
  <path d="M31.4169 31.6704L0.00683594 42.5804V36.4004L31.4169 31.6704Z" fill="#EEF5E8"/>
  <path d="M15.9568 73.52L0.00683594 81.1V77.52L15.9568 73.52Z" fill="#EEF5E8"/>
  <path d="M15.4192 8.16536C20.4389 7.6537 24.4343 6.5139 24.3431 5.61954C24.252 4.72518 20.1088 4.41493 15.0891 4.92659C10.0693 5.43824 6.0739 6.57805 6.16506 7.47241C6.25622 8.36677 10.3995 8.67701 15.4192 8.16536Z" fill="#EEF5E8"/>
  <path d="M262.62 17.6505C262.71 17.5042 262.8 17.3573 262.887 17.2087L263.347 17.1387C263.619 17.6878 263.82 18.2691 263.947 18.8687C263.988 19.6703 263.924 20.4738 263.757 21.2587C263.112 23.8374 263.436 26.5628 264.667 28.9187C264.886 29.3317 265.018 29.7855 265.054 30.2518C265.09 30.7181 265.03 31.1869 264.877 31.6288C263.947 33.5288 264.237 35.3387 264.677 37.2087C265.327 40.035 265.456 42.9563 265.057 45.8288C264.856 46.9505 264.769 48.0896 264.797 49.2287C264.875 50.2367 265.024 51.2373 265.173 52.2379C265.327 53.2723 265.48 54.3067 265.557 55.3487C265.663 56.4817 265.628 57.6191 265.592 58.758C265.574 59.328 265.557 59.8984 265.557 60.4688C265.391 61.4116 265.391 62.3759 265.557 63.3187C266.196 64.9087 266.302 66.6637 265.857 68.3187C265.404 70.3071 265.501 72.3812 266.137 74.3187C266.587 75.9041 266.587 77.5834 266.137 79.1687C265.663 80.6278 265.719 82.2074 266.297 83.6288C266.515 84.1802 266.619 84.7701 266.604 85.3629C266.588 85.9558 266.453 86.5394 266.207 87.0788C265.726 88.3688 265.726 89.7887 266.207 91.0788C266.563 92.2027 266.794 93.3893 267.023 94.5691C267.084 94.8799 267.144 95.1902 267.207 95.4987C267.32 96.5862 267.535 97.6608 267.847 98.7087C268.237 99.7987 269.007 99.8187 269.847 98.9887C270.227 98.5987 272.447 92.6787 272.307 92.1588C272.136 91.4312 272.143 90.6732 272.328 89.9491C272.512 89.225 272.869 88.556 273.367 87.9987C273.759 87.4574 274.027 86.8361 274.151 86.1792C274.276 85.5224 274.254 84.8461 274.087 84.1987C273.996 83.536 273.979 82.8652 274.037 82.1987C274.087 80.9987 274.147 79.7987 274.247 78.5987C274.218 78.0051 274.328 77.413 274.567 76.8687C275.108 76.03 275.401 75.0545 275.41 74.056C275.418 73.0575 275.143 72.077 274.617 71.2287C274.104 70.116 274.008 68.8562 274.347 67.6787C274.417 66.7567 274.417 65.8307 274.347 64.9088C274.302 64.1791 274.418 63.4487 274.687 62.7688C275.044 62.251 275.284 61.6618 275.391 61.0419C275.499 60.4221 275.47 59.7863 275.307 59.1787C275.129 58.6225 275.084 58.0323 275.176 57.4556C275.268 56.879 275.494 56.332 275.837 55.8587C276.076 55.2589 276.182 54.6138 276.147 53.9688C276.186 53.5858 276.211 53.2029 276.236 52.8212C276.261 52.4354 276.286 52.0508 276.327 51.6687C276.532 50.9443 276.61 50.1898 276.557 49.4388C276.216 48.1576 276.216 46.8099 276.557 45.5287C276.665 44.4791 276.709 43.4238 276.687 42.3687C276.676 41.7318 276.781 41.0981 276.997 40.4987C277.751 38.6919 277.969 36.7064 277.627 34.7787C277.542 34.165 277.669 33.5408 277.987 33.0087L278.014 32.959C278.563 31.9813 279.34 30.5972 278.987 29.9187C278.26 28.4495 277.748 26.8835 277.467 25.2687C277.412 25.043 277.298 24.836 277.137 24.6687C276.237 23.7787 276.467 22.8587 276.917 21.8587C278.037 19.2887 278.797 16.6087 277.797 13.8587C277.37 12.8213 277.17 11.7048 277.21 10.5839C277.249 9.46297 277.528 8.36341 278.027 7.35875C278.291 6.80051 278.408 6.18373 278.366 5.56743C278.324 4.95113 278.124 4.35592 277.787 3.83875C277.538 3.5055 277.39 3.10816 277.36 2.69357C277.33 2.27897 277.419 1.86441 277.617 1.49875C277.907 1.00987 278.178 0.50988 278.428 0H248.16C248.196 0.670446 248.169 1.3464 248.077 2.01875C248.086 3.29934 248.243 4.57455 248.547 5.81875C248.645 6.37793 248.778 6.93341 248.91 7.48837C249.085 8.22361 249.26 8.95793 249.357 9.69875C249.563 11.2012 249.716 12.7081 249.869 14.2135C249.946 14.9725 250.023 15.7312 250.107 16.4887C250.163 17.0235 250.233 17.5549 250.303 18.0869C250.356 18.49 250.409 18.8935 250.457 19.2987C250.538 21.3411 250.799 23.3723 251.237 25.3687C251.702 26.6023 251.873 27.9274 251.737 29.2387C251.671 29.6986 251.582 30.1533 251.494 30.6067C251.407 31.0507 251.321 31.4935 251.257 31.9388C251.024 33.2584 251.195 34.6176 251.747 35.8387C252.253 36.9243 252.59 38.081 252.747 39.2688C252.84 39.9736 252.819 40.6906 252.797 41.408C252.779 41.9934 252.762 42.5791 252.807 43.1588C252.802 43.9123 253.052 44.6454 253.517 45.2387C253.852 45.5684 254.106 45.9709 254.26 46.4148C254.415 46.8588 254.465 47.3323 254.407 47.7988C254.455 49.3549 254.616 50.9055 254.887 52.4388C254.917 52.7313 255.038 53.0071 255.232 53.2275C255.427 53.448 255.686 53.602 255.972 53.6681C256.259 53.7343 256.559 53.7091 256.83 53.5963C257.102 53.4834 257.331 53.2885 257.487 53.0387C258.019 52.4481 258.333 51.6928 258.377 50.8987C258.334 50.1842 258.442 49.4688 258.693 48.7987C258.945 48.1285 259.334 47.5187 259.837 47.0087C260.787 45.9387 261.427 44.6288 260.617 43.1288C260.316 42.5316 260.159 41.8723 260.159 41.2038C260.159 40.5352 260.316 39.8759 260.617 39.2787C260.808 38.6698 260.938 38.0434 261.007 37.4088C261.074 36.6833 261.239 35.9702 261.497 35.2887C262.041 34.4104 262.375 33.4181 262.472 32.3894C262.569 31.3607 262.427 30.3234 262.057 29.3587C261.733 28.6405 261.565 27.8616 261.565 27.0737C261.565 26.2859 261.733 25.507 262.057 24.7887C262.093 24.6898 262.131 24.5895 262.17 24.4881C262.553 23.4829 262.978 22.3698 262.297 21.3887C261.251 19.883 261.924 18.7851 262.62 17.6505Z" fill="#859B96"/>
  <path d="M198 28.37C198.947 27.7741 200.016 27.4006 201.128 27.2776C202.24 27.1546 203.366 27.2853 204.42 27.66C205.78 28.04 207.04 28.89 208.42 29.06C209.8 29.23 210.28 30.22 211.11 30.94C213.32 32.86 215.56 34.74 217.8 36.65C218.8 36.19 218.93 35.65 218.07 34.98C217.526 34.6046 217.058 34.1296 216.69 33.58C216.5 33.24 216.76 32.65 216.82 32.17C217.24 32.23 217.77 32.17 218.06 32.37C219.46 33.43 219.44 33.46 221.17 32.75L221.31 30.56C223.23 30.7 223.66 31.44 223.04 33.05C222.88 33.46 222.89 34.25 223.15 34.44C223.76 34.91 224.37 34.65 224.74 33.92C225.95 31.51 227.15 29.11 228.38 26.71C229.72 24.11 230.94 21.43 232.48 18.95C233.96 16.598 236.223 14.8447 238.87 14C238.31 17.0673 238.396 20.2174 239.12 23.25C239.126 23.5204 239.073 23.7889 238.966 24.0373C238.859 24.2857 238.7 24.5083 238.5 24.69C236.5 26.47 234.42 28.21 232.32 29.89C230.016 31.7209 227.995 33.8807 226.32 36.3C225.168 37.6705 223.669 38.7066 221.98 39.3C220.31 40 218.66 39.25 217.23 38.12C213.9 35.5 209.88 34.52 205.87 33.58C204.445 33.353 203.14 32.6476 202.17 31.58C200.893 30.3712 199.495 29.2957 198 28.37Z" fill="#859B96"/>
  <path d="M194.49 75.7065C194.49 74.0488 194.427 72.0379 194.49 70.0099C194.53 69.1155 194.622 68.0446 195.13 67.3894C195.868 66.4381 195.811 65.652 195.633 64.5412C195.46 63.213 195.51 61.8652 195.782 60.5535C195.966 59.736 195.939 58.8852 195.702 58.0812C195.355 56.5228 195.245 54.9212 195.376 53.3303C195.439 51.5814 195.742 49.844 195.948 48.1008C196.125 46.4488 196.468 44.8822 198.063 43.9594C199.063 43.3897 199.852 43.3897 200.132 44.7398C200.321 45.6513 200.469 46.5741 200.703 47.4628C201.275 49.525 201.961 51.5643 202.521 53.6265C202.783 54.4591 202.902 55.3294 202.876 56.2014C202.67 58.856 202.413 61.4878 203.356 64.0797C203.525 64.5364 203.547 65.0342 203.419 65.5039C202.584 68.1414 203.15 70.739 203.419 73.3766C203.602 75.1482 203.299 76.9654 203.379 78.7541C203.451 79.8077 203.674 80.8454 204.042 81.836C204.487 83.1291 205.139 84.3482 205.636 85.6242C205.909 86.2897 206.036 87.0059 206.007 87.7243C205.979 88.4426 205.796 89.1466 205.471 89.7884C205.146 90.7046 205.104 91.6966 205.351 92.6367C206.145 96.2142 207.14 99.7404 207.917 103.318C208.352 105.317 210.869 106.705 211 108C211.19 109.882 210.5 111 210.5 111H197H191.5H181H173H167C167 111 166.978 109.162 167 108C167.03 106.417 167.971 105.296 168.308 103.973C168.645 102.649 169.251 101.408 170.089 100.327C170.56 99.7307 170.9 99.0419 171.086 98.3057C171.272 97.5695 171.3 96.8025 171.169 96.0547C171.13 95.1056 171.341 94.1629 171.781 93.3203C172.128 92.6066 172.281 91.8141 172.222 91.0229C172.164 90.2317 171.897 89.4698 171.449 88.8143C170.306 87.1794 170.334 85.5388 170.586 83.7501C170.677 83.1462 170.78 82.3772 170.494 81.9214C169.231 79.8764 170.054 78.213 171.117 76.4413C171.575 75.5518 171.865 74.5866 171.975 73.593C172.272 71.8271 172.449 70.0384 172.672 68.261C172.752 67.6287 172.827 67.0021 172.884 66.3698C172.941 65.7374 172.781 65.0994 173.038 64.6608C173.56 63.8198 174.149 63.0217 174.799 62.2739C175.37 62.8418 175.879 63.4681 176.319 64.1424C177.765 66.8767 178.731 69.6681 177.925 72.9037C177.577 74.3165 178.102 75.9286 177.965 77.4268C177.811 79.0674 177.336 80.6796 177.045 82.3088C177.002 82.794 177.002 83.282 177.045 83.7671C178.188 83.3684 179.183 81.7334 179.177 80.6625C179.177 80.0017 179.343 78.9877 179.783 78.7427C181.195 77.9338 180.926 76.88 180.623 75.7065C180.332 74.6697 179.857 73.6329 179.829 72.5904C179.821 71.5296 180.051 70.4805 180.503 69.52C180.892 68.6541 180.978 68.0218 180.412 67.2413C179.767 66.417 179.407 65.4074 179.384 64.3625C179.361 63.3177 179.678 62.2935 180.286 61.4422C180.746 60.7593 181.032 59.9745 181.118 59.1562C181.203 58.3379 181.087 57.5111 180.778 56.7482C180.475 56.0175 180.39 55.2156 180.532 54.438C180.674 53.6603 181.037 52.9397 181.578 52.3619C181.7 52.1472 181.774 51.9087 181.794 51.6629C181.815 51.417 181.782 51.1697 181.698 50.9377C181.512 50.4077 181.452 49.8417 181.525 49.2848C181.597 48.7279 181.799 48.1957 182.115 47.7305C182.56 46.8888 182.758 45.9392 182.687 44.9905C182.593 44.4088 182.64 43.8133 182.824 43.2534C183.008 42.6936 183.323 42.1856 183.744 41.7719C183.92 41.6356 184.066 41.4652 184.174 41.271C184.282 41.0769 184.35 40.863 184.373 40.6421C184.396 40.4213 184.374 40.1981 184.308 39.9859C184.242 39.7738 184.134 39.5772 183.99 39.4078C182.938 37.921 182.847 36.3545 183.275 34.6284C183.419 33.9655 183.336 33.2739 183.041 32.6631C181.435 29.4901 182.687 26.6532 183.956 23.7992C184.401 22.7852 185.099 22.8251 185.842 23.4232C186.45 23.9364 186.924 24.5894 187.223 25.3257C187.521 26.0621 187.636 26.8598 187.557 27.6501C187.414 30.7148 188.528 33.4093 189.506 36.195C189.696 36.5899 189.751 37.0365 189.66 37.4653C189.009 38.8894 189.523 40.1028 189.883 41.5099C190.243 42.9169 189.883 44.5006 189.466 45.9076C188.98 47.2887 188.98 48.7933 189.466 50.1744C189.917 51.4447 189.912 52.8746 190.135 54.2246C190.272 55.045 190.552 55.8539 190.609 56.6742C190.734 57.5129 190.672 58.3688 190.426 59.1807C190.188 59.6626 190.064 60.1928 190.064 60.7301C190.064 61.2675 190.188 61.7977 190.426 62.2796C191.562 64.7491 192.044 67.4673 191.827 70.1751C191.787 71.0922 192.341 72.0834 192.781 72.955C193.305 73.8999 193.875 74.8182 194.49 75.7065Z" fill="#859B96"/>
</svg>
