<svg width="45" height="45" viewBox="0 0 45 45" fill="none" xmlns="http://www.w3.org/2000/svg">
  <path d="M22.0015 42.2496C33.1466 42.2496 42.1815 33.2147 42.1815 22.0696C42.1815 10.9245 33.1466 1.88965 22.0015 1.88965C10.8564 1.88965 1.82153 10.9245 1.82153 22.0696C1.82153 33.2147 10.8564 42.2496 22.0015 42.2496Z" fill="#98AD9E"/>
  <path d="M22.0015 1.89032C25.9927 1.89032 29.8943 3.07385 33.2129 5.29126C36.5315 7.50867 39.118 10.6604 40.6454 14.3478C42.1727 18.0352 42.5724 22.0927 41.7937 26.0072C41.0151 29.9217 39.0931 33.5175 36.2709 36.3397C33.4487 39.1619 29.8529 41.0839 25.9384 41.8625C22.0239 42.6412 17.9663 42.2416 14.2789 40.7142C10.5915 39.1868 7.43982 36.6003 5.22242 33.2817C3.00501 29.9632 1.82148 26.0615 1.82148 22.0703C1.82148 16.7182 3.94758 11.5854 7.73206 7.8009C11.5165 4.01642 16.6494 1.89032 22.0015 1.89032ZM22.0015 0.0703125C17.6503 0.0703125 13.3968 1.36056 9.77892 3.77795C6.16104 6.19534 3.34125 9.63127 1.67612 13.6512C0.0109943 17.6712 -0.424675 22.0947 0.4242 26.3623C1.27307 30.6299 3.36836 34.5499 6.44512 37.6266C9.52187 40.7034 13.4419 42.7987 17.7095 43.6476C21.9771 44.4965 26.4005 44.0608 30.4205 42.3956C34.4405 40.7305 37.8764 37.9107 40.2938 34.2928C42.7112 30.675 44.0015 26.4215 44.0015 22.0703C44.0015 16.2355 41.6836 10.6398 37.5578 6.51398C33.432 2.38818 27.8362 0.0703125 22.0015 0.0703125Z" fill="#45595F"/>
  <path d="M42.1916 22.0698C42.1916 22.2898 42.1916 22.5098 42.1916 22.7298C41.9904 17.5137 39.7768 12.5782 36.0152 8.95892C32.2537 5.33965 27.2366 3.31793 22.0166 3.31793C16.7966 3.31793 11.7794 5.33965 8.01788 8.95892C4.25633 12.5782 2.04273 17.5137 1.84155 22.7298C1.84155 22.5098 1.84155 22.2898 1.84155 22.0698C1.95898 16.7942 4.13719 11.7742 7.90982 8.08466C11.6824 4.39507 16.7496 2.3291 22.0266 2.3291C27.3035 2.3291 32.3707 4.39507 36.1433 8.08466C39.9159 11.7742 42.0941 16.7942 42.2116 22.0698H42.1916Z" fill="#C4D6C4"/>
  <path d="M42.0716 21.1804C42.463 24.7223 41.9099 28.3047 40.4687 31.5638C39.0274 34.8228 36.7492 37.6424 33.8656 39.736C30.982 41.8296 27.5956 43.1226 24.0504 43.4839C20.5053 43.8451 16.9277 43.2617 13.681 41.7927C10.4344 40.3238 7.63433 38.0217 5.56534 35.1204C3.49635 32.219 2.23211 28.8217 1.90105 25.2736C1.56998 21.7255 2.18389 18.153 3.68041 14.919C5.17692 11.685 7.50272 8.90458 10.4216 6.86035C9.82414 7.3325 9.32643 7.91866 8.95735 8.58472C8.58827 9.25078 8.35518 9.98348 8.27158 10.7404C8.21583 11.3984 8.31871 12.0603 8.57158 12.6703C8.83616 13.2206 9.20762 13.7126 9.66431 14.1178C10.121 14.523 10.6538 14.8332 11.2316 15.0304C10.7716 15.0304 6.88157 14.9604 5.51157 17.3704C5.04157 18.2104 5.04158 19.1903 5.05158 21.1603C5.06158 23.1303 5.05158 24.3204 5.82158 25.3904C6.55151 26.3737 7.62065 27.0507 8.82158 27.2903C8.5173 28.3646 8.55222 29.5067 8.92157 30.5604C11.5316 37.3204 30.9216 37.3404 32.3716 33.1104C32.458 32.5871 32.4197 32.0509 32.2599 31.5452C32.1 31.0396 31.8231 30.5788 31.4516 30.2004C33.0082 30.5826 34.6517 30.3611 36.0516 29.5804C39.3416 27.5804 39.9316 22.2004 37.8316 19.0104C37.2249 18.0968 36.4045 17.3451 35.4416 16.8204C35.8016 16.7504 37.5816 16.4204 38.0416 15.1804C38.1305 14.767 38.131 14.3395 38.0432 13.9258C37.9553 13.5122 37.7809 13.1219 37.5316 12.7804C36.4895 10.8055 35.3029 8.91034 33.9816 7.11035C36.2297 8.76871 38.1093 10.8753 39.5018 13.2971C40.8943 15.7189 41.7693 18.4032 42.0716 21.1804Z" fill="#69827C"/>
  <path d="M34.5315 30.8896L36.9915 33.1497L37.3915 35.1497L38.2315 33.6696L37.7215 31.5496L34.5315 30.8896Z" fill="#98AD9E"/>
  <path d="M7.31136 28.29L5.37135 31.0601L5.14136 33.16L4.14136 31.3901L4.58136 29.0101L7.31136 28.29Z" fill="#98AD9E"/>
  <path d="M42.1915 22.0696C42.0741 27.3452 39.8959 32.3652 36.1233 36.0548C32.3506 39.7444 27.2834 41.8103 22.0065 41.8103C16.7296 41.8103 11.6624 39.7444 7.88979 36.0548C4.11716 32.3652 1.93896 27.3452 1.82153 22.0696C1.82153 21.6596 1.82153 21.2596 1.82153 20.8496C2.12451 25.9871 4.37886 30.8147 8.1235 34.345C11.8682 37.8754 16.8201 39.8416 21.9665 39.8416C27.1129 39.8416 32.0649 37.8754 35.8095 34.345C39.5542 30.8147 41.8086 25.9871 42.1115 20.8496C42.1715 21.2596 42.1915 21.6596 42.1915 22.0696Z" fill="#5C6F75"/>
  <path d="M1.86145 20.1904C1.86145 20.5204 1.86145 20.8604 1.94145 21.1904C2.02145 21.5204 1.86144 21.9804 1.84144 22.3804C1.84144 22.0604 1.84144 21.7304 1.84144 21.3804C1.84144 21.0304 1.83145 20.5904 1.86145 20.1904Z" fill="#5C6F75"/>
  <path d="M42.1914 21.4005C42.1914 21.7305 42.1914 22.0605 42.1914 22.4005C42.1914 21.9905 42.1314 21.5904 42.0914 21.1904C42.0514 20.7904 42.1514 20.5304 42.1714 20.1904C42.1714 20.5904 42.1914 21.0005 42.1914 21.4005Z" fill="#5C6F75"/>
  <path d="M3.52156 27.75L7.31155 28.29L4.86156 30.29L4.59155 32.29C4.32155 31.83 4.03155 31.29 3.76155 30.73C3.49155 30.17 3.27155 29.62 3.09155 29.12L3.52156 27.75Z" fill="#45595F"/>
  <path d="M34.5315 30.8896L38.5915 31.1296L39.0115 32.9396C38.8515 33.1896 38.6715 33.4497 38.4915 33.7097L37.9715 34.4196L37.4615 32.5996L34.5315 30.8896Z" fill="#45595F"/>
  <path d="M12.2614 5.35886C12.6018 5.20003 12.8132 4.9333 12.7338 4.76315C12.6544 4.59299 12.3142 4.58385 11.9738 4.74268C11.6335 4.90152 11.422 5.16818 11.5014 5.33834C11.5809 5.50849 11.9211 5.5177 12.2614 5.35886Z" fill="#E8F3EC"/>
  <path d="M14.0612 4.42935C14.3165 4.31022 14.4741 4.10816 14.4134 3.97804C14.3527 3.84792 14.0965 3.839 13.8413 3.95813C13.5861 4.07725 13.4284 4.27932 13.4891 4.40944C13.5498 4.53956 13.806 4.54847 14.0612 4.42935Z" fill="#E8F3EC"/>
  <path d="M4.00146 14.24L7.65146 14.67L6.05147 11C5.61643 11.5504 5.21246 12.1246 4.84146 12.72C4.52146 13.27 4.24146 13.77 4.00146 14.24Z" fill="#45595F"/>
  <path d="M7.66144 14.6702L3.72144 14.8403L4.01143 14.2402L7.66144 14.6702Z" fill="#98AD9E"/>
</svg>
