<svg width="28" height="30" viewBox="0 0 28 30" fill="none" xmlns="http://www.w3.org/2000/svg">
  <path d="M25.7515 4.45V24.59C25.7675 24.9919 25.7042 25.3931 25.5651 25.7705C25.426 26.1479 25.2138 26.4942 24.9408 26.7896C24.6677 27.0849 24.3391 27.3235 23.9737 27.4918C23.6084 27.66 23.2134 27.7546 22.8115 27.77H4.19147C3.78953 27.7546 3.39457 27.66 3.0292 27.4918C2.66383 27.3235 2.33521 27.0849 2.06215 26.7896C1.78909 26.4942 1.57694 26.1479 1.43783 25.7705C1.29872 25.3931 1.2354 24.9919 1.25147 24.59V4.45C1.24763 4.13521 1.29146 3.82167 1.38147 3.52C1.5397 2.88775 1.89952 2.32422 2.40651 1.91466C2.9135 1.5051 3.54008 1.27178 4.19147 1.25H22.8115C23.4395 1.26917 24.0457 1.48506 24.5445 1.86723C25.0433 2.2494 25.4095 2.77855 25.5915 3.38C25.7042 3.72523 25.7583 4.0869 25.7515 4.45Z" fill="#98AD9E"/>
  <path d="M22.8114 1.25C23.4395 1.26917 24.0457 1.48506 24.5445 1.86723C25.0433 2.2494 25.4095 2.77855 25.5914 3.38C25.6967 3.70293 25.7507 4.04036 25.7515 4.38V24.52C25.7675 24.9219 25.7042 25.3231 25.5651 25.7005C25.426 26.0779 25.2138 26.4242 24.9408 26.7196C24.6677 27.0149 24.3391 27.2535 23.9737 27.4218C23.6083 27.59 23.2134 27.6845 22.8114 27.7H4.19145C3.78951 27.6845 3.39455 27.59 3.02918 27.4218C2.66381 27.2535 2.3352 27.0149 2.06214 26.7196C1.78907 26.4242 1.57692 26.0779 1.43781 25.7005C1.29871 25.3231 1.23538 24.9219 1.25145 24.52V4.45C1.24762 4.13521 1.29145 3.82167 1.38145 3.52C1.53968 2.88775 1.89951 2.32422 2.4065 1.91466C2.91349 1.5051 3.54007 1.27178 4.19145 1.25H22.8114ZM22.8114 0H4.19145C3.27225 0.0217852 2.38503 0.341783 1.66354 0.911758C0.942054 1.48173 0.425395 2.2708 0.19145 3.16C0.0648345 3.57828 0.000809108 4.01298 0.00145155 4.45V24.59C-0.0281549 25.7325 0.396153 26.8401 1.18147 27.6704C1.96678 28.5007 3.04911 28.986 4.19145 29.02H22.8114C23.9538 28.986 25.0361 28.5007 25.8214 27.6704C26.6068 26.8401 27.0311 25.7325 27.0015 24.59V4.45C27.0024 3.95751 26.9247 3.46802 26.7714 3C26.5157 2.13647 25.9885 1.37834 25.268 0.837967C24.5475 0.297598 23.6721 0.00375564 22.7714 0H22.8114Z" fill="#45595F"/>
  <path d="M25.7514 4.24995V22.3999C25.7527 22.7864 25.6776 23.1693 25.5303 23.5266C25.383 23.8839 25.1665 24.2085 24.8932 24.4818C24.62 24.7551 24.2953 24.9716 23.938 25.1189C23.5807 25.2661 23.1978 25.3413 22.8114 25.34H4.19139C3.80493 25.3413 3.42203 25.2661 3.06474 25.1189C2.70744 24.9716 2.38282 24.7551 2.10955 24.4818C1.83628 24.2085 1.61977 23.8839 1.47249 23.5266C1.32521 23.1693 1.25007 22.7864 1.25139 22.3999V4.24995C1.24814 3.95816 1.29204 3.66775 1.38139 3.38995L2.83139 3.59996H2.89139C2.83139 4.02996 2.75139 4.67995 2.71139 5.47995C2.71139 5.59995 2.71139 5.70995 2.71139 5.80995C2.70226 5.95648 2.70226 6.10343 2.71139 6.24995C2.79139 7.33995 5.35139 8.16996 6.91139 8.57996L7.57139 8.73996L2.76139 10.99C2.59139 12.4 2.48139 13.6 2.42139 14.5C2.42139 14.89 2.37139 15.2 2.35139 15.5C2.31081 15.9537 2.3688 16.4108 2.52139 16.84C2.82594 17.5441 3.34353 18.1352 4.00139 18.53C4.15139 18.63 4.30139 18.71 4.42139 18.78C4.20139 18.88 2.84139 19.49 2.63139 20.67V20.75C2.42139 22.32 4.38139 23.8999 5.90139 23.8999C6.90139 23.8999 7.11139 23.18 8.39139 23.06C9.67139 22.94 10.2614 23.48 11.3914 23.86C12.6814 24.32 13.9014 24.2299 16.3314 24.0399C20.5714 23.7199 22.6914 23.5599 23.7714 22.0399C24.3414 21.2077 24.6095 20.2056 24.5314 19.2C24.5012 18.4931 24.3629 17.795 24.1214 17.13C23.7836 16.2956 23.2662 15.5459 22.606 14.9341C21.9458 14.3223 21.159 13.8634 20.3014 13.59C20.5014 13.59 20.8114 13.5899 21.1814 13.4799C21.7878 13.4155 22.3735 13.2225 22.8994 12.9139C23.4253 12.6052 23.8794 12.188 24.2314 11.69C24.5021 11.1205 24.6061 10.486 24.5314 9.85995C24.5314 9.43995 24.5314 8.91995 24.4414 8.24995C24.3414 7.03995 24.1614 5.37995 23.8314 3.38995H23.9114L25.6414 3.20996C25.7426 3.54674 25.7799 3.89946 25.7514 4.24995Z" fill="#718681"/>
  <path d="M25.7515 22.8398V24.8398C25.7515 25.6196 25.4417 26.3674 24.8904 26.9187C24.339 27.4701 23.5912 27.7798 22.8115 27.7798H4.19147C3.41173 27.7798 2.66393 27.4701 2.11257 26.9187C1.56121 26.3674 1.25146 25.6196 1.25146 24.8398V22.8398C1.25146 23.6196 1.56121 24.3674 2.11257 24.9187C2.66393 25.4701 3.41173 25.7798 4.19147 25.7798H22.8115C23.5912 25.7798 24.339 25.4701 24.8904 24.9187C25.4417 24.3674 25.7515 23.6196 25.7515 22.8398Z" fill="#586C6D"/>
  <path d="M25.7516 4.25V6.25C25.7596 5.85889 25.6894 5.47013 25.5453 5.10648C25.4011 4.74282 25.1858 4.41161 24.912 4.13222C24.6382 3.85283 24.3114 3.63087 23.9507 3.47939C23.59 3.3279 23.2028 3.24992 22.8116 3.25H4.19159C3.8004 3.24992 3.41313 3.3279 3.05247 3.47939C2.6918 3.63087 2.36499 3.85283 2.09119 4.13222C1.81739 4.41161 1.6021 4.74282 1.45793 5.10648C1.31376 5.47013 1.24361 5.85889 1.25159 6.25V4.25C1.24361 3.85889 1.31376 3.47013 1.45793 3.10648C1.6021 2.74282 1.81739 2.41161 2.09119 2.13222C2.36499 1.85283 2.6918 1.63087 3.05247 1.47939C3.41313 1.3279 3.8004 1.24992 4.19159 1.25H22.8116C23.2028 1.24992 23.59 1.3279 23.9507 1.47939C24.3114 1.63087 24.6382 1.85283 24.912 2.13222C25.1858 2.41161 25.4011 2.74282 25.5453 3.10648C25.6894 3.47013 25.7596 3.85889 25.7516 4.25Z" fill="#C3D0C0"/>
  <path d="M1.15147 7.09961L3.73147 8.84961L1.00146 10.0996L1.15147 7.09961Z" fill="#45595F"/>
  <path d="M1.15135 17.7598L2.53135 18.8498L1.13135 19.8498L1.15135 17.7598Z" fill="#45595F"/>
  <path d="M23.0015 13.6904C23.4415 14.0184 23.8529 14.3831 24.2315 14.7804C24.8236 15.3825 25.3407 16.0541 25.7715 16.7804V14.9504L23.0015 13.6904Z" fill="#EEF5E8"/>
  <path d="M23.0015 13.6895L26.0015 12.2695L25.9515 15.0095L23.0015 13.6895Z" fill="#45595F"/>
  <path d="M3.94598 2.93309C4.53636 2.68432 4.91585 2.24747 4.7936 1.95737C4.67136 1.66727 4.09367 1.63378 3.5033 1.88256C2.91292 2.13133 2.53342 2.56817 2.65567 2.85827C2.77791 3.14837 3.35561 3.18187 3.94598 2.93309Z" fill="#EEF5E8"/>
  <path d="M24.3651 2.8543C24.492 2.56623 24.1196 2.12328 23.5334 1.86495C22.9471 1.60663 22.369 1.63075 22.242 1.91882C22.1151 2.2069 22.4875 2.64984 23.0737 2.90817C23.66 3.16649 24.2381 3.14238 24.3651 2.8543Z" fill="#EEF5E8"/>
  <path d="M3.73147 8.84961L1.25146 11.5196V10.0096L3.73147 8.84961Z" fill="#EEF5E8"/>
  <path d="M2.53146 18.8496L1.25146 20.7396V19.8296L2.53146 18.8496Z" fill="#EEF5E8"/>
</svg>
